SplineFontDB: 3.2
FontName: Pretension-Regular
FullName: Pretension Regular
FamilyName: Pretension
Weight: Book
Copyright: Copyright 2016 The Inter Project Authors
Version: 4.000;git-a52131595
ItalicAngle: 0
UnderlinePosition: -348
UnderlineWidth: 140
Ascent: 1638
Descent: 410
InvalidEm: 0
sfntRevision: 0x00040000
LayerCount: 2
Layer: 0 1 "Back" 1
Layer: 1 1 "Fore" 0
XUID: [1021 89 -1234937351 13419631]
StyleMap: 0x0040
FSType: 0
OS2Version: 4
OS2_WeightWidthSlopeOnly: 0
OS2_UseTypoMetrics: 1
CreationTime: 1700438797
ModificationTime: 1707800943
PfmFamily: 17
TTFWeight: 400
TTFWidth: 5
LineGap: 0
VLineGap: 0
Panose: 2 0 5 3 0 0 0 2 0 4
OS2TypoAscent: 1984
OS2TypoAOffset: 0
OS2TypoDescent: -494
OS2TypoDOffset: 0
OS2TypoLinegap: 0
OS2WinAscent: 1984
OS2WinAOffset: 0
OS2WinDescent: 494
OS2WinDOffset: 0
HheadAscent: 1984
HheadAOffset: 0
HheadDescent: -494
HheadDOffset: 0
OS2SubXSize: 1331
OS2SubYSize: 1229
OS2SubXOff: 0
OS2SubYOff: 154
OS2SupXSize: 1331
OS2SupYSize: 1229
OS2SupXOff: 0
OS2SupYOff: 717
OS2StrikeYSize: 140
OS2StrikeYPos: 653
OS2CapHeight: 1490
OS2XHeight: 1087
OS2Vendor: 'RSMS'
OS2CodePages: 0000019f.00000000
OS2UnicodeRanges: e0000aff.5200a1ff.00000021.00000000
Lookup: 1 0 0 "'aalt' Access All Alternates in Latin lookup 0" { "'aalt' Access All Alternates in Latin lookup 0 subtable"  } ['aalt' ('DFLT' <'dflt' > 'latn' <'CAT ' 'MOL ' 'ROM ' 'dflt' > ) ]
Lookup: 3 0 0 "'aalt' Access All Alternates in Latin lookup 1" { "'aalt' Access All Alternates in Latin lookup 1 subtable"  } ['aalt' ('DFLT' <'dflt' > 'latn' <'CAT ' 'MOL ' 'ROM ' 'dflt' > ) ]
Lookup: 1 0 0 "Single Substitution lookup 2" { "Single Substitution lookup 2 subtable"  } []
Lookup: 4 0 0 "'ccmp' Glyph Composition/Decomposition in Latin lookup 3" { "'ccmp' Glyph Composition/Decomposition in Latin lookup 3 subtable"  } ['ccmp' ('DFLT' <'dflt' > 'latn' <'CAT ' 'MOL ' 'ROM ' 'dflt' > ) ]

StartChar: .notdef
Encoding: 1114112 -1 0
Width: 1344
Flags: W
LayerCount: 2
Fore
SplineSet
1016 -416 m 1,0,-1
 328 -416 l 1,1,-1
 328 1856 l 1,2,-1
 1016 1856 l 1,3,-1
 1016 -416 l 1,0,-1
512 -192 m 1,4,-1
 512 -256 l 1,5,-1
 832 -256 l 1,6,-1
 832 -192 l 1,7,-1
 617 -192 l 1,8,-1
 832 -65 l 1,9,-1
 832 0 l 1,10,-1
 512 0 l 1,11,-1
 512 -64 l 1,12,-1
 728 -64 l 1,13,-1
 512 -192 l 1,4,-1
512 320 m 1,14,-1
 512 64 l 1,15,-1
 832 64 l 1,16,-1
 832 320 l 1,17,-1
 512 320 l 1,14,-1
768 128 m 1,18,-1
 576 128 l 1,19,-1
 576 256 l 1,20,-1
 768 256 l 1,21,-1
 768 128 l 1,18,-1
512 704 m 1,22,-1
 512 448 l 1,23,-1
 832 448 l 1,24,-1
 832 704 l 1,25,-1
 640 704 l 1,26,-1
 640 576 l 1,27,-1
 704 576 l 1,28,-1
 704 640 l 1,29,-1
 768 640 l 1,30,-1
 768 512 l 1,31,-1
 576 512 l 1,32,-1
 576 704 l 1,33,-1
 512 704 l 1,22,-1
512 832 m 1,34,-1
 512 768 l 1,35,-1
 832 768 l 1,36,-1
 832 992 l 1,37,-1
 768 992 l 1,38,-1
 768 832 l 1,39,-1
 512 832 l 1,34,-1
512 960 m 1,40,-1
 512 896 l 1,41,-1
 704 896 l 1,42,-1
 704 1056 l 1,43,-1
 832 1056 l 1,44,-1
 832 1120 l 1,45,-1
 512 1120 l 1,46,-1
 512 1056 l 1,47,-1
 640 1056 l 1,48,-1
 640 960 l 1,49,-1
 512 960 l 1,40,-1
640 1248 m 1,50,-1
 576 1248 l 1,51,-1
 576 1344 l 1,52,-1
 640 1344 l 1,53,-1
 640 1248 l 1,50,-1
512 1408 m 1,54,-1
 512 1184 l 1,55,-1
 832 1184 l 1,56,-1
 832 1248 l 1,57,-1
 704 1248 l 1,58,-1
 704 1408 l 1,59,-1
 512 1408 l 1,54,-1
512 1536 m 1,60,-1
 512 1472 l 1,61,-1
 832 1472 l 1,62,-1
 832 1536 l 1,63,-1
 688 1536 l 1,64,-1
 688 1632 l 1,65,-1
 832 1632 l 1,66,-1
 832 1696 l 1,67,-1
 512 1696 l 1,68,-1
 512 1632 l 1,69,-1
 624 1632 l 1,70,-1
 624 1536 l 1,71,-1
 512 1536 l 1,60,-1
EndSplineSet
EndChar

StartChar: A
Encoding: 65 65 2
Width: 1376
GlyphClass: 2
Flags: W
AnchorPoint: "Anchor-4" 1340 0 basechar 0
AnchorPoint: "Anchor-1" 689 1490 basechar 0
AnchorPoint: "Anchor-0" 689 0 basechar 0
LayerCount: 2
Fore
SplineSet
36 0 m 1,0,-1
 582 1490 l 1,1,-1
 794 1490 l 1,2,-1
 1340 0 l 1,3,-1
 1144 0 l 1,4,-1
 829 891 l 2,5,6
 799 977 799 977 760.5 1095.5 c 128,-1,7
 722 1214 722 1214 665 1402 c 1,8,-1
 709 1402 l 1,9,10
 653 1213 653 1213 614 1093.5 c 128,-1,11
 575 974 575 974 546 891 c 2,12,-1
 231 0 l 1,13,-1
 36 0 l 1,0,-1
314 417 m 1,14,-1
 314 580 l 1,15,-1
 1062 580 l 1,16,-1
 1062 417 l 1,17,-1
 314 417 l 1,14,-1
EndSplineSet
Substitution2: "'c2sc' Capitals to Small Capitals in Latin lookup 68 subtable" a.sc
Substitution2: "'ss06' Style Set 6 in Latin lookup 52 subtable" A.squared
Substitution2: "'ss05' Style Set 5 in Latin lookup 51 subtable" uni24B6
Substitution2: "Single Substitution lookup 44 subtable" ordfeminine
AlternateSubs2: "'aalt' Access All Alternates in Latin lookup 1 subtable" ordfeminine a.sc
Position2: "'cpsp' Capital Spacing in Latin lookup 0 subtable" dx=0 dy=0 dh=0 dv=0
EndChar

StartChar: uni023A
Encoding: 570 570 46
Width: 1376
GlyphClass: 2
Flags: W
AnchorPoint: "Anchor-4" 1340 0 basechar 0
AnchorPoint: "Anchor-1" 689 1490 basechar 0
AnchorPoint: "Anchor-0" 689 0 basechar 0
LayerCount: 2
Fore
SplineSet
1128 1678 m 1,0,-1
 464 -190 l 1,1,-1
 298 -190 l 1,2,-1
 962 1678 l 1,3,-1
 1128 1678 l 1,0,-1
36 0 m 1,4,-1
 582 1490 l 1,5,-1
 794 1490 l 1,6,-1
 1340 0 l 1,7,-1
 1144 0 l 1,8,-1
 829 891 l 2,9,10
 799 977 799 977 760.5 1095.5 c 128,-1,11
 722 1214 722 1214 665 1402 c 1,12,-1
 709 1402 l 1,13,14
 653 1213 653 1213 614 1093.5 c 128,-1,15
 575 974 575 974 546 891 c 2,16,-1
 231 0 l 1,17,-1
 36 0 l 1,4,-1
314 417 m 1,18,-1
 314 580 l 1,19,-1
 1062 580 l 1,20,-1
 1062 417 l 1,21,-1
 314 417 l 1,18,-1
EndSplineSet
Position2: "'cpsp' Capital Spacing in Latin lookup 0 subtable" dx=0 dy=0 dh=0 dv=0
EndChar

StartChar: Lambda
Encoding: 923 923 60
Width: 1376
GlyphClass: 2
Flags: W
AnchorPoint: "Anchor-1" 689 1490 basechar 0
AnchorPoint: "Anchor-0" 689 0 basechar 0
LayerCount: 2
Fore
SplineSet
36 0 m 1,0,-1
 582 1490 l 1,1,-1
 794 1490 l 1,2,-1
 1340 0 l 1,3,-1
 1144 0 l 1,4,-1
 829 891 l 2,5,6
 799 977 799 977 760.5 1095.5 c 128,-1,7
 722 1214 722 1214 665 1402 c 1,8,-1
 709 1402 l 1,9,10
 653 1213 653 1213 614 1093.5 c 128,-1,11
 575 974 575 974 546 891 c 2,12,-1
 231 0 l 1,13,-1
 36 0 l 1,0,-1
EndSplineSet
Position2: "'cpsp' Capital Spacing in Latin lookup 0 subtable" dx=0 dy=0 dh=0 dv=0
EndChar

StartChar: AE
Encoding: 198 198 61
Width: 2008
GlyphClass: 2
Flags: W
AnchorPoint: "Anchor-1" 1319 1490 basechar 0
LayerCount: 2
Fore
SplineSet
36 0 m 1,0,-1
 732 1490 l 1,1,-1
 1901 1490 l 1,2,-1
 1901 1326 l 1,3,-1
 1148 1326 l 1,4,-1
 1148 831 l 1,5,-1
 1849 831 l 1,6,-1
 1849 667 l 1,7,-1
 1148 667 l 1,8,-1
 1148 164 l 1,9,-1
 1906 164 l 1,10,-1
 1906 0 l 1,11,-1
 967 0 l 1,12,-1
 967 1349 l 1,13,-1
 851 1349 l 1,14,-1
 235 0 l 1,15,-1
 36 0 l 1,0,-1
374 432 m 1,16,-1
 374 591 l 1,17,-1
 1058 591 l 1,18,-1
 1058 432 l 1,19,-1
 374 432 l 1,16,-1
EndSplineSet
Position2: "'cpsp' Capital Spacing in Latin lookup 0 subtable" dx=0 dy=0 dh=0 dv=0
EndChar

StartChar: B
Encoding: 66 66 65
Width: 1324
GlyphClass: 2
Flags: W
AnchorPoint: "Anchor-1" 636 1490 basechar 0
AnchorPoint: "Anchor-0" 644 0 basechar 0
LayerCount: 2
Fore
SplineSet
164 0 m 1,0,-1
 164 1490 l 1,1,-1
 697 1490 l 2,2,3
 850 1490 850 1490 954.5 1439 c 128,-1,4
 1059 1388 1059 1388 1112.5 1299 c 128,-1,5
 1166 1210 1166 1210 1166 1095 c 0,6,7
 1166 1004 1166 1004 1134.5 941.5 c 128,-1,8
 1103 879 1103 879 1048.5 839 c 128,-1,9
 994 799 994 799 923 777 c 1,10,-1
 923 769 l 1,11,12
 1001 760 1001 760 1070 717 c 128,-1,13
 1139 674 1139 674 1182.5 597 c 128,-1,14
 1226 520 1226 520 1226 408 c 0,15,16
 1226 288 1226 288 1171 196 c 128,-1,17
 1116 104 1116 104 1001.5 52 c 128,-1,18
 887 0 887 0 710 0 c 2,19,-1
 164 0 l 1,0,-1
349 164 m 1,20,-1
 707 164 l 2,21,22
 879 164 879 164 961 229.5 c 128,-1,23
 1043 295 1043 295 1043 405 c 0,24,25
 1043 484 1043 484 1004 545.5 c 128,-1,26
 965 607 965 607 892.5 642 c 128,-1,27
 820 677 820 677 717 677 c 2,28,-1
 349 677 l 1,29,-1
 349 164 l 1,20,-1
349 836 m 1,30,-1
 696 836 l 2,31,32
 782 836 782 836 847.5 867 c 128,-1,33
 913 898 913 898 949.5 954.5 c 128,-1,34
 986 1011 986 1011 986 1087 c 0,35,36
 986 1193 986 1193 913.5 1259.5 c 128,-1,37
 841 1326 841 1326 699 1326 c 2,38,-1
 349 1326 l 1,39,-1
 349 836 l 1,30,-1
EndSplineSet
Substitution2: "'ss06' Style Set 6 in Latin lookup 52 subtable" B.squared
Substitution2: "'ss05' Style Set 5 in Latin lookup 51 subtable" uni24B7
Position2: "'cpsp' Capital Spacing in Latin lookup 0 subtable" dx=0 dy=0 dh=0 dv=0
EndChar

StartChar: uni0181
Encoding: 385 385 70
Width: 1604
GlyphClass: 2
Flags: W
AnchorPoint: "Anchor-1" 916 1490 basechar 0
AnchorPoint: "Anchor-0" 924 0 basechar 0
LayerCount: 2
Fore
SplineSet
52 1082 m 1,0,-1
 52 1211 l 2,1,2
 52 1352 52 1352 126 1421 c 128,-1,3
 200 1490 200 1490 348 1490 c 2,4,-1
 444 1490 l 1,5,-1
 444 1327 l 1,6,-1
 349 1327 l 2,7,8
 283 1327 283 1327 253.5 1298.5 c 128,-1,9
 224 1270 224 1270 224 1208 c 2,10,-1
 224 1082 l 1,11,-1
 52 1082 l 1,0,-1
444 0 m 1,12,-1
 444 1490 l 1,13,-1
 977 1490 l 2,14,15
 1130 1490 1130 1490 1234.5 1439 c 128,-1,16
 1339 1388 1339 1388 1392.5 1299 c 128,-1,17
 1446 1210 1446 1210 1446 1095 c 0,18,19
 1446 1004 1446 1004 1414.5 941.5 c 128,-1,20
 1383 879 1383 879 1328.5 839 c 128,-1,21
 1274 799 1274 799 1203 777 c 1,22,-1
 1203 769 l 1,23,24
 1281 760 1281 760 1350 717 c 128,-1,25
 1419 674 1419 674 1462.5 597 c 128,-1,26
 1506 520 1506 520 1506 408 c 0,27,28
 1506 288 1506 288 1451 196 c 128,-1,29
 1396 104 1396 104 1281.5 52 c 128,-1,30
 1167 0 1167 0 990 0 c 2,31,-1
 444 0 l 1,12,-1
629 164 m 1,32,-1
 987 164 l 2,33,34
 1159 164 1159 164 1241 229.5 c 128,-1,35
 1323 295 1323 295 1323 405 c 0,36,37
 1323 484 1323 484 1284 545.5 c 128,-1,38
 1245 607 1245 607 1172.5 642 c 128,-1,39
 1100 677 1100 677 997 677 c 2,40,-1
 629 677 l 1,41,-1
 629 164 l 1,32,-1
629 836 m 1,42,-1
 976 836 l 2,43,44
 1062 836 1062 836 1127.5 867 c 128,-1,45
 1193 898 1193 898 1229.5 954.5 c 128,-1,46
 1266 1011 1266 1011 1266 1087 c 0,47,48
 1266 1193 1266 1193 1193.5 1259.5 c 128,-1,49
 1121 1326 1121 1326 979 1326 c 2,50,-1
 629 1326 l 1,51,-1
 629 836 l 1,42,-1
EndSplineSet
Position2: "'cpsp' Capital Spacing in Latin lookup 0 subtable" dx=0 dy=0 dh=0 dv=0
EndChar

StartChar: C
Encoding: 67 67 73
Width: 1488
GlyphClass: 2
Flags: W
AnchorPoint: "Anchor-3" 770 -5 basechar 0
AnchorPoint: "Anchor-1" 771 1490 basechar 0
LayerCount: 2
Fore
SplineSet
781 -22 m 0,0,1
 583 -22 583 -22 430.5 73.5 c 128,-1,2
 278 169 278 169 192 341.5 c 128,-1,3
 106 514 106 514 106 744 c 0,4,5
 106 976 106 976 192 1148.5 c 128,-1,6
 278 1321 278 1321 430.5 1416.5 c 128,-1,7
 583 1512 583 1512 781 1512 c 0,8,9
 896 1512 896 1512 997.5 1478 c 128,-1,10
 1099 1444 1099 1444 1180 1379 c 128,-1,11
 1261 1314 1261 1314 1314.5 1222.5 c 128,-1,12
 1368 1131 1368 1131 1389 1015 c 1,13,-1
 1202 1015 l 1,14,15
 1185 1094 1185 1094 1146 1154.5 c 128,-1,16
 1107 1215 1107 1215 1051.5 1256.5 c 128,-1,17
 996 1298 996 1298 927 1319 c 128,-1,18
 858 1340 858 1340 781 1340 c 0,19,20
 636 1340 636 1340 525 1268 c 128,-1,21
 414 1196 414 1196 351.5 1062.5 c 128,-1,22
 289 929 289 929 289 744 c 0,23,24
 289 561 289 561 351.5 427.5 c 128,-1,25
 414 294 414 294 525 222 c 128,-1,26
 636 150 636 150 781 150 c 0,27,28
 858 150 858 150 926.5 171.5 c 128,-1,29
 995 193 995 193 1051 234 c 128,-1,30
 1107 275 1107 275 1146 335.5 c 128,-1,31
 1185 396 1185 396 1202 475 c 1,32,-1
 1389 475 l 1,33,34
 1369 360 1369 360 1315 268.5 c 128,-1,35
 1261 177 1261 177 1180.5 112 c 128,-1,36
 1100 47 1100 47 998.5 12.5 c 128,-1,37
 897 -22 897 -22 781 -22 c 0,0,1
EndSplineSet
Substitution2: "'ss06' Style Set 6 in Latin lookup 52 subtable" C.squared
Substitution2: "'ss05' Style Set 5 in Latin lookup 51 subtable" uni24B8
Position2: "'cpsp' Capital Spacing in Latin lookup 0 subtable" dx=0 dy=0 dh=0 dv=0
EndChar

StartChar: uni0187
Encoding: 391 391 74
Width: 1488
GlyphClass: 2
Flags: W
AnchorPoint: "Anchor-3" 770 -5 basechar 0
AnchorPoint: "Anchor-1" 771 1490 basechar 0
LayerCount: 2
Fore
SplineSet
1219 1015 m 1,0,-1
 1219 1429 l 2,1,2
 1219 1552 1219 1552 1292 1616.5 c 128,-1,3
 1365 1681 1365 1681 1506 1681 c 0,4,5
 1539 1681 1539 1681 1564.5 1679.5 c 128,-1,6
 1590 1678 1590 1678 1608 1676 c 1,7,-1
 1608 1528 l 1,8,9
 1592 1529 1592 1529 1567.5 1529.5 c 128,-1,10
 1543 1530 1543 1530 1529 1530 c 0,11,12
 1455 1530 1455 1530 1422 1506 c 128,-1,13
 1389 1482 1389 1482 1389 1429 c 2,14,-1
 1389 1015 l 1,15,-1
 1219 1015 l 1,0,-1
781 -22 m 0,16,17
 583 -22 583 -22 430.5 73.5 c 128,-1,18
 278 169 278 169 192 341.5 c 128,-1,19
 106 514 106 514 106 744 c 0,20,21
 106 976 106 976 192 1148.5 c 128,-1,22
 278 1321 278 1321 430.5 1416.5 c 128,-1,23
 583 1512 583 1512 781 1512 c 0,24,25
 896 1512 896 1512 997.5 1478 c 128,-1,26
 1099 1444 1099 1444 1180 1379 c 128,-1,27
 1261 1314 1261 1314 1314.5 1222.5 c 128,-1,28
 1368 1131 1368 1131 1389 1015 c 1,29,-1
 1202 1015 l 1,30,31
 1185 1094 1185 1094 1146 1154.5 c 128,-1,32
 1107 1215 1107 1215 1051.5 1256.5 c 128,-1,33
 996 1298 996 1298 927 1319 c 128,-1,34
 858 1340 858 1340 781 1340 c 0,35,36
 636 1340 636 1340 525 1268 c 128,-1,37
 414 1196 414 1196 351.5 1062.5 c 128,-1,38
 289 929 289 929 289 744 c 0,39,40
 289 561 289 561 351.5 427.5 c 128,-1,41
 414 294 414 294 525 222 c 128,-1,42
 636 150 636 150 781 150 c 0,43,44
 858 150 858 150 926.5 171.5 c 128,-1,45
 995 193 995 193 1051 234 c 128,-1,46
 1107 275 1107 275 1146 335.5 c 128,-1,47
 1185 396 1185 396 1202 475 c 1,48,-1
 1389 475 l 1,49,50
 1369 360 1369 360 1315 268.5 c 128,-1,51
 1261 177 1261 177 1180.5 112 c 128,-1,52
 1100 47 1100 47 998.5 12.5 c 128,-1,53
 897 -22 897 -22 781 -22 c 0,16,17
EndSplineSet
Position2: "'cpsp' Capital Spacing in Latin lookup 0 subtable" dx=0 dy=0 dh=0 dv=0
EndChar

StartChar: uni023B
Encoding: 571 571 81
Width: 1488
GlyphClass: 2
Flags: W
AnchorPoint: "Anchor-3" 770 -5 basechar 0
AnchorPoint: "Anchor-1" 771 1490 basechar 0
LayerCount: 2
Fore
SplineSet
322 -190 m 1,0,-1
 984 1678 l 1,1,-1
 1150 1678 l 1,2,-1
 488 -190 l 1,3,-1
 322 -190 l 1,0,-1
781 -22 m 0,4,5
 583 -22 583 -22 430.5 73.5 c 128,-1,6
 278 169 278 169 192 341.5 c 128,-1,7
 106 514 106 514 106 744 c 0,8,9
 106 976 106 976 192 1148.5 c 128,-1,10
 278 1321 278 1321 430.5 1416.5 c 128,-1,11
 583 1512 583 1512 781 1512 c 0,12,13
 896 1512 896 1512 997.5 1478 c 128,-1,14
 1099 1444 1099 1444 1180 1379 c 128,-1,15
 1261 1314 1261 1314 1314.5 1222.5 c 128,-1,16
 1368 1131 1368 1131 1389 1015 c 1,17,-1
 1202 1015 l 1,18,19
 1185 1094 1185 1094 1146 1154.5 c 128,-1,20
 1107 1215 1107 1215 1051.5 1256.5 c 128,-1,21
 996 1298 996 1298 927 1319 c 128,-1,22
 858 1340 858 1340 781 1340 c 0,23,24
 636 1340 636 1340 525 1268 c 128,-1,25
 414 1196 414 1196 351.5 1062.5 c 128,-1,26
 289 929 289 929 289 744 c 0,27,28
 289 561 289 561 351.5 427.5 c 128,-1,29
 414 294 414 294 525 222 c 128,-1,30
 636 150 636 150 781 150 c 0,31,32
 858 150 858 150 926.5 171.5 c 128,-1,33
 995 193 995 193 1051 234 c 128,-1,34
 1107 275 1107 275 1146 335.5 c 128,-1,35
 1185 396 1185 396 1202 475 c 1,36,-1
 1389 475 l 1,37,38
 1369 360 1369 360 1315 268.5 c 128,-1,39
 1261 177 1261 177 1180.5 112 c 128,-1,40
 1100 47 1100 47 998.5 12.5 c 128,-1,41
 897 -22 897 -22 781 -22 c 0,4,5
EndSplineSet
Ligature2: "'ccmp' Glyph Composition/Decomposition in Latin lookup 6 subtable" C uni0338
Position2: "'cpsp' Capital Spacing in Latin lookup 0 subtable" dx=0 dy=0 dh=0 dv=0
EndChar

StartChar: uni0186
Encoding: 390 390 82
Width: 1488
GlyphClass: 2
Flags: W
AnchorPoint: "Anchor-3" 718 1496 basechar 0
AnchorPoint: "Anchor-1" 717 0 basechar 0
LayerCount: 2
Fore
SplineSet
707 1512 m 0,0,1
 905 1512 905 1512 1057.5 1416.5 c 128,-1,2
 1210 1321 1210 1321 1296 1148.5 c 128,-1,3
 1382 976 1382 976 1382 746 c 256,4,5
 1382 516 1382 516 1296 343 c 128,-1,6
 1210 170 1210 170 1058 74 c 128,-1,7
 906 -22 906 -22 707 -22 c 0,8,9
 592 -22 592 -22 490.5 12 c 128,-1,10
 389 46 389 46 308 111 c 128,-1,11
 227 176 227 176 173.5 268 c 128,-1,12
 120 360 120 360 99 476 c 1,13,-1
 286 476 l 1,14,15
 303 397 303 397 342 336.5 c 128,-1,16
 381 276 381 276 436.5 234 c 128,-1,17
 492 192 492 192 561 171 c 128,-1,18
 630 150 630 150 707 150 c 0,19,20
 852 150 852 150 963 222.5 c 128,-1,21
 1074 295 1074 295 1136.5 428.5 c 128,-1,22
 1199 562 1199 562 1199 746 c 256,23,24
 1199 930 1199 930 1136.5 1063.5 c 128,-1,25
 1074 1197 1074 1197 963 1268.5 c 128,-1,26
 852 1340 852 1340 707 1340 c 0,27,28
 630 1340 630 1340 561.5 1319 c 128,-1,29
 493 1298 493 1298 437 1256.5 c 128,-1,30
 381 1215 381 1215 342 1154.5 c 128,-1,31
 303 1094 303 1094 286 1016 c 1,32,-1
 99 1016 l 1,33,34
 119 1131 119 1131 173 1222.5 c 128,-1,35
 227 1314 227 1314 307.5 1379 c 128,-1,36
 388 1444 388 1444 489.5 1478 c 128,-1,37
 591 1512 591 1512 707 1512 c 0,0,1
EndSplineSet
Position2: "'cpsp' Capital Spacing in Latin lookup 0 subtable" dx=0 dy=0 dh=0 dv=0
EndChar

StartChar: D
Encoding: 68 68 84
Width: 1445
GlyphClass: 2
Flags: W
AnchorPoint: "Anchor-1" 602 1490 basechar 0
AnchorPoint: "Anchor-0" 609 0 basechar 0
LayerCount: 2
Fore
SplineSet
627 0 m 2,0,-1
 268 0 l 1,1,-1
 268 164 l 1,2,-1
 615 164 l 2,3,4
 798 164 798 164 918.5 234.5 c 128,-1,5
 1039 305 1039 305 1098 436 c 128,-1,6
 1157 567 1157 567 1157 748 c 0,7,8
 1157 928 1157 928 1098.5 1057.5 c 128,-1,9
 1040 1187 1040 1187 924 1256.5 c 128,-1,10
 808 1326 808 1326 634 1326 c 2,11,-1
 260 1326 l 1,12,-1
 260 1490 l 1,13,-1
 646 1490 l 2,14,15
 864 1490 864 1490 1018.5 1401 c 128,-1,16
 1173 1312 1173 1312 1256 1145.5 c 128,-1,17
 1339 979 1339 979 1339 748 c 0,18,19
 1339 515 1339 515 1255.5 347.5 c 128,-1,20
 1172 180 1172 180 1013 90 c 128,-1,21
 854 0 854 0 627 0 c 2,0,-1
349 1490 m 1,22,-1
 349 0 l 1,23,-1
 164 0 l 1,24,-1
 164 1490 l 1,25,-1
 349 1490 l 1,22,-1
EndSplineSet
Substitution2: "'ss06' Style Set 6 in Latin lookup 52 subtable" D.squared
Substitution2: "'ss05' Style Set 5 in Latin lookup 51 subtable" uni24B9
Position2: "'cpsp' Capital Spacing in Latin lookup 0 subtable" dx=0 dy=0 dh=0 dv=0
EndChar

StartChar: uni018A
Encoding: 394 394 85
Width: 1725
GlyphClass: 2
Flags: W
AnchorPoint: "Anchor-1" 882 1490 basechar 0
AnchorPoint: "Anchor-0" 889 0 basechar 0
LayerCount: 2
Fore
SplineSet
52 1082 m 1,0,-1
 52 1211 l 2,1,2
 52 1352 52 1352 126 1421 c 128,-1,3
 200 1490 200 1490 348 1490 c 2,4,-1
 444 1490 l 1,5,-1
 444 1327 l 1,6,-1
 349 1327 l 2,7,8
 283 1327 283 1327 253.5 1298.5 c 128,-1,9
 224 1270 224 1270 224 1208 c 2,10,-1
 224 1082 l 1,11,-1
 52 1082 l 1,0,-1
907 0 m 2,12,-1
 548 0 l 1,13,-1
 548 164 l 1,14,-1
 895 164 l 2,15,16
 1078 164 1078 164 1198.5 234.5 c 128,-1,17
 1319 305 1319 305 1378 436 c 128,-1,18
 1437 567 1437 567 1437 748 c 0,19,20
 1437 928 1437 928 1378.5 1057.5 c 128,-1,21
 1320 1187 1320 1187 1204 1256.5 c 128,-1,22
 1088 1326 1088 1326 914 1326 c 2,23,-1
 540 1326 l 1,24,-1
 540 1490 l 1,25,-1
 926 1490 l 2,26,27
 1144 1490 1144 1490 1299 1401 c 128,-1,28
 1454 1312 1454 1312 1536.5 1145.5 c 128,-1,29
 1619 979 1619 979 1619 748 c 0,30,31
 1619 515 1619 515 1535.5 347.5 c 128,-1,32
 1452 180 1452 180 1293 90 c 128,-1,33
 1134 0 1134 0 907 0 c 2,12,-1
629 1490 m 1,34,-1
 629 0 l 1,35,-1
 444 0 l 1,36,-1
 444 1490 l 1,37,-1
 629 1490 l 1,34,-1
EndSplineSet
Position2: "'cpsp' Capital Spacing in Latin lookup 0 subtable" dx=0 dy=0 dh=0 dv=0
EndChar

StartChar: E
Encoding: 69 69 95
Width: 1209
GlyphClass: 2
Flags: W
AnchorPoint: "Anchor-4" 1107 0 basechar 0
AnchorPoint: "Anchor-3" 641 0 basechar 0
AnchorPoint: "Anchor-1" 636 1490 basechar 0
AnchorPoint: "Anchor-0" 636 0 basechar 0
LayerCount: 2
Fore
SplineSet
164 0 m 1,0,-1
 164 1490 l 1,1,-1
 1103 1490 l 1,2,-1
 1103 1326 l 1,3,-1
 349 1326 l 1,4,-1
 349 840 l 1,5,-1
 1049 840 l 1,6,-1
 1049 676 l 1,7,-1
 349 676 l 1,8,-1
 349 164 l 1,9,-1
 1107 164 l 1,10,-1
 1107 0 l 1,11,-1
 164 0 l 1,0,-1
EndSplineSet
Substitution2: "'ss06' Style Set 6 in Latin lookup 52 subtable" E.squared
Substitution2: "'ss05' Style Set 5 in Latin lookup 51 subtable" uni24BA
Position2: "'cpsp' Capital Spacing in Latin lookup 0 subtable" dx=0 dy=0 dh=0 dv=0
EndChar

StartChar: uni0246
Encoding: 582 582 121
Width: 1209
GlyphClass: 2
Flags: W
AnchorPoint: "Anchor-4" 1107 0 basechar 0
AnchorPoint: "Anchor-3" 641 0 basechar 0
AnchorPoint: "Anchor-1" 636 1490 basechar 0
AnchorPoint: "Anchor-0" 636 0 basechar 0
LayerCount: 2
Fore
SplineSet
306 -190 m 1,0,-1
 846 1678 l 1,1,-1
 1010 1678 l 1,2,-1
 472 -190 l 1,3,-1
 306 -190 l 1,0,-1
164 0 m 1,4,-1
 164 1490 l 1,5,-1
 1103 1490 l 1,6,-1
 1103 1326 l 1,7,-1
 349 1326 l 1,8,-1
 349 840 l 1,9,-1
 1049 840 l 1,10,-1
 1049 676 l 1,11,-1
 349 676 l 1,12,-1
 349 164 l 1,13,-1
 1107 164 l 1,14,-1
 1107 0 l 1,15,-1
 164 0 l 1,4,-1
EndSplineSet
Position2: "'cpsp' Capital Spacing in Latin lookup 0 subtable" dx=0 dy=0 dh=0 dv=0
EndChar

StartChar: Eturn
Encoding: 398 398 122
Width: 1209
GlyphClass: 2
Flags: W
AnchorPoint: "Anchor-4" 102 1490 basechar 0
AnchorPoint: "Anchor-3" 596 0 basechar 0
AnchorPoint: "Anchor-1" 600 1490 basechar 0
AnchorPoint: "Anchor-0" 593 0 basechar 0
LayerCount: 2
Fore
SplineSet
1045 1490 m 1,0,-1
 1045 0 l 1,1,-1
 107 0 l 1,2,-1
 107 164 l 1,3,-1
 860 164 l 1,4,-1
 860 651 l 1,5,-1
 160 651 l 1,6,-1
 160 815 l 1,7,-1
 860 815 l 1,8,-1
 860 1326 l 1,9,-1
 102 1326 l 1,10,-1
 102 1490 l 1,11,-1
 1045 1490 l 1,0,-1
EndSplineSet
Position2: "'cpsp' Capital Spacing in Latin lookup 0 subtable" dx=0 dy=0 dh=0 dv=0
EndChar

StartChar: F
Encoding: 70 70 137
Width: 1172
GlyphClass: 2
Flags: W
AnchorPoint: "Anchor-1" 624 1490 basechar 0
AnchorPoint: "Anchor-0" 257 0 basechar 0
LayerCount: 2
Fore
SplineSet
164 0 m 1,0,-1
 164 1490 l 1,1,-1
 1083 1490 l 1,2,-1
 1083 1326 l 1,3,-1
 349 1326 l 1,4,-1
 349 828 l 1,5,-1
 1019 828 l 1,6,-1
 1019 664 l 1,7,-1
 349 664 l 1,8,-1
 349 0 l 1,9,-1
 164 0 l 1,0,-1
EndSplineSet
Substitution2: "'ss06' Style Set 6 in Latin lookup 52 subtable" F.squared
Substitution2: "'ss05' Style Set 5 in Latin lookup 51 subtable" uni24BB
Position2: "'cpsp' Capital Spacing in Latin lookup 0 subtable" dx=0 dy=0 dh=0 dv=0
EndChar

StartChar: uni0191
Encoding: 401 401 138
Width: 1172
GlyphClass: 2
Flags: W
AnchorPoint: "Anchor-1" 624 1490 basechar 0
AnchorPoint: "Anchor-0" 257 0 basechar 0
LayerCount: 2
Fore
SplineSet
-45 -418 m 1,0,-1
 -45 -260 l 1,1,2
 -29 -262 -29 -262 -4 -262.5 c 128,-1,3
 21 -263 21 -263 34 -263 c 0,4,5
 108 -263 108 -263 136 -239 c 128,-1,6
 164 -215 164 -215 164 -162 c 2,7,-1
 164 128 l 1,8,-1
 349 128 l 1,9,-1
 349 -170 l 2,10,11
 349 -293 349 -293 276 -357.5 c 128,-1,12
 203 -422 203 -422 62 -422 c 0,13,14
 29 -422 29 -422 1 -421 c 128,-1,15
 -27 -420 -27 -420 -45 -418 c 1,0,-1
164 0 m 1,16,-1
 164 1490 l 1,17,-1
 1083 1490 l 1,18,-1
 1083 1326 l 1,19,-1
 349 1326 l 1,20,-1
 349 828 l 1,21,-1
 1019 828 l 1,22,-1
 1019 664 l 1,23,-1
 349 664 l 1,24,-1
 349 0 l 1,25,-1
 164 0 l 1,16,-1
EndSplineSet
Position2: "'cpsp' Capital Spacing in Latin lookup 0 subtable" dx=0 dy=0 dh=0 dv=0
EndChar

StartChar: Fturn
Encoding: 8498 8498 140
Width: 1172
GlyphClass: 2
Flags: W
AnchorPoint: "Anchor-1" 897 1490 basechar 0
AnchorPoint: "Anchor-0" 544 0 basechar 0
LayerCount: 2
Fore
SplineSet
1008 1490 m 1,0,-1
 1008 0 l 1,1,-1
 89 0 l 1,2,-1
 89 164 l 1,3,-1
 823 164 l 1,4,-1
 823 663 l 1,5,-1
 153 663 l 1,6,-1
 153 827 l 1,7,-1
 823 827 l 1,8,-1
 823 1490 l 1,9,-1
 1008 1490 l 1,0,-1
EndSplineSet
Position2: "'cpsp' Capital Spacing in Latin lookup 0 subtable" dx=0 dy=0 dh=0 dv=0
EndChar

StartChar: G
Encoding: 1114113 -1 141
Width: 1512
GlyphClass: 2
Flags: W
AnchorPoint: "Anchor-1" 768 1490 basechar 0
AnchorPoint: "Anchor-0" 766 0 basechar 0
LayerCount: 2
Fore
SplineSet
780 -22 m 0,0,1
 582 -22 582 -22 430 74 c 128,-1,2
 278 170 278 170 192 342.5 c 128,-1,3
 106 515 106 515 106 744 c 0,4,5
 106 976 106 976 192 1148.5 c 128,-1,6
 278 1321 278 1321 429 1416.5 c 128,-1,7
 580 1512 580 1512 774 1512 c 0,8,9
 893 1512 893 1512 996 1476 c 128,-1,10
 1099 1440 1099 1440 1180.5 1374 c 128,-1,11
 1262 1308 1262 1308 1316.5 1217 c 128,-1,12
 1371 1126 1371 1126 1390 1016 c 1,13,-1
 1201 1016 l 1,14,15
 1181 1089 1181 1089 1142.5 1148.5 c 128,-1,16
 1104 1208 1104 1208 1048.5 1251 c 128,-1,17
 993 1294 993 1294 924 1317 c 128,-1,18
 855 1340 855 1340 775 1340 c 0,19,20
 635 1340 635 1340 525 1268 c 128,-1,21
 415 1196 415 1196 352 1062.5 c 128,-1,22
 289 929 289 929 289 744 c 0,23,24
 289 561 289 561 352 428 c 128,-1,25
 415 295 415 295 526 222.5 c 128,-1,26
 637 150 637 150 780 150 c 0,27,28
 906 150 906 150 1005 205 c 128,-1,29
 1104 260 1104 260 1161 359 c 128,-1,30
 1218 458 1218 458 1218 591 c 1,31,-1
 1276 584 l 1,32,-1
 830 584 l 1,33,-1
 830 747 l 1,34,-1
 1400 747 l 1,35,-1
 1400 585 l 2,36,37
 1400 406 1400 406 1319 269 c 128,-1,38
 1238 132 1238 132 1098 55 c 128,-1,39
 958 -22 958 -22 780 -22 c 0,0,1
EndSplineSet
Substitution2: "'c2sc' Capitals to Small Capitals in Latin lookup 68 subtable" g.sc
Substitution2: "'cv10' Character Variants 10 in Latin lookup 64 subtable" G.1
Substitution2: "'ss06' Style Set 6 in Latin lookup 52 subtable" G.squared
Substitution2: "'ss05' Style Set 5 in Latin lookup 51 subtable" uni24BC
Substitution2: "'salt' Stylistic Alternatives in Latin lookup 46 subtable" G.1
Substitution2: "'aalt' Access All Alternates in Latin lookup 0 subtable" g.sc
Position2: "'cpsp' Capital Spacing in Latin lookup 0 subtable" dx=0 dy=0 dh=0 dv=0
EndChar

StartChar: uni0193
Encoding: 1114115 -1 143
Width: 1512
GlyphClass: 2
Flags: W
AnchorPoint: "Anchor-1" 768 1490 basechar 0
AnchorPoint: "Anchor-0" 766 0 basechar 0
LayerCount: 2
Fore
SplineSet
1220 1016 m 1,0,-1
 1220 1429 l 2,1,2
 1220 1552 1220 1552 1293.5 1616 c 128,-1,3
 1367 1680 1367 1680 1507 1680 c 0,4,5
 1541 1680 1541 1680 1566.5 1679 c 128,-1,6
 1592 1678 1592 1678 1610 1676 c 1,7,-1
 1610 1527 l 1,8,9
 1594 1528 1594 1528 1569 1528.5 c 128,-1,10
 1544 1529 1544 1529 1530 1529 c 0,11,12
 1456 1529 1456 1529 1423 1505 c 128,-1,13
 1390 1481 1390 1481 1390 1429 c 2,14,-1
 1390 1016 l 1,15,-1
 1220 1016 l 1,0,-1
780 -22 m 0,16,17
 582 -22 582 -22 430 74 c 128,-1,18
 278 170 278 170 192 342.5 c 128,-1,19
 106 515 106 515 106 744 c 0,20,21
 106 976 106 976 192 1148.5 c 128,-1,22
 278 1321 278 1321 429 1416.5 c 128,-1,23
 580 1512 580 1512 774 1512 c 0,24,25
 893 1512 893 1512 996 1476 c 128,-1,26
 1099 1440 1099 1440 1180.5 1374 c 128,-1,27
 1262 1308 1262 1308 1316.5 1217 c 128,-1,28
 1371 1126 1371 1126 1390 1016 c 1,29,-1
 1201 1016 l 1,30,31
 1181 1089 1181 1089 1142.5 1148.5 c 128,-1,32
 1104 1208 1104 1208 1048.5 1251 c 128,-1,33
 993 1294 993 1294 924 1317 c 128,-1,34
 855 1340 855 1340 775 1340 c 0,35,36
 635 1340 635 1340 525 1268 c 128,-1,37
 415 1196 415 1196 352 1062.5 c 128,-1,38
 289 929 289 929 289 744 c 0,39,40
 289 561 289 561 352 428 c 128,-1,41
 415 295 415 295 526 222.5 c 128,-1,42
 637 150 637 150 780 150 c 0,43,44
 906 150 906 150 1005 205 c 128,-1,45
 1104 260 1104 260 1161 359 c 128,-1,46
 1218 458 1218 458 1218 591 c 1,47,-1
 1276 584 l 1,48,-1
 830 584 l 1,49,-1
 830 747 l 1,50,-1
 1400 747 l 1,51,-1
 1400 585 l 2,52,53
 1400 406 1400 406 1319 269 c 128,-1,54
 1238 132 1238 132 1098 55 c 128,-1,55
 958 -22 958 -22 780 -22 c 0,16,17
EndSplineSet
Substitution2: "'c2sc' Capitals to Small Capitals in Latin lookup 68 subtable" uni0260.sc
Substitution2: "'cv10' Character Variants 10 in Latin lookup 64 subtable" uni0193.1
Substitution2: "'salt' Stylistic Alternatives in Latin lookup 46 subtable" uni0193.1
Substitution2: "'aalt' Access All Alternates in Latin lookup 0 subtable" uni0260.sc
Position2: "'cpsp' Capital Spacing in Latin lookup 0 subtable" dx=0 dy=0 dh=0 dv=0
EndChar

StartChar: G.1
Encoding: 57346 57346 151
AltUni2: 000047.ffffffff.0
Width: 1536
GlyphClass: 2
Flags: W
AnchorPoint: "Anchor-1" 769 1490 basechar 0
AnchorPoint: "Anchor-0" 767 0 basechar 0
LayerCount: 2
Fore
SplineSet
772 -22 m 0,0,1
 578 -22 578 -22 428 74 c 128,-1,2
 278 170 278 170 192 342.5 c 128,-1,3
 106 515 106 515 106 744 c 0,4,5
 106 976 106 976 192 1148.5 c 128,-1,6
 278 1321 278 1321 429 1416.5 c 128,-1,7
 580 1512 580 1512 774 1512 c 0,8,9
 893 1512 893 1512 996 1476 c 128,-1,10
 1099 1440 1099 1440 1180.5 1374 c 128,-1,11
 1262 1308 1262 1308 1316.5 1217 c 128,-1,12
 1371 1126 1371 1126 1390 1016 c 1,13,-1
 1201 1016 l 1,14,15
 1181 1089 1181 1089 1142.5 1148.5 c 128,-1,16
 1104 1208 1104 1208 1048.5 1251 c 128,-1,17
 993 1294 993 1294 924 1317 c 128,-1,18
 855 1340 855 1340 775 1340 c 0,19,20
 635 1340 635 1340 525 1268 c 128,-1,21
 415 1196 415 1196 352 1062.5 c 128,-1,22
 289 929 289 929 289 744 c 0,23,24
 289 561 289 561 352 428 c 128,-1,25
 415 295 415 295 526 222.5 c 128,-1,26
 637 150 637 150 780 150 c 0,27,28
 909 150 909 150 1008.5 206.5 c 128,-1,29
 1108 263 1108 263 1165 367 c 128,-1,30
 1222 471 1222 471 1222 615 c 1,31,-1
 1285 615 l 1,32,-1
 1285 489 l 2,33,34
 1285 395 1285 395 1255 304 c 128,-1,35
 1225 213 1225 213 1162.5 139.5 c 128,-1,36
 1100 66 1100 66 1003 22 c 128,-1,37
 906 -22 906 -22 772 -22 c 0,0,1
1254 0 m 1,38,-1
 1224 326 l 1,39,-1
 1224 584 l 1,40,-1
 830 584 l 1,41,-1
 830 747 l 1,42,-1
 1401 747 l 1,43,-1
 1401 0 l 1,44,-1
 1254 0 l 1,38,-1
EndSplineSet
Substitution2: "'ss06' Style Set 6 in Latin lookup 52 subtable" G.1.squared
EndChar

StartChar: uni0193.1
Encoding: 57348 57348 153
AltUni2: 000193.ffffffff.0
Width: 1536
GlyphClass: 2
Flags: W
AnchorPoint: "Anchor-1" 769 1490 basechar 0
AnchorPoint: "Anchor-0" 767 0 basechar 0
LayerCount: 2
Fore
SplineSet
1220 1016 m 1,0,-1
 1220 1429 l 2,1,2
 1220 1552 1220 1552 1293.5 1616 c 128,-1,3
 1367 1680 1367 1680 1507 1680 c 0,4,5
 1541 1680 1541 1680 1566.5 1679 c 128,-1,6
 1592 1678 1592 1678 1610 1676 c 1,7,-1
 1610 1527 l 1,8,9
 1594 1528 1594 1528 1569 1528.5 c 128,-1,10
 1544 1529 1544 1529 1530 1529 c 0,11,12
 1456 1529 1456 1529 1423 1505 c 128,-1,13
 1390 1481 1390 1481 1390 1429 c 2,14,-1
 1390 1016 l 1,15,-1
 1220 1016 l 1,0,-1
772 -22 m 0,16,17
 578 -22 578 -22 428 74 c 128,-1,18
 278 170 278 170 192 342.5 c 128,-1,19
 106 515 106 515 106 744 c 0,20,21
 106 976 106 976 192 1148.5 c 128,-1,22
 278 1321 278 1321 429 1416.5 c 128,-1,23
 580 1512 580 1512 774 1512 c 0,24,25
 893 1512 893 1512 996 1476 c 128,-1,26
 1099 1440 1099 1440 1180.5 1374 c 128,-1,27
 1262 1308 1262 1308 1316.5 1217 c 128,-1,28
 1371 1126 1371 1126 1390 1016 c 1,29,-1
 1201 1016 l 1,30,31
 1181 1089 1181 1089 1142.5 1148.5 c 128,-1,32
 1104 1208 1104 1208 1048.5 1251 c 128,-1,33
 993 1294 993 1294 924 1317 c 128,-1,34
 855 1340 855 1340 775 1340 c 0,35,36
 635 1340 635 1340 525 1268 c 128,-1,37
 415 1196 415 1196 352 1062.5 c 128,-1,38
 289 929 289 929 289 744 c 0,39,40
 289 561 289 561 352 428 c 128,-1,41
 415 295 415 295 526 222.5 c 128,-1,42
 637 150 637 150 780 150 c 0,43,44
 909 150 909 150 1008.5 206.5 c 128,-1,45
 1108 263 1108 263 1165 367 c 128,-1,46
 1222 471 1222 471 1222 615 c 1,47,-1
 1285 615 l 1,48,-1
 1285 489 l 2,49,50
 1285 395 1285 395 1255 304 c 128,-1,51
 1225 213 1225 213 1162.5 139.5 c 128,-1,52
 1100 66 1100 66 1003 22 c 128,-1,53
 906 -22 906 -22 772 -22 c 0,16,17
1254 0 m 1,54,-1
 1224 326 l 1,55,-1
 1224 584 l 1,56,-1
 830 584 l 1,57,-1
 830 747 l 1,58,-1
 1401 747 l 1,59,-1
 1401 0 l 1,60,-1
 1254 0 l 1,54,-1
EndSplineSet
EndChar

StartChar: H
Encoding: 72 72 161
Width: 1486
GlyphClass: 2
Flags: W
AnchorPoint: "Anchor-3" 257 1 basechar 0
AnchorPoint: "Anchor-1" 743 1490 basechar 0
AnchorPoint: "Anchor-0" 743 0 basechar 0
LayerCount: 2
Fore
SplineSet
164 0 m 1,0,-1
 164 1490 l 1,1,-1
 349 1490 l 1,2,-1
 349 845 l 1,3,-1
 1137 845 l 1,4,-1
 1137 1490 l 1,5,-1
 1322 1490 l 1,6,-1
 1322 0 l 1,7,-1
 1137 0 l 1,8,-1
 1137 681 l 1,9,-1
 349 681 l 1,10,-1
 349 0 l 1,11,-1
 164 0 l 1,0,-1
EndSplineSet
Substitution2: "'c2sc' Capitals to Small Capitals in Latin lookup 68 subtable" h.sc
Substitution2: "'ss06' Style Set 6 in Latin lookup 52 subtable" H.squared
Substitution2: "'ss05' Style Set 5 in Latin lookup 51 subtable" uni24BD
Substitution2: "'aalt' Access All Alternates in Latin lookup 0 subtable" h.sc
Position2: "'cpsp' Capital Spacing in Latin lookup 0 subtable" dx=0 dy=0 dh=0 dv=0
EndChar

StartChar: Hbar
Encoding: 294 294 169
Width: 1542
GlyphClass: 2
Flags: W
AnchorPoint: "Anchor-3" 287 1 basechar 0
AnchorPoint: "Anchor-1" 773 1490 basechar 0
AnchorPoint: "Anchor-0" 773 0 basechar 0
LayerCount: 2
Fore
SplineSet
1468 1176 m 1,0,-1
 1468 1024 l 1,1,-1
 74 1024 l 1,2,-1
 74 1176 l 1,3,-1
 1468 1176 l 1,0,-1
194 0 m 1,4,-1
 194 1490 l 1,5,-1
 379 1490 l 1,6,-1
 379 845 l 1,7,-1
 1167 845 l 1,8,-1
 1167 1490 l 1,9,-1
 1352 1490 l 1,10,-1
 1352 0 l 1,11,-1
 1167 0 l 1,12,-1
 1167 681 l 1,13,-1
 379 681 l 1,14,-1
 379 0 l 1,15,-1
 194 0 l 1,4,-1
EndSplineSet
Position2: "'cpsp' Capital Spacing in Latin lookup 0 subtable" dx=0 dy=0 dh=0 dv=0
EndChar

StartChar: uni04C7
Encoding: 1223 1223 170
Width: 1486
GlyphClass: 2
Flags: W
AnchorPoint: "Anchor-3" 257 1 basechar 0
AnchorPoint: "Anchor-1" 743 1490 basechar 0
AnchorPoint: "Anchor-0" 743 0 basechar 0
LayerCount: 2
Fore
SplineSet
928 -418 m 1,0,-1
 928 -260 l 1,1,2
 944 -262 944 -262 969 -262.5 c 128,-1,3
 994 -263 994 -263 1007 -263 c 0,4,5
 1081 -263 1081 -263 1109 -239 c 128,-1,6
 1137 -215 1137 -215 1137 -162 c 2,7,-1
 1137 128 l 1,8,-1
 1322 128 l 1,9,-1
 1322 -170 l 2,10,11
 1322 -293 1322 -293 1249 -357.5 c 128,-1,12
 1176 -422 1176 -422 1035 -422 c 0,13,14
 1002 -422 1002 -422 974 -421 c 128,-1,15
 946 -420 946 -420 928 -418 c 1,0,-1
164 0 m 1,16,-1
 164 1490 l 1,17,-1
 349 1490 l 1,18,-1
 349 845 l 1,19,-1
 1137 845 l 1,20,-1
 1137 1490 l 1,21,-1
 1322 1490 l 1,22,-1
 1322 0 l 1,23,-1
 1137 0 l 1,24,-1
 1137 681 l 1,25,-1
 349 681 l 1,26,-1
 349 0 l 1,27,-1
 164 0 l 1,16,-1
EndSplineSet
Position2: "'cpsp' Capital Spacing in Latin lookup 0 subtable" dx=0 dy=0 dh=0 dv=0
EndChar

StartChar: uni04A4
Encoding: 1188 1188 173
Width: 1978
GlyphClass: 2
Flags: W
AnchorPoint: "Anchor-3" 257 1 basechar 0
AnchorPoint: "Anchor-1" 743 1490 basechar 0
AnchorPoint: "Anchor-0" 743 0 basechar 0
LayerCount: 2
Fore
SplineSet
1904 1490 m 1,0,-1
 1904 1330 l 1,1,-1
 1270 1330 l 1,2,-1
 1142 1490 l 1,3,-1
 1904 1490 l 1,0,-1
164 0 m 1,4,-1
 164 1490 l 1,5,-1
 349 1490 l 1,6,-1
 349 845 l 1,7,-1
 1137 845 l 1,8,-1
 1137 1490 l 1,9,-1
 1322 1490 l 1,10,-1
 1322 0 l 1,11,-1
 1137 0 l 1,12,-1
 1137 681 l 1,13,-1
 349 681 l 1,14,-1
 349 0 l 1,15,-1
 164 0 l 1,4,-1
EndSplineSet
Position2: "'cpsp' Capital Spacing in Latin lookup 0 subtable" dx=0 dy=0 dh=0 dv=0
EndChar

StartChar: uni01F6
Encoding: 502 502 174
Width: 2206
Flags: W
LayerCount: 2
Fore
SplineSet
1603 -20 m 0,0,1
 1463 -20 1463 -20 1358 33.5 c 128,-1,2
 1253 87 1253 87 1195 189.5 c 128,-1,3
 1137 292 1137 292 1137 437 c 2,4,-1
 1137 673 l 1,5,-1
 349 673 l 1,6,-1
 349 0 l 1,7,-1
 164 0 l 1,8,-1
 164 1490 l 1,9,-1
 349 1490 l 1,10,-1
 349 837 l 1,11,-1
 1137 837 l 1,12,-1
 1137 1490 l 1,13,-1
 1323 1490 l 1,14,-1
 1323 441 l 2,15,16
 1323 343 1323 343 1355.5 277 c 128,-1,17
 1388 211 1388 211 1451 178 c 128,-1,18
 1514 145 1514 145 1603 145 c 0,19,20
 1694 145 1694 145 1756.5 178 c 128,-1,21
 1819 211 1819 211 1851.5 277 c 128,-1,22
 1884 343 1884 343 1884 441 c 2,23,-1
 1884 1086 l 1,24,-1
 2064 1086 l 1,25,-1
 2064 437 l 2,26,27
 2064 291 2064 291 2006.5 188.5 c 128,-1,28
 1949 86 1949 86 1845.5 33 c 128,-1,29
 1742 -20 1742 -20 1603 -20 c 0,0,1
EndSplineSet
Position2: "'cpsp' Capital Spacing in Latin lookup 0 subtable" dx=0 dy=0 dh=0 dv=0
EndChar

StartChar: I
Encoding: 73 73 197
Width: 513
GlyphClass: 2
Flags: W
AnchorPoint: "Anchor-4" 349 0 basechar 0
AnchorPoint: "Anchor-1" 257 1490 basechar 0
AnchorPoint: "Anchor-0" 257 0 basechar 0
LayerCount: 2
Fore
SplineSet
349 1490 m 1,0,-1
 349 0 l 1,1,-1
 164 0 l 1,2,-1
 164 1490 l 1,3,-1
 349 1490 l 1,0,-1
EndSplineSet
Substitution2: "'c2sc' Capitals to Small Capitals in Latin lookup 68 subtable" i.sc
Substitution2: "'cv08' Character Variants 08 in Latin lookup 62 subtable" I.1
Substitution2: "'ss06' Style Set 6 in Latin lookup 52 subtable" I.squared
Substitution2: "'ss05' Style Set 5 in Latin lookup 51 subtable" uni24BE
Substitution2: "'ss04' Style Set 4 in Latin lookup 50 subtable" I.1
Substitution2: "'ss02' Style Set 2 in Latin lookup 48 subtable" I.1
Substitution2: "'salt' Stylistic Alternatives in Latin lookup 46 subtable" I.1
Substitution2: "'aalt' Access All Alternates in Latin lookup 0 subtable" i.sc
Position2: "'cpsp' Capital Spacing in Latin lookup 0 subtable" dx=0 dy=0 dh=0 dv=0
EndChar

StartChar: I.1
Encoding: 57356 57356 235
Width: 799
GlyphClass: 2
Flags: W
AnchorPoint: "Anchor-4" 713 0 basechar 0
AnchorPoint: "Anchor-1" 400 1490 basechar 0
AnchorPoint: "Anchor-0" 400 0 basechar 0
LayerCount: 2
Fore
SplineSet
86 0 m 1,0,-1
 86 164 l 1,1,-1
 307 164 l 1,2,-1
 307 1326 l 1,3,-1
 86 1326 l 1,4,-1
 86 1490 l 1,5,-1
 713 1490 l 1,6,-1
 713 1326 l 1,7,-1
 492 1326 l 1,8,-1
 492 164 l 1,9,-1
 713 164 l 1,10,-1
 713 0 l 1,11,-1
 86 0 l 1,0,-1
EndSplineSet
EndChar

StartChar: J
Encoding: 74 74 267
Width: 1132
GlyphClass: 2
Flags: W
AnchorPoint: "Anchor-1" 880 1490 basechar 0
LayerCount: 2
Fore
SplineSet
530 -20 m 0,0,1
 335 -20 335 -20 211.5 95.5 c 128,-1,2
 88 211 88 211 88 425 c 2,3,-1
 88 505 l 1,4,-1
 273 505 l 1,5,-1
 273 425 l 2,6,7
 273 288 273 288 343.5 216 c 128,-1,8
 414 144 414 144 530 144 c 0,9,10
 645 144 645 144 716 216 c 128,-1,11
 787 288 787 288 787 425 c 2,12,-1
 787 1490 l 1,13,-1
 972 1490 l 1,14,-1
 972 425 l 2,15,16
 972 211 972 211 849 95.5 c 128,-1,17
 726 -20 726 -20 530 -20 c 0,0,1
EndSplineSet
Substitution2: "'ss06' Style Set 6 in Latin lookup 52 subtable" J.squared
Substitution2: "'ss05' Style Set 5 in Latin lookup 51 subtable" uni24BF
Position2: "'cpsp' Capital Spacing in Latin lookup 0 subtable" dx=0 dy=0 dh=0 dv=0
EndChar

StartChar: K
Encoding: 75 75 272
Width: 1338
GlyphClass: 2
Flags: W
AnchorPoint: "Anchor-1" 684 1490 basechar 0
AnchorPoint: "Anchor-0" 684 0 basechar 0
LayerCount: 2
Fore
SplineSet
290 426 m 1,0,-1
 290 646 l 1,1,2
 342 710 342 710 393 770 c 128,-1,3
 444 830 444 830 497 889 c 128,-1,4
 550 948 550 948 604 1007 c 2,5,-1
 1053 1490 l 1,6,-1
 1296 1490 l 1,7,-1
 660 810 l 1,8,-1
 651 811 l 1,9,-1
 290 426 l 1,0,-1
164 0 m 1,10,-1
 164 1490 l 1,11,-1
 349 1490 l 1,12,-1
 349 976 l 1,13,-1
 348 657 l 1,14,-1
 349 567 l 1,15,-1
 349 0 l 1,16,-1
 164 0 l 1,10,-1
1078 0 m 1,17,-1
 535 762 l 1,18,-1
 649 907 l 1,19,-1
 1297 0 l 1,20,-1
 1078 0 l 1,17,-1
EndSplineSet
Substitution2: "'ss06' Style Set 6 in Latin lookup 52 subtable" K.squared
Substitution2: "'ss05' Style Set 5 in Latin lookup 51 subtable" uni24C0
Position2: "'cpsp' Capital Spacing in Latin lookup 0 subtable" dx=0 dy=0 dh=0 dv=0
EndChar

StartChar: uni04A0
Encoding: 1184 1184 278
Width: 1676
GlyphClass: 2
Flags: W
AnchorPoint: "Anchor-1" 1005 1490 basechar 0
LayerCount: 2
Fore
SplineSet
592 1490 m 1,0,-1
 592 1330 l 1,1,-1
 74 1330 l 1,2,-1
 74 1490 l 1,3,-1
 592 1490 l 1,0,-1
502 0 m 1,4,-1
 502 1490 l 1,5,-1
 687 1490 l 1,6,-1
 687 841 l 1,7,-1
 896 841 l 1,8,-1
 1387 1490 l 1,9,-1
 1611 1490 l 1,10,-1
 1055 768 l 1,11,-1
 1635 0 l 1,12,-1
 1412 0 l 1,13,-1
 905 676 l 1,14,-1
 687 676 l 1,15,-1
 687 0 l 1,16,-1
 502 0 l 1,4,-1
EndSplineSet
Position2: "'cpsp' Capital Spacing in Latin lookup 0 subtable" dx=0 dy=0 dh=0 dv=0
EndChar

StartChar: uni0198
Encoding: 408 408 280
Width: 1351
Flags: W
LayerCount: 2
Fore
SplineSet
164 0 m 1,0,-1
 164 1490 l 1,1,-1
 349 1490 l 1,2,-1
 349 754 l 1,3,-1
 367 754 l 1,4,-1
 954 1401 l 2,5,6
 1013 1465 1013 1465 1081 1490 c 128,-1,7
 1149 1515 1149 1515 1218.5 1505 c 128,-1,8
 1288 1495 1288 1495 1349 1452 c 1,9,-1
 1276 1315 l 1,10,11
 1227 1346 1227 1346 1177 1337.5 c 128,-1,12
 1127 1329 1127 1329 1072 1270 c 2,13,-1
 650 818 l 1,14,-1
 1274 0 l 1,15,-1
 1050 0 l 1,16,-1
 535 688 l 1,17,-1
 349 479 l 1,18,-1
 349 0 l 1,19,-1
 164 0 l 1,0,-1
EndSplineSet
Position2: "'cpsp' Capital Spacing in Latin lookup 0 subtable" dx=0 dy=0 dh=0 dv=0
EndChar

StartChar: L
Encoding: 76 76 282
Width: 1127
GlyphClass: 2
Flags: W
AnchorPoint: "Anchor-1" 257 1490 basechar 0
AnchorPoint: "Anchor-0" 602 0 basechar 0
LayerCount: 2
Fore
SplineSet
164 0 m 1,0,-1
 164 1490 l 1,1,-1
 349 1490 l 1,2,-1
 349 164 l 1,3,-1
 1053 164 l 1,4,-1
 1053 0 l 1,5,-1
 164 0 l 1,0,-1
EndSplineSet
Substitution2: "'c2sc' Capitals to Small Capitals in Latin lookup 68 subtable" l.sc
Substitution2: "'ss06' Style Set 6 in Latin lookup 52 subtable" L.squared
Substitution2: "'ss05' Style Set 5 in Latin lookup 51 subtable" uni24C1
Substitution2: "'aalt' Access All Alternates in Latin lookup 0 subtable" l.sc
Position2: "'cpsp' Capital Spacing in Latin lookup 0 subtable" dx=0 dy=0 dh=0 dv=0
EndChar

StartChar: M
Encoding: 77 77 293
Width: 1803
GlyphClass: 2
Flags: W
AnchorPoint: "Anchor-1" 900 1490 basechar 0
AnchorPoint: "Anchor-0" 900 0 basechar 0
LayerCount: 2
Fore
SplineSet
164 0 m 1,0,-1
 164 1490 l 1,1,-1
 422 1490 l 1,2,-1
 794 539 l 2,3,4
 807 507 807 507 824.5 458.5 c 128,-1,5
 842 410 842 410 860.5 355.5 c 128,-1,6
 879 301 879 301 896 249.5 c 128,-1,7
 913 198 913 198 925 159 c 1,8,-1
 883 159 l 1,9,10
 895 197 895 197 912 248 c 128,-1,11
 929 299 929 299 947.5 353.5 c 128,-1,12
 966 408 966 408 983.5 457 c 128,-1,13
 1001 506 1001 506 1014 539 c 2,14,-1
 1381 1490 l 1,15,-1
 1639 1490 l 1,16,-1
 1639 0 l 1,17,-1
 1457 0 l 1,18,-1
 1457 858 l 2,19,20
 1457 905 1457 905 1457.5 962 c 128,-1,21
 1458 1019 1458 1019 1459.5 1080.5 c 128,-1,22
 1461 1142 1461 1142 1462.5 1205 c 128,-1,23
 1464 1268 1464 1268 1465 1327 c 1,24,-1
 1486 1327 l 1,25,26
 1463 1258 1463 1258 1439 1189 c 128,-1,27
 1415 1120 1415 1120 1393 1058 c 128,-1,28
 1371 996 1371 996 1352 944.5 c 128,-1,29
 1333 893 1333 893 1319 858 c 2,30,-1
 980 0 l 1,31,-1
 823 0 l 1,32,-1
 480 858 l 2,33,34
 466 893 466 893 447.5 943.5 c 128,-1,35
 429 994 429 994 406.5 1055.5 c 128,-1,36
 384 1117 384 1117 359.5 1186.5 c 128,-1,37
 335 1256 335 1256 309 1327 c 1,38,-1
 335 1327 l 1,39,40
 337 1271 337 1271 338.5 1209 c 128,-1,41
 340 1147 340 1147 341 1085 c 128,-1,42
 342 1023 342 1023 343 964.5 c 128,-1,43
 344 906 344 906 344 858 c 2,44,-1
 344 0 l 1,45,-1
 164 0 l 1,0,-1
EndSplineSet
Substitution2: "'c2sc' Capitals to Small Capitals in Latin lookup 68 subtable" m.sc
Substitution2: "'ss06' Style Set 6 in Latin lookup 52 subtable" M.squared
Substitution2: "'ss05' Style Set 5 in Latin lookup 51 subtable" uni24C2
Substitution2: "'aalt' Access All Alternates in Latin lookup 0 subtable" m.sc
Position2: "'cpsp' Capital Spacing in Latin lookup 0 subtable" dx=0 dy=0 dh=0 dv=0
EndChar

StartChar: N
Encoding: 78 78 301
Width: 1499
GlyphClass: 2
Flags: W
AnchorPoint: "Anchor-1" 750 1490 basechar 0
AnchorPoint: "Anchor-0" 750 0 basechar 0
LayerCount: 2
Fore
SplineSet
164 0 m 1,0,-1
 164 1490 l 1,1,-1
 380 1490 l 1,2,-1
 990 529 l 2,3,4
 1012 495 1012 495 1044 440.5 c 128,-1,5
 1076 386 1076 386 1113.5 319.5 c 128,-1,6
 1151 253 1151 253 1186 183 c 1,7,-1
 1164 165 l 1,8,9
 1158 234 1158 234 1155 309 c 128,-1,10
 1152 384 1152 384 1151 449 c 128,-1,11
 1150 514 1150 514 1150 552 c 2,12,-1
 1150 1490 l 1,13,-1
 1335 1490 l 1,14,-1
 1335 0 l 1,15,-1
 1117 0 l 1,16,-1
 574 855 l 2,17,18
 545 902 545 902 507.5 964 c 128,-1,19
 470 1026 470 1026 421 1110 c 128,-1,20
 372 1194 372 1194 307 1307 c 1,21,-1
 335 1331 l 1,22,23
 340 1217 340 1217 343 1124.5 c 128,-1,24
 346 1032 346 1032 348 964 c 128,-1,25
 350 896 350 896 350 857 c 2,26,-1
 350 0 l 1,27,-1
 164 0 l 1,0,-1
EndSplineSet
Substitution2: "'c2sc' Capitals to Small Capitals in Latin lookup 68 subtable" n.sc
Substitution2: "'ss06' Style Set 6 in Latin lookup 52 subtable" N.squared
Substitution2: "'ss05' Style Set 5 in Latin lookup 51 subtable" uni24C3
Substitution2: "'aalt' Access All Alternates in Latin lookup 0 subtable" n.sc
Position2: "'cpsp' Capital Spacing in Latin lookup 0 subtable" dx=0 dy=0 dh=0 dv=0
EndChar

StartChar: Nhook
Encoding: 413 413 311
Width: 1499
GlyphClass: 2
Flags: W
AnchorPoint: "Anchor-1" 750 1490 basechar 0
AnchorPoint: "Anchor-0" 750 0 basechar 0
LayerCount: 2
Fore
SplineSet
-45 -418 m 1,0,-1
 -45 -260 l 1,1,2
 -29 -262 -29 -262 -4 -262.5 c 128,-1,3
 21 -263 21 -263 34 -263 c 0,4,5
 108 -263 108 -263 136 -239 c 128,-1,6
 164 -215 164 -215 164 -162 c 2,7,-1
 164 128 l 1,8,-1
 349 128 l 1,9,-1
 349 -170 l 2,10,11
 349 -293 349 -293 276 -357.5 c 128,-1,12
 203 -422 203 -422 62 -422 c 0,13,14
 29 -422 29 -422 1 -421 c 128,-1,15
 -27 -420 -27 -420 -45 -418 c 1,0,-1
164 0 m 1,16,-1
 164 1490 l 1,17,-1
 380 1490 l 1,18,-1
 990 529 l 2,19,20
 1012 495 1012 495 1044 440.5 c 128,-1,21
 1076 386 1076 386 1113.5 319.5 c 128,-1,22
 1151 253 1151 253 1186 183 c 1,23,-1
 1164 165 l 1,24,25
 1158 234 1158 234 1155 309 c 128,-1,26
 1152 384 1152 384 1151 449 c 128,-1,27
 1150 514 1150 514 1150 552 c 2,28,-1
 1150 1490 l 1,29,-1
 1335 1490 l 1,30,-1
 1335 0 l 1,31,-1
 1117 0 l 1,32,-1
 574 855 l 2,33,34
 545 902 545 902 507.5 964 c 128,-1,35
 470 1026 470 1026 421 1110 c 128,-1,36
 372 1194 372 1194 307 1307 c 1,37,-1
 335 1331 l 1,38,39
 340 1217 340 1217 343 1124.5 c 128,-1,40
 346 1032 346 1032 348 964 c 128,-1,41
 350 896 350 896 350 857 c 2,42,-1
 350 0 l 1,43,-1
 164 0 l 1,16,-1
EndSplineSet
Position2: "'cpsp' Capital Spacing in Latin lookup 0 subtable" dx=0 dy=0 dh=0 dv=0
EndChar

StartChar: Eng
Encoding: 330 330 312
Width: 1499
GlyphClass: 2
Flags: W
AnchorPoint: "Anchor-1" 750 1490 basechar 0
AnchorPoint: "Anchor-0" 750 0 basechar 0
LayerCount: 2
Fore
SplineSet
946 -418 m 1,0,-1
 946 -260 l 1,1,2
 962 -262 962 -262 987 -262.5 c 128,-1,3
 1012 -263 1012 -263 1025 -263 c 0,4,5
 1099 -263 1099 -263 1127 -239 c 128,-1,6
 1155 -215 1155 -215 1155 -162 c 2,7,-1
 1155 128 l 1,8,-1
 1340 128 l 1,9,-1
 1340 -170 l 2,10,11
 1340 -293 1340 -293 1267 -357.5 c 128,-1,12
 1194 -422 1194 -422 1053 -422 c 0,13,14
 1020 -422 1020 -422 992 -421 c 128,-1,15
 964 -420 964 -420 946 -418 c 1,0,-1
164 0 m 1,16,-1
 164 1490 l 1,17,-1
 380 1490 l 1,18,-1
 990 529 l 2,19,20
 1012 495 1012 495 1044 440.5 c 128,-1,21
 1076 386 1076 386 1113.5 319.5 c 128,-1,22
 1151 253 1151 253 1186 183 c 1,23,-1
 1164 165 l 1,24,25
 1158 234 1158 234 1155 309 c 128,-1,26
 1152 384 1152 384 1151 449 c 128,-1,27
 1150 514 1150 514 1150 552 c 2,28,-1
 1150 1490 l 1,29,-1
 1335 1490 l 1,30,-1
 1335 0 l 1,31,-1
 1117 0 l 1,32,-1
 574 855 l 2,33,34
 545 902 545 902 507.5 964 c 128,-1,35
 470 1026 470 1026 421 1110 c 128,-1,36
 372 1194 372 1194 307 1307 c 1,37,-1
 335 1331 l 1,38,39
 340 1217 340 1217 343 1124.5 c 128,-1,40
 346 1032 346 1032 348 964 c 128,-1,41
 350 896 350 896 350 857 c 2,42,-1
 350 0 l 1,43,-1
 164 0 l 1,16,-1
EndSplineSet
Position2: "'cpsp' Capital Spacing in Latin lookup 0 subtable" dx=0 dy=0 dh=0 dv=0
EndChar

StartChar: uni0418
Encoding: 1048 1048 313
Width: 1499
GlyphClass: 2
Flags: W
AnchorPoint: "Anchor-1" 754 1490 basechar 0
AnchorPoint: "Anchor-0" 749 0 basechar 0
LayerCount: 2
Fore
SplineSet
1335 0 m 1,0,-1
 1149 0 l 1,1,-1
 1149 857 l 2,2,3
 1149 896 1149 896 1151 964 c 128,-1,4
 1153 1032 1153 1032 1156.5 1124.5 c 128,-1,5
 1160 1217 1160 1217 1164 1331 c 1,6,-1
 1192 1307 l 1,7,8
 1127 1194 1127 1194 1078 1110 c 128,-1,9
 1029 1026 1029 1026 992 964 c 128,-1,10
 955 902 955 902 925 855 c 2,11,-1
 382 0 l 1,12,-1
 164 0 l 1,13,-1
 164 1490 l 1,14,-1
 349 1490 l 1,15,-1
 349 552 l 2,16,17
 349 514 349 514 348 449 c 128,-1,18
 347 384 347 384 344 309 c 128,-1,19
 341 234 341 234 335 165 c 1,20,-1
 313 183 l 1,21,22
 349 253 349 253 386 319.5 c 128,-1,23
 423 386 423 386 455.5 440.5 c 128,-1,24
 488 495 488 495 509 529 c 2,25,-1
 1119 1490 l 1,26,-1
 1335 1490 l 1,27,-1
 1335 0 l 1,0,-1
EndSplineSet
Position2: "'cpsp' Capital Spacing in Latin lookup 0 subtable" dx=0 dy=0 dh=0 dv=0
EndChar

StartChar: O
Encoding: 79 79 322
Width: 1550
GlyphClass: 2
Flags: W
AnchorPoint: "Anchor-4" 1444 744 basechar 0
AnchorPoint: "Anchor-1" 776 1490 basechar 0
AnchorPoint: "Anchor-0" 776 0 basechar 0
LayerCount: 2
Fore
SplineSet
776 -22 m 256,0,1
 582 -22 582 -22 430.5 74 c 128,-1,2
 279 170 279 170 192.5 342.5 c 128,-1,3
 106 515 106 515 106 744 c 0,4,5
 106 975 106 975 192.5 1147.5 c 128,-1,6
 279 1320 279 1320 430.5 1416 c 128,-1,7
 582 1512 582 1512 776 1512 c 256,8,9
 970 1512 970 1512 1121 1416 c 128,-1,10
 1272 1320 1272 1320 1358 1147.5 c 128,-1,11
 1444 975 1444 975 1444 744 c 0,12,13
 1444 515 1444 515 1358 342.5 c 128,-1,14
 1272 170 1272 170 1121 74 c 128,-1,15
 970 -22 970 -22 776 -22 c 256,0,1
776 150 m 0,16,17
 910 150 910 150 1020 218.5 c 128,-1,18
 1130 287 1130 287 1196 420 c 128,-1,19
 1262 553 1262 553 1262 744 c 0,20,21
 1262 937 1262 937 1196 1070 c 128,-1,22
 1130 1203 1130 1203 1020 1271.5 c 128,-1,23
 910 1340 910 1340 776 1340 c 0,24,25
 641 1340 641 1340 530.5 1271.5 c 128,-1,26
 420 1203 420 1203 354.5 1070 c 128,-1,27
 289 937 289 937 289 744 c 0,28,29
 289 553 289 553 354.5 420.5 c 128,-1,30
 420 288 420 288 530.5 219 c 128,-1,31
 641 150 641 150 776 150 c 0,16,17
EndSplineSet
Substitution2: "'ss06' Style Set 6 in Latin lookup 52 subtable" O.squared
Substitution2: "'ss05' Style Set 5 in Latin lookup 51 subtable" uni24C4
Substitution2: "Single Substitution lookup 44 subtable" ordmasculine
Substitution2: "'aalt' Access All Alternates in Latin lookup 0 subtable" ordmasculine
Position2: "'cpsp' Capital Spacing in Latin lookup 0 subtable" dx=0 dy=0 dh=0 dv=0
EndChar

StartChar: Ohorn
Encoding: 416 416 326
Width: 1547
GlyphClass: 2
Flags: W
AnchorPoint: "Anchor-4" 1444 744 basechar 0
AnchorPoint: "Anchor-1" 776 1490 basechar 0
AnchorPoint: "Anchor-0" 776 0 basechar 0
LayerCount: 2
Fore
SplineSet
774 1376 m 1,0,-1
 774 1512 l 1,1,2
 834 1512 834 1512 872.5 1509 c 128,-1,3
 911 1506 911 1506 953.5 1501.5 c 128,-1,4
 996 1497 996 1497 1065 1493.5 c 128,-1,5
 1134 1490 1134 1490 1253 1490 c 0,6,7
 1271 1490 1271 1490 1271 1508 c 2,8,-1
 1271 1714 l 1,9,-1
 1441 1714 l 1,10,-1
 1441 1518 l 2,11,12
 1441 1433 1441 1433 1399 1390.5 c 128,-1,13
 1357 1348 1357 1348 1271 1348 c 0,14,15
 1230 1348 1230 1348 1196 1352.5 c 128,-1,16
 1162 1357 1162 1357 1113.5 1362.5 c 128,-1,17
 1065 1368 1065 1368 985.5 1372 c 128,-1,18
 906 1376 906 1376 774 1376 c 1,0,-1
776 -22 m 256,19,20
 582 -22 582 -22 430.5 74 c 128,-1,21
 279 170 279 170 192.5 342.5 c 128,-1,22
 106 515 106 515 106 744 c 0,23,24
 106 975 106 975 192.5 1147.5 c 128,-1,25
 279 1320 279 1320 430.5 1416 c 128,-1,26
 582 1512 582 1512 776 1512 c 256,27,28
 970 1512 970 1512 1121 1416 c 128,-1,29
 1272 1320 1272 1320 1358 1147.5 c 128,-1,30
 1444 975 1444 975 1444 744 c 0,31,32
 1444 515 1444 515 1358 342.5 c 128,-1,33
 1272 170 1272 170 1121 74 c 128,-1,34
 970 -22 970 -22 776 -22 c 256,19,20
776 150 m 0,35,36
 910 150 910 150 1020 218.5 c 128,-1,37
 1130 287 1130 287 1196 420 c 128,-1,38
 1262 553 1262 553 1262 744 c 0,39,40
 1262 937 1262 937 1196 1070 c 128,-1,41
 1130 1203 1130 1203 1020 1271.5 c 128,-1,42
 910 1340 910 1340 776 1340 c 0,43,44
 641 1340 641 1340 530.5 1271.5 c 128,-1,45
 420 1203 420 1203 354.5 1070 c 128,-1,46
 289 937 289 937 289 744 c 0,47,48
 289 553 289 553 354.5 420.5 c 128,-1,49
 420 288 420 288 530.5 219 c 128,-1,50
 641 150 641 150 776 150 c 0,35,36
EndSplineSet
Position2: "'cpsp' Capital Spacing in Latin lookup 0 subtable" dx=0 dy=0 dh=0 dv=0
EndChar

StartChar: uni03F4
Encoding: 1012 1012 368
Width: 1550
GlyphClass: 2
Flags: W
AnchorPoint: "Anchor-4" 1444 744 basechar 0
AnchorPoint: "Anchor-1" 776 1490 basechar 0
AnchorPoint: "Anchor-0" 776 0 basechar 0
LayerCount: 2
Fore
SplineSet
1276 824 m 1,0,-1
 1276 664 l 1,1,-1
 252 664 l 1,2,-1
 252 824 l 1,3,-1
 1276 824 l 1,0,-1
776 -22 m 256,4,5
 582 -22 582 -22 430.5 74 c 128,-1,6
 279 170 279 170 192.5 342.5 c 128,-1,7
 106 515 106 515 106 744 c 0,8,9
 106 975 106 975 192.5 1147.5 c 128,-1,10
 279 1320 279 1320 430.5 1416 c 128,-1,11
 582 1512 582 1512 776 1512 c 256,12,13
 970 1512 970 1512 1121 1416 c 128,-1,14
 1272 1320 1272 1320 1358 1147.5 c 128,-1,15
 1444 975 1444 975 1444 744 c 0,16,17
 1444 515 1444 515 1358 342.5 c 128,-1,18
 1272 170 1272 170 1121 74 c 128,-1,19
 970 -22 970 -22 776 -22 c 256,4,5
776 150 m 0,20,21
 910 150 910 150 1020 218.5 c 128,-1,22
 1130 287 1130 287 1196 420 c 128,-1,23
 1262 553 1262 553 1262 744 c 0,24,25
 1262 937 1262 937 1196 1070 c 128,-1,26
 1130 1203 1130 1203 1020 1271.5 c 128,-1,27
 910 1340 910 1340 776 1340 c 0,28,29
 641 1340 641 1340 530.5 1271.5 c 128,-1,30
 420 1203 420 1203 354.5 1070 c 128,-1,31
 289 937 289 937 289 744 c 0,32,33
 289 553 289 553 354.5 420.5 c 128,-1,34
 420 288 420 288 530.5 219 c 128,-1,35
 641 150 641 150 776 150 c 0,20,21
EndSplineSet
Position2: "'cpsp' Capital Spacing in Latin lookup 0 subtable" dx=0 dy=0 dh=0 dv=0
EndChar

StartChar: OE
Encoding: 338 338 375
Width: 2041
GlyphClass: 2
Flags: W
AnchorPoint: "Anchor-4" 1939 0 basechar 0
AnchorPoint: "Anchor-3" 1473 0 basechar 0
AnchorPoint: "Anchor-1" 1467 1490 basechar 0
AnchorPoint: "Anchor-0" 1467 0 basechar 0
LayerCount: 2
Fore
SplineSet
796 0 m 2,0,1
 584 0 584 0 429.5 92 c 128,-1,2
 275 184 275 184 190.5 351.5 c 128,-1,3
 106 519 106 519 106 746 c 0,4,5
 106 974 106 974 190 1141 c 128,-1,6
 274 1308 274 1308 426.5 1399 c 128,-1,7
 579 1490 579 1490 786 1490 c 2,8,-1
 1075 1490 l 1,9,-1
 1075 1326 l 1,10,-1
 792 1326 l 2,11,12
 632 1326 632 1326 519 1255.5 c 128,-1,13
 406 1185 406 1185 346 1055 c 128,-1,14
 286 925 286 925 286 746 c 0,15,16
 286 568 286 568 346.5 437.5 c 128,-1,17
 407 307 407 307 522 235.5 c 128,-1,18
 637 164 637 164 802 164 c 2,19,-1
 1071 164 l 1,20,-1
 1071 0 l 1,21,-1
 796 0 l 2,0,1
996 0 m 1,22,-1
 996 1490 l 1,23,-1
 1934 1490 l 1,24,-1
 1934 1326 l 1,25,-1
 1181 1326 l 1,26,-1
 1181 840 l 1,27,-1
 1881 840 l 1,28,-1
 1881 676 l 1,29,-1
 1181 676 l 1,30,-1
 1181 164 l 1,31,-1
 1939 164 l 1,32,-1
 1939 0 l 1,33,-1
 996 0 l 1,22,-1
EndSplineSet
Substitution2: "'c2sc' Capitals to Small Capitals in Latin lookup 68 subtable" oe.sc
Substitution2: "'aalt' Access All Alternates in Latin lookup 0 subtable" oe.sc
Position2: "'cpsp' Capital Spacing in Latin lookup 0 subtable" dx=0 dy=0 dh=0 dv=0
EndChar

StartChar: P
Encoding: 80 80 376
Width: 1281
GlyphClass: 2
Flags: W
AnchorPoint: "Anchor-1" 634 1490 basechar 0
LayerCount: 2
Fore
SplineSet
164 0 m 1,0,-1
 164 1490 l 1,1,-1
 686 1490 l 2,2,3
 851 1490 851 1490 964 1431 c 128,-1,4
 1077 1372 1077 1372 1135 1267.5 c 128,-1,5
 1193 1163 1193 1163 1193 1027 c 256,6,7
 1193 891 1193 891 1134 786.5 c 128,-1,8
 1075 682 1075 682 961.5 622 c 128,-1,9
 848 562 848 562 683 562 c 2,10,-1
 284 562 l 1,11,-1
 284 726 l 1,12,-1
 679 726 l 2,13,14
 790 726 790 726 863.5 764 c 128,-1,15
 937 802 937 802 973.5 870 c 128,-1,16
 1010 938 1010 938 1010 1027 c 0,17,18
 1010 1117 1010 1117 973.5 1184 c 128,-1,19
 937 1251 937 1251 863.5 1289 c 128,-1,20
 790 1327 790 1327 678 1327 c 2,21,-1
 349 1327 l 1,22,-1
 349 0 l 1,23,-1
 164 0 l 1,0,-1
EndSplineSet
Substitution2: "'ss06' Style Set 6 in Latin lookup 52 subtable" P.squared
Substitution2: "'ss05' Style Set 5 in Latin lookup 51 subtable" uni24C5
Position2: "'cpsp' Capital Spacing in Latin lookup 0 subtable" dx=0 dy=0 dh=0 dv=0
EndChar

StartChar: uni048E
Encoding: 1166 1166 379
Width: 1268
GlyphClass: 2
Flags: W
AnchorPoint: "Anchor-1" 634 1490 basechar 0
LayerCount: 2
Fore
SplineSet
810 958 m 1,0,-1
 1112 494 l 1,1,-1
 978 408 l 1,2,-1
 676 872 l 1,3,-1
 810 958 l 1,0,-1
164 0 m 1,4,-1
 164 1490 l 1,5,-1
 686 1490 l 2,6,7
 851 1490 851 1490 964 1431 c 128,-1,8
 1077 1372 1077 1372 1135 1267.5 c 128,-1,9
 1193 1163 1193 1163 1193 1027 c 256,10,11
 1193 891 1193 891 1134 786.5 c 128,-1,12
 1075 682 1075 682 961.5 622 c 128,-1,13
 848 562 848 562 683 562 c 2,14,-1
 284 562 l 1,15,-1
 284 726 l 1,16,-1
 679 726 l 2,17,18
 790 726 790 726 863.5 764 c 128,-1,19
 937 802 937 802 973.5 870 c 128,-1,20
 1010 938 1010 938 1010 1027 c 0,21,22
 1010 1117 1010 1117 973.5 1184 c 128,-1,23
 937 1251 937 1251 863.5 1289 c 128,-1,24
 790 1327 790 1327 678 1327 c 2,25,-1
 349 1327 l 1,26,-1
 349 0 l 1,27,-1
 164 0 l 1,4,-1
EndSplineSet
Position2: "'cpsp' Capital Spacing in Latin lookup 0 subtable" dx=0 dy=0 dh=0 dv=0
EndChar

StartChar: uni01A4
Encoding: 420 420 380
Width: 1561
GlyphClass: 2
Flags: W
AnchorPoint: "Anchor-1" 914 1490 basechar 0
LayerCount: 2
Fore
SplineSet
52 1082 m 1,0,-1
 52 1211 l 2,1,2
 52 1352 52 1352 126 1421 c 128,-1,3
 200 1490 200 1490 348 1490 c 2,4,-1
 444 1490 l 1,5,-1
 444 1327 l 1,6,-1
 349 1327 l 2,7,8
 283 1327 283 1327 253.5 1298.5 c 128,-1,9
 224 1270 224 1270 224 1208 c 2,10,-1
 224 1082 l 1,11,-1
 52 1082 l 1,0,-1
444 0 m 1,12,-1
 444 1490 l 1,13,-1
 966 1490 l 2,14,15
 1131 1490 1131 1490 1244 1431 c 128,-1,16
 1357 1372 1357 1372 1415 1267.5 c 128,-1,17
 1473 1163 1473 1163 1473 1027 c 256,18,19
 1473 891 1473 891 1414 786.5 c 128,-1,20
 1355 682 1355 682 1241.5 622 c 128,-1,21
 1128 562 1128 562 963 562 c 2,22,-1
 564 562 l 1,23,-1
 564 726 l 1,24,-1
 959 726 l 2,25,26
 1070 726 1070 726 1143.5 764 c 128,-1,27
 1217 802 1217 802 1253.5 870 c 128,-1,28
 1290 938 1290 938 1290 1027 c 0,29,30
 1290 1117 1290 1117 1253.5 1184 c 128,-1,31
 1217 1251 1217 1251 1143.5 1289 c 128,-1,32
 1070 1327 1070 1327 958 1327 c 2,33,-1
 629 1327 l 1,34,-1
 629 0 l 1,35,-1
 444 0 l 1,12,-1
EndSplineSet
Position2: "'cpsp' Capital Spacing in Latin lookup 0 subtable" dx=0 dy=0 dh=0 dv=0
EndChar

StartChar: Q
Encoding: 81 81 383
Width: 1550
GlyphClass: 2
Flags: W
AnchorPoint: "Anchor-4" 1444 744 basechar 0
AnchorPoint: "Anchor-1" 776 1490 basechar 0
AnchorPoint: "Anchor-0" 776 0 basechar 0
LayerCount: 2
Fore
SplineSet
706 466 m 1,0,-1
 904 466 l 1,1,-1
 1070 248 l 1,2,-1
 1112 190 l 1,3,-1
 1360 -140 l 1,4,-1
 1162 -140 l 1,5,-1
 1000 78 l 1,6,-1
 958 134 l 1,7,-1
 706 466 l 1,0,-1
776 -22 m 256,8,9
 582 -22 582 -22 430.5 74 c 128,-1,10
 279 170 279 170 192.5 342.5 c 128,-1,11
 106 515 106 515 106 744 c 0,12,13
 106 975 106 975 192.5 1147.5 c 128,-1,14
 279 1320 279 1320 430.5 1416 c 128,-1,15
 582 1512 582 1512 776 1512 c 256,16,17
 970 1512 970 1512 1121 1416 c 128,-1,18
 1272 1320 1272 1320 1358 1147.5 c 128,-1,19
 1444 975 1444 975 1444 744 c 0,20,21
 1444 515 1444 515 1358 342.5 c 128,-1,22
 1272 170 1272 170 1121 74 c 128,-1,23
 970 -22 970 -22 776 -22 c 256,8,9
776 150 m 0,24,25
 910 150 910 150 1020 218.5 c 128,-1,26
 1130 287 1130 287 1196 420 c 128,-1,27
 1262 553 1262 553 1262 744 c 0,28,29
 1262 937 1262 937 1196 1070 c 128,-1,30
 1130 1203 1130 1203 1020 1271.5 c 128,-1,31
 910 1340 910 1340 776 1340 c 0,32,33
 641 1340 641 1340 530.5 1271.5 c 128,-1,34
 420 1203 420 1203 354.5 1070 c 128,-1,35
 289 937 289 937 289 744 c 0,36,37
 289 553 289 553 354.5 420.5 c 128,-1,38
 420 288 420 288 530.5 219 c 128,-1,39
 641 150 641 150 776 150 c 0,24,25
EndSplineSet
Substitution2: "'ss06' Style Set 6 in Latin lookup 52 subtable" Q.squared
Substitution2: "'ss05' Style Set 5 in Latin lookup 51 subtable" uni24C6
Position2: "'cpsp' Capital Spacing in Latin lookup 0 subtable" dx=0 dy=0 dh=0 dv=0
EndChar

StartChar: Q_rthook
Encoding: 586 586 384
Width: 1550
GlyphClass: 2
Flags: W
LayerCount: 2
Fore
SplineSet
1386 1490 m 1,0,-1
 1386 0 l 1,1,-1
 1211 0 l 1,2,-1
 1211 236 l 1,3,-1
 1204 236 l 1,4,5
 1149 115 1149 115 1027.5 45.5 c 128,-1,6
 906 -24 906 -24 751 -24 c 0,7,8
 610 -24 610 -24 492 33 c 128,-1,9
 374 90 374 90 287.5 193.5 c 128,-1,10
 201 297 201 297 153.5 438.5 c 128,-1,11
 106 580 106 580 106 748 c 0,12,13
 106 914 106 914 153.5 1053.5 c 128,-1,14
 201 1193 201 1193 287.5 1296 c 128,-1,15
 374 1399 374 1399 492 1455.5 c 128,-1,16
 610 1512 610 1512 751 1512 c 0,17,18
 906 1512 906 1512 1028 1444 c 128,-1,19
 1150 1376 1150 1376 1204 1261 c 1,20,-1
 1211 1261 l 1,21,-1
 1211 1490 l 1,22,-1
 1386 1490 l 1,0,-1
753 150 m 0,23,24
 905 150 905 150 1007 227 c 128,-1,25
 1109 304 1109 304 1161 439 c 128,-1,26
 1213 574 1213 574 1213 747 c 256,27,28
 1213 920 1213 920 1160 1054.5 c 128,-1,29
 1107 1189 1107 1189 1005 1265.5 c 128,-1,30
 903 1342 903 1342 755 1342 c 0,31,32
 617 1342 617 1342 512 1265.5 c 128,-1,33
 407 1189 407 1189 348.5 1055 c 128,-1,34
 290 921 290 921 290 747 c 0,35,36
 290 567 290 567 349 432.5 c 128,-1,37
 408 298 408 298 512.5 224 c 128,-1,38
 617 150 617 150 753 150 c 0,23,24
1498 -422 m 0,39,40
 1358 -422 1358 -422 1284.5 -357.5 c 128,-1,41
 1211 -293 1211 -293 1211 -170 c 2,42,-1
 1211 0 l 1,43,-1
 1386 0 l 1,44,-1
 1386 -170 l 2,45,46
 1386 -223 1386 -223 1417 -247 c 128,-1,47
 1448 -271 1448 -271 1521 -271 c 0,48,49
 1535 -271 1535 -271 1560 -270.5 c 128,-1,50
 1585 -270 1585 -270 1601 -269 c 1,51,-1
 1601 -418 l 1,52,53
 1583 -420 1583 -420 1557.5 -421 c 128,-1,54
 1532 -422 1532 -422 1498 -422 c 0,39,40
EndSplineSet
Position2: "'cpsp' Capital Spacing in Latin lookup 0 subtable" dx=0 dy=0 dh=0 dv=0
EndChar

StartChar: R
Encoding: 82 82 385
Width: 1307
GlyphClass: 2
Flags: W
AnchorPoint: "Anchor-1" 647 1490 basechar 0
AnchorPoint: "Anchor-0" 664 0 basechar 0
LayerCount: 2
Fore
SplineSet
164 0 m 1,0,-1
 164 1490 l 1,1,-1
 696 1490 l 2,2,3
 861 1490 861 1490 974 1433 c 128,-1,4
 1087 1376 1087 1376 1145 1273 c 128,-1,5
 1203 1170 1203 1170 1203 1034 c 256,6,7
 1203 898 1203 898 1143 796 c 128,-1,8
 1083 694 1083 694 968.5 638 c 128,-1,9
 854 582 854 582 689 582 c 2,10,-1
 267 582 l 1,11,-1
 267 746 l 1,12,-1
 690 746 l 2,13,14
 800 746 800 746 873 781 c 128,-1,15
 946 816 946 816 982.5 881 c 128,-1,16
 1019 946 1019 946 1019 1034 c 0,17,18
 1019 1124 1019 1124 982.5 1189.5 c 128,-1,19
 946 1255 946 1255 872.5 1291 c 128,-1,20
 799 1327 799 1327 688 1327 c 2,21,-1
 349 1327 l 1,22,-1
 349 0 l 1,23,-1
 164 0 l 1,0,-1
1026 0 m 1,24,-1
 666 671 l 1,25,-1
 875 671 l 1,26,-1
 1241 0 l 1,27,-1
 1026 0 l 1,24,-1
EndSplineSet
Substitution2: "'c2sc' Capitals to Small Capitals in Latin lookup 68 subtable" r.sc
Substitution2: "'ss06' Style Set 6 in Latin lookup 52 subtable" R.squared
Substitution2: "'ss05' Style Set 5 in Latin lookup 51 subtable" uni24C7
Substitution2: "'aalt' Access All Alternates in Latin lookup 0 subtable" r.sc
Position2: "'cpsp' Capital Spacing in Latin lookup 0 subtable" dx=0 dy=0 dh=0 dv=0
EndChar

StartChar: uni211F
Encoding: 8479 8479 395
Width: 1278
GlyphClass: 2
Flags: W
AnchorPoint: "Anchor-1" 647 1490 basechar 0
AnchorPoint: "Anchor-0" 664 0 basechar 0
LayerCount: 2
Fore
SplineSet
974 1684 m 1,0,-1
 398 -352 l 1,1,-1
 284 -328 l 1,2,-1
 836 1614 l 1,3,-1
 520 1708 l 1,4,-1
 560 1816 l 1,5,-1
 974 1684 l 1,0,-1
164 0 m 1,6,-1
 164 1490 l 1,7,-1
 696 1490 l 2,8,9
 861 1490 861 1490 974 1433 c 128,-1,10
 1087 1376 1087 1376 1145 1273 c 128,-1,11
 1203 1170 1203 1170 1203 1034 c 256,12,13
 1203 898 1203 898 1143 796 c 128,-1,14
 1083 694 1083 694 968.5 638 c 128,-1,15
 854 582 854 582 689 582 c 2,16,-1
 267 582 l 1,17,-1
 267 746 l 1,18,-1
 690 746 l 2,19,20
 800 746 800 746 873 781 c 128,-1,21
 946 816 946 816 982.5 881 c 128,-1,22
 1019 946 1019 946 1019 1034 c 0,23,24
 1019 1124 1019 1124 982.5 1189.5 c 128,-1,25
 946 1255 946 1255 872.5 1291 c 128,-1,26
 799 1327 799 1327 688 1327 c 2,27,-1
 349 1327 l 1,28,-1
 349 0 l 1,29,-1
 164 0 l 1,6,-1
1026 0 m 1,30,-1
 666 671 l 1,31,-1
 875 671 l 1,32,-1
 1241 0 l 1,33,-1
 1026 0 l 1,30,-1
EndSplineSet
EndChar

StartChar: Rx
Encoding: 8478 8478 396
Width: 1376
Flags: W
LayerCount: 2
Fore
SplineSet
164 1490 m 1,0,-1
 665 1490 l 2,1,2
 843 1490 843 1490 953.5 1427.5 c 128,-1,3
 1064 1365 1064 1365 1115.5 1261 c 128,-1,4
 1167 1157 1167 1157 1167 1032 c 0,5,6
 1167 917 1167 917 1126.5 829 c 128,-1,7
 1086 741 1086 741 1009 682 c 128,-1,8
 932 623 932 623 821 594 c 1,9,-1
 765 577 l 1,10,-1
 307 577 l 1,11,-1
 307 747 l 1,12,-1
 646 747 l 2,13,14
 775 747 775 747 848.5 784 c 128,-1,15
 922 821 922 821 953 885.5 c 128,-1,16
 984 950 984 950 984 1032 c 0,17,18
 984 1102 984 1102 958.5 1169.5 c 128,-1,19
 933 1237 933 1237 864.5 1282 c 128,-1,20
 796 1327 796 1327 665 1327 c 2,21,-1
 349 1327 l 1,22,-1
 349 0 l 1,23,-1
 164 0 l 1,24,-1
 164 1490 l 1,0,-1
1103 0 m 1,25,-1
 629 655 l 1,26,-1
 835 655 l 1,27,-1
 1316 0 l 1,28,-1
 1103 0 l 1,25,-1
840 0 m 1,29,-1
 630 0 l 1,30,-1
 1110 655 l 1,31,-1
 1314 655 l 1,32,-1
 840 0 l 1,29,-1
EndSplineSet
EndChar

StartChar: uni024C
Encoding: 588 588 397
Width: 1294
GlyphClass: 2
Flags: W
AnchorPoint: "Anchor-1" 665 1490 basechar 0
AnchorPoint: "Anchor-0" 682 0 basechar 0
LayerCount: 2
Fore
SplineSet
284 582 m 1,0,-1
 8 582 l 1,1,-1
 8 744 l 1,2,-1
 284 744 l 1,3,-1
 284 582 l 1,0,-1
182 0 m 1,4,-1
 182 1490 l 1,5,-1
 714 1490 l 2,6,7
 879 1490 879 1490 992 1433 c 128,-1,8
 1105 1376 1105 1376 1163 1273 c 128,-1,9
 1221 1170 1221 1170 1221 1034 c 256,10,11
 1221 898 1221 898 1161 796 c 128,-1,12
 1101 694 1101 694 986.5 638 c 128,-1,13
 872 582 872 582 707 582 c 2,14,-1
 285 582 l 1,15,-1
 285 746 l 1,16,-1
 708 746 l 2,17,18
 818 746 818 746 891 781 c 128,-1,19
 964 816 964 816 1000.5 881 c 128,-1,20
 1037 946 1037 946 1037 1034 c 0,21,22
 1037 1124 1037 1124 1000.5 1189.5 c 128,-1,23
 964 1255 964 1255 890.5 1291 c 128,-1,24
 817 1327 817 1327 706 1327 c 2,25,-1
 367 1327 l 1,26,-1
 367 0 l 1,27,-1
 182 0 l 1,4,-1
1044 0 m 1,28,-1
 684 671 l 1,29,-1
 893 671 l 1,30,-1
 1259 0 l 1,31,-1
 1044 0 l 1,28,-1
EndSplineSet
Position2: "'cpsp' Capital Spacing in Latin lookup 0 subtable" dx=0 dy=0 dh=0 dv=0
EndChar

StartChar: S
Encoding: 83 83 398
Width: 1286
GlyphClass: 2
Flags: W
AnchorPoint: "Anchor-3" 646 0 basechar 0
AnchorPoint: "Anchor-1" 640 1490 basechar 0
AnchorPoint: "Anchor-0" 646 0 basechar 0
LayerCount: 2
Fore
SplineSet
649 -25 m 256,0,1
 482 -25 482 -25 360 32 c 128,-1,2
 238 89 238 89 170 192 c 128,-1,3
 102 295 102 295 97 435 c 1,4,-1
 287 435 l 1,5,6
 291 340 291 340 337.5 274.5 c 128,-1,7
 384 209 384 209 465 175.5 c 128,-1,8
 546 142 546 142 649 142 c 0,9,10
 754 142 754 142 834.5 174.5 c 128,-1,11
 915 207 915 207 961 266.5 c 128,-1,12
 1007 326 1007 326 1007 406 c 0,13,14
 1007 473 1007 473 972 518.5 c 128,-1,15
 937 564 937 564 871.5 595.5 c 128,-1,16
 806 627 806 627 712 651 c 2,17,-1
 538 697 l 2,18,19
 334 751 334 751 233.5 845.5 c 128,-1,20
 133 940 133 940 133 1090 c 0,21,22
 133 1217 133 1217 199 1312 c 128,-1,23
 265 1407 265 1407 381 1459.5 c 128,-1,24
 497 1512 497 1512 646 1512 c 0,25,26
 797 1512 797 1512 911 1458 c 128,-1,27
 1025 1404 1025 1404 1089.5 1307 c 128,-1,28
 1154 1210 1154 1210 1158 1082 c 1,29,-1
 976 1082 l 1,30,31
 966 1207 966 1207 874.5 1276.5 c 128,-1,32
 783 1346 783 1346 640 1346 c 0,33,34
 544 1346 544 1346 470.5 1314 c 128,-1,35
 397 1282 397 1282 356 1226.5 c 128,-1,36
 315 1171 315 1171 315 1099 c 0,37,38
 315 1031 315 1031 354 985.5 c 128,-1,39
 393 940 393 940 459 910.5 c 128,-1,40
 525 881 525 881 606 860 c 2,41,-1
 765 818 l 2,42,43
 850 797 850 797 926 764 c 128,-1,44
 1002 731 1002 731 1061.5 682.5 c 128,-1,45
 1121 634 1121 634 1155 566.5 c 128,-1,46
 1189 499 1189 499 1189 408 c 0,47,48
 1189 283 1189 283 1123.5 185 c 128,-1,49
 1058 87 1058 87 937 31 c 128,-1,50
 816 -25 816 -25 649 -25 c 256,0,1
EndSplineSet
Substitution2: "'ss06' Style Set 6 in Latin lookup 52 subtable" S.squared
Substitution2: "'ss05' Style Set 5 in Latin lookup 51 subtable" uni24C8
Position2: "'cpsp' Capital Spacing in Latin lookup 0 subtable" dx=0 dy=0 dh=0 dv=0
EndChar

StartChar: uni01A7
Encoding: 423 423 410
Width: 1286
GlyphClass: 2
Flags: W
AnchorPoint: "Anchor-3" 641 0 basechar 0
AnchorPoint: "Anchor-1" 646 1490 basechar 0
AnchorPoint: "Anchor-0" 641 0 basechar 0
LayerCount: 2
Fore
SplineSet
638 -25 m 256,0,1
 471 -25 471 -25 349.5 31 c 128,-1,2
 228 87 228 87 162.5 185 c 128,-1,3
 97 283 97 283 97 408 c 0,4,5
 97 499 97 499 131.5 566.5 c 128,-1,6
 166 634 166 634 225 682.5 c 128,-1,7
 284 731 284 731 360.5 764 c 128,-1,8
 437 797 437 797 521 818 c 2,9,-1
 680 860 l 2,10,11
 762 881 762 881 828 910.5 c 128,-1,12
 894 940 894 940 933 985.5 c 128,-1,13
 972 1031 972 1031 972 1099 c 0,14,15
 972 1171 972 1171 930.5 1226.5 c 128,-1,16
 889 1282 889 1282 816 1314 c 128,-1,17
 743 1346 743 1346 646 1346 c 0,18,19
 504 1346 504 1346 412.5 1276.5 c 128,-1,20
 321 1207 321 1207 310 1082 c 1,21,-1
 128 1082 l 1,22,23
 133 1210 133 1210 197.5 1307 c 128,-1,24
 262 1404 262 1404 375.5 1458 c 128,-1,25
 489 1512 489 1512 640 1512 c 0,26,27
 790 1512 790 1512 906 1459.5 c 128,-1,28
 1022 1407 1022 1407 1087.5 1312 c 128,-1,29
 1153 1217 1153 1217 1153 1090 c 0,30,31
 1153 940 1153 940 1052.5 845.5 c 128,-1,32
 952 751 952 751 748 697 c 2,33,-1
 575 651 l 2,34,35
 482 627 482 627 415.5 595.5 c 128,-1,36
 349 564 349 564 314.5 518.5 c 128,-1,37
 280 473 280 473 280 406 c 0,38,39
 280 326 280 326 326 266.5 c 128,-1,40
 372 207 372 207 452.5 174.5 c 128,-1,41
 533 142 533 142 638 142 c 0,42,43
 742 142 742 142 822 175.5 c 128,-1,44
 902 209 902 209 949 274.5 c 128,-1,45
 996 340 996 340 1000 435 c 1,46,-1
 1189 435 l 1,47,48
 1185 295 1185 295 1117 192 c 128,-1,49
 1049 89 1049 89 927 32 c 128,-1,50
 805 -25 805 -25 638 -25 c 256,0,1
EndSplineSet
Position2: "'cpsp' Capital Spacing in Latin lookup 0 subtable" dx=0 dy=0 dh=0 dv=0
EndChar

StartChar: uni1E9E
Encoding: 7838 7838 411
Width: 1367
Flags: W
LayerCount: 2
Fore
SplineSet
164 0 m 1,0,-1
 164 990 l 2,1,2
 164 1162 164 1162 216 1278 c 128,-1,3
 268 1394 268 1394 370.5 1452 c 128,-1,4
 473 1510 473 1510 625 1510 c 0,5,6
 733 1510 733 1510 823.5 1480 c 128,-1,7
 914 1450 914 1450 991.5 1399 c 128,-1,8
 1069 1348 1069 1348 1138 1285 c 1,9,-1
 806 851 l 1,10,11
 954 842 954 842 1057.5 788 c 128,-1,12
 1161 734 1161 734 1215.5 640.5 c 128,-1,13
 1270 547 1270 547 1270 419 c 0,14,15
 1270 277 1270 277 1205.5 179.5 c 128,-1,16
 1141 82 1141 82 1028 31 c 128,-1,17
 915 -20 915 -20 769 -20 c 0,18,19
 700 -20 700 -20 629.5 -8 c 128,-1,20
 559 4 559 4 487 31 c 1,21,-1
 546 193 l 1,22,23
 589 175 589 175 644.5 159.5 c 128,-1,24
 700 144 700 144 770 144 c 0,25,26
 912 144 912 144 989 218.5 c 128,-1,27
 1066 293 1066 293 1066 423 c 0,28,29
 1066 524 1066 524 1026 580 c 128,-1,30
 986 636 986 636 930 660.5 c 128,-1,31
 874 685 874 685 822.5 690 c 128,-1,32
 771 695 771 695 747 695 c 2,33,-1
 602 695 l 1,34,-1
 602 853 l 1,35,-1
 897 1253 l 1,36,37
 850 1286 850 1286 787 1316.5 c 128,-1,38
 724 1347 724 1347 633 1347 c 0,39,40
 521 1347 521 1347 459 1296 c 128,-1,41
 397 1245 397 1245 373 1163.5 c 128,-1,42
 349 1082 349 1082 349 990 c 2,43,-1
 349 0 l 1,44,-1
 164 0 l 1,0,-1
EndSplineSet
Position2: "'cpsp' Capital Spacing in Latin lookup 0 subtable" dx=0 dy=0 dh=0 dv=0
EndChar

StartChar: T
Encoding: 84 84 412
Width: 1286
GlyphClass: 2
Flags: W
AnchorPoint: "Anchor-3" 645 0 basechar 0
AnchorPoint: "Anchor-1" 644 1490 basechar 0
AnchorPoint: "Anchor-0" 644 0 basechar 0
LayerCount: 2
Fore
SplineSet
74 1326 m 1,0,-1
 74 1490 l 1,1,-1
 1212 1490 l 1,2,-1
 1212 1326 l 1,3,-1
 737 1326 l 1,4,-1
 737 0 l 1,5,-1
 552 0 l 1,6,-1
 552 1326 l 1,7,-1
 74 1326 l 1,0,-1
EndSplineSet
Substitution2: "'c2sc' Capitals to Small Capitals in Latin lookup 68 subtable" t.sc
Substitution2: "'ss06' Style Set 6 in Latin lookup 52 subtable" T.squared
Substitution2: "'ss05' Style Set 5 in Latin lookup 51 subtable" uni24C9
Substitution2: "'aalt' Access All Alternates in Latin lookup 0 subtable" t.sc
Position2: "'cpsp' Capital Spacing in Latin lookup 0 subtable" dx=0 dy=0 dh=0 dv=0
EndChar

StartChar: uni01AC
Encoding: 428 428 420
Width: 1277
GlyphClass: 2
Flags: W
AnchorPoint: "Anchor-1" 642 1490 basechar 0
LayerCount: 2
Fore
SplineSet
52 1082 m 1,0,-1
 52 1211 l 2,1,2
 52 1352 52 1352 126 1421 c 128,-1,3
 200 1490 200 1490 348 1490 c 2,4,-1
 444 1490 l 1,5,-1
 444 1327 l 1,6,-1
 349 1327 l 2,7,8
 283 1327 283 1327 253.5 1298.5 c 128,-1,9
 224 1270 224 1270 224 1208 c 2,10,-1
 224 1082 l 1,11,-1
 52 1082 l 1,0,-1
444 1327 m 1,12,-1
 444 1490 l 1,13,-1
 1203 1490 l 1,14,-1
 1203 1327 l 1,15,-1
 735 1327 l 1,16,-1
 735 0 l 1,17,-1
 550 0 l 1,18,-1
 550 1327 l 1,19,-1
 444 1327 l 1,12,-1
EndSplineSet
Position2: "'cpsp' Capital Spacing in Latin lookup 0 subtable" dx=0 dy=0 dh=0 dv=0
EndChar

StartChar: uni01AC.base
Encoding: 60940 60940 421
Width: 1277
GlyphClass: 2
Flags: W
AnchorPoint: "Anchor-1" 642 1490 basechar 0
LayerCount: 2
Fore
SplineSet
444 1327 m 1,0,-1
 444 1490 l 1,1,-1
 1203 1490 l 1,2,-1
 1203 1327 l 1,3,-1
 735 1327 l 1,4,-1
 735 0 l 1,5,-1
 550 0 l 1,6,-1
 550 1327 l 1,7,-1
 444 1327 l 1,0,-1
EndSplineSet
EndChar

StartChar: Trthook
Encoding: 430 430 422
Width: 1286
GlyphClass: 2
Flags: W
AnchorPoint: "Anchor-3" 645 0 basechar 0
AnchorPoint: "Anchor-1" 644 1490 basechar 0
AnchorPoint: "Anchor-0" 644 0 basechar 0
LayerCount: 2
Fore
SplineSet
839 -422 m 0,0,1
 698 -422 698 -422 625 -357.5 c 128,-1,2
 552 -293 552 -293 552 -170 c 2,3,-1
 552 158 l 1,4,-1
 737 158 l 1,5,-1
 737 -170 l 2,6,7
 737 -223 737 -223 767.5 -246 c 128,-1,8
 798 -269 798 -269 872 -269 c 0,9,10
 885 -269 885 -269 910 -268.5 c 128,-1,11
 935 -268 935 -268 951 -267 c 1,12,-1
 951 -418 l 1,13,14
 933 -420 933 -420 904 -421 c 128,-1,15
 875 -422 875 -422 839 -422 c 0,0,1
74 1326 m 1,16,-1
 74 1490 l 1,17,-1
 1212 1490 l 1,18,-1
 1212 1326 l 1,19,-1
 737 1326 l 1,20,-1
 737 0 l 1,21,-1
 552 0 l 1,22,-1
 552 1326 l 1,23,-1
 74 1326 l 1,16,-1
EndSplineSet
Position2: "'cpsp' Capital Spacing in Latin lookup 0 subtable" dx=0 dy=0 dh=0 dv=0
EndChar

StartChar: uni023E
Encoding: 574 574 423
Width: 1286
GlyphClass: 2
Flags: W
AnchorPoint: "Anchor-3" 645 0 basechar 0
AnchorPoint: "Anchor-1" 644 1490 basechar 0
AnchorPoint: "Anchor-0" 644 0 basechar 0
LayerCount: 2
Fore
SplineSet
192 -209 m 1,0,-1
 954 1699 l 1,1,-1
 1094 1699 l 1,2,-1
 332 -209 l 1,3,-1
 192 -209 l 1,0,-1
74 1326 m 1,4,-1
 74 1490 l 1,5,-1
 1212 1490 l 1,6,-1
 1212 1326 l 1,7,-1
 737 1326 l 1,8,-1
 737 0 l 1,9,-1
 552 0 l 1,10,-1
 552 1326 l 1,11,-1
 74 1326 l 1,4,-1
EndSplineSet
Position2: "'cpsp' Capital Spacing in Latin lookup 0 subtable" dx=0 dy=0 dh=0 dv=0
EndChar

StartChar: U
Encoding: 85 85 425
Width: 1482
GlyphClass: 2
Flags: W
AnchorPoint: "Anchor-4" 1322 507 basechar 0
AnchorPoint: "Anchor-1" 742 1490 basechar 0
AnchorPoint: "Anchor-0" 742 0 basechar 0
LayerCount: 2
Fore
SplineSet
742 -24 m 0,0,1
 566 -24 566 -24 435 45 c 128,-1,2
 304 114 304 114 232 234 c 128,-1,3
 160 354 160 354 160 507 c 2,4,-1
 160 1490 l 1,5,-1
 345 1490 l 1,6,-1
 345 521 l 2,7,8
 345 413 345 413 393 329 c 128,-1,9
 441 245 441 245 529.5 196.5 c 128,-1,10
 618 148 618 148 742 148 c 0,11,12
 865 148 865 148 953.5 196.5 c 128,-1,13
 1042 245 1042 245 1089.5 329 c 128,-1,14
 1137 413 1137 413 1137 521 c 2,15,-1
 1137 1490 l 1,16,-1
 1322 1490 l 1,17,-1
 1322 507 l 2,18,19
 1322 354 1322 354 1250 234 c 128,-1,20
 1178 114 1178 114 1047.5 45 c 128,-1,21
 917 -24 917 -24 742 -24 c 0,0,1
EndSplineSet
Substitution2: "'ss06' Style Set 6 in Latin lookup 52 subtable" U.squared
Substitution2: "'ss05' Style Set 5 in Latin lookup 51 subtable" uni24CA
Position2: "'cpsp' Capital Spacing in Latin lookup 0 subtable" dx=0 dy=0 dh=0 dv=0
EndChar

StartChar: Uhorn
Encoding: 431 431 426
Width: 1479
GlyphClass: 2
Flags: W
AnchorPoint: "Anchor-4" 1322 507 basechar 0
AnchorPoint: "Anchor-1" 742 1490 basechar 0
AnchorPoint: "Anchor-0" 742 0 basechar 0
LayerCount: 2
Fore
SplineSet
1139 1348 m 1,0,-1
 1139 1490 l 1,1,-1
 1316 1490 l 2,2,3
 1334 1490 1334 1490 1334 1508 c 2,4,-1
 1334 1714 l 1,5,-1
 1504 1714 l 1,6,-1
 1504 1518 l 2,7,8
 1504 1433 1504 1433 1462 1390.5 c 128,-1,9
 1420 1348 1420 1348 1334 1348 c 2,10,-1
 1139 1348 l 1,0,-1
742 -24 m 0,11,12
 566 -24 566 -24 435 45 c 128,-1,13
 304 114 304 114 232 234 c 128,-1,14
 160 354 160 354 160 507 c 2,15,-1
 160 1490 l 1,16,-1
 345 1490 l 1,17,-1
 345 521 l 2,18,19
 345 413 345 413 393 329 c 128,-1,20
 441 245 441 245 529.5 196.5 c 128,-1,21
 618 148 618 148 742 148 c 0,22,23
 865 148 865 148 953.5 196.5 c 128,-1,24
 1042 245 1042 245 1089.5 329 c 128,-1,25
 1137 413 1137 413 1137 521 c 2,26,-1
 1137 1490 l 1,27,-1
 1322 1490 l 1,28,-1
 1322 507 l 2,29,30
 1322 354 1322 354 1250 234 c 128,-1,31
 1178 114 1178 114 1047.5 45 c 128,-1,32
 917 -24 917 -24 742 -24 c 0,11,12
EndSplineSet
Position2: "'cpsp' Capital Spacing in Latin lookup 0 subtable" dx=0 dy=0 dh=0 dv=0
EndChar

StartChar: uni0244
Encoding: 580 580 456
Width: 1486
GlyphClass: 2
Flags: W
AnchorPoint: "Anchor-4" 1322 507 basechar 0
AnchorPoint: "Anchor-1" 742 1490 basechar 0
AnchorPoint: "Anchor-0" 742 0 basechar 0
LayerCount: 2
Fore
SplineSet
1508 864 m 1,0,-1
 1508 744 l 1,1,-1
 -22 744 l 1,2,-1
 -22 864 l 1,3,-1
 1508 864 l 1,0,-1
742 -24 m 0,4,5
 566 -24 566 -24 435 45 c 128,-1,6
 304 114 304 114 232 234 c 128,-1,7
 160 354 160 354 160 507 c 2,8,-1
 160 1490 l 1,9,-1
 345 1490 l 1,10,-1
 345 521 l 2,11,12
 345 413 345 413 393 329 c 128,-1,13
 441 245 441 245 529.5 196.5 c 128,-1,14
 618 148 618 148 742 148 c 0,15,16
 865 148 865 148 953.5 196.5 c 128,-1,17
 1042 245 1042 245 1089.5 329 c 128,-1,18
 1137 413 1137 413 1137 521 c 2,19,-1
 1137 1490 l 1,20,-1
 1322 1490 l 1,21,-1
 1322 507 l 2,22,23
 1322 354 1322 354 1250 234 c 128,-1,24
 1178 114 1178 114 1047.5 45 c 128,-1,25
 917 -24 917 -24 742 -24 c 0,4,5
EndSplineSet
Position2: "'cpsp' Capital Spacing in Latin lookup 0 subtable" dx=0 dy=0 dh=0 dv=0
EndChar

StartChar: V
Encoding: 86 86 457
Width: 1376
GlyphClass: 2
Flags: W
AnchorPoint: "Anchor-1" 688 1490 basechar 0
AnchorPoint: "Anchor-0" 688 0 basechar 0
LayerCount: 2
Fore
SplineSet
585 0 m 1,0,-1
 36 1490 l 1,1,-1
 231 1490 l 1,2,-1
 550 599 l 2,3,4
 576 525 576 525 616.5 400 c 128,-1,5
 657 275 657 275 715 89 c 1,6,-1
 671 89 l 1,7,8
 728 278 728 278 768.5 401.5 c 128,-1,9
 809 525 809 525 834 599 c 2,10,-1
 1145 1490 l 1,11,-1
 1340 1490 l 1,12,-1
 797 0 l 1,13,-1
 585 0 l 1,0,-1
EndSplineSet
Substitution2: "'ss06' Style Set 6 in Latin lookup 52 subtable" V.squared
Substitution2: "'ss05' Style Set 5 in Latin lookup 51 subtable" uni24CB
Position2: "'cpsp' Capital Spacing in Latin lookup 0 subtable" dx=0 dy=0 dh=0 dv=0
EndChar

StartChar: W
Encoding: 87 87 460
Width: 1981
GlyphClass: 2
Flags: W
AnchorPoint: "Anchor-1" 991 1490 basechar 0
AnchorPoint: "Anchor-0" 991 0 basechar 0
LayerCount: 2
Fore
SplineSet
442 0 m 1,0,-1
 36 1490 l 1,1,-1
 224 1490 l 1,2,-1
 463 568 l 2,3,4
 482 496 482 496 499 422 c 128,-1,5
 516 348 516 348 532 273.5 c 128,-1,6
 548 199 548 199 562 122 c 1,7,-1
 540 122 l 1,8,9
 555 199 555 199 571 273.5 c 128,-1,10
 587 348 587 348 604.5 422 c 128,-1,11
 622 496 622 496 641 568 c 2,12,-1
 885 1490 l 1,13,-1
 1097 1490 l 1,14,-1
 1338 568 l 2,15,16
 1358 496 1358 496 1375.5 422 c 128,-1,17
 1393 348 1393 348 1410 273.5 c 128,-1,18
 1427 199 1427 199 1442 122 c 1,19,-1
 1417 122 l 1,20,21
 1432 199 1432 199 1448 273.5 c 128,-1,22
 1464 348 1464 348 1482 422 c 128,-1,23
 1500 496 1500 496 1518 568 c 2,24,-1
 1755 1490 l 1,25,-1
 1945 1490 l 1,26,-1
 1537 0 l 1,27,-1
 1322 0 l 1,28,-1
 1063 952 l 2,29,30
 1037 1048 1037 1048 1014.5 1152.5 c 128,-1,31
 992 1257 992 1257 970 1378 c 1,32,-1
 1009 1378 l 1,33,34
 988 1261 988 1261 966.5 1158 c 128,-1,35
 945 1055 945 1055 917 952 c 2,36,-1
 659 0 l 1,37,-1
 442 0 l 1,0,-1
EndSplineSet
Substitution2: "'ss06' Style Set 6 in Latin lookup 52 subtable" W.squared
Substitution2: "'ss05' Style Set 5 in Latin lookup 51 subtable" uni24CC
Position2: "'cpsp' Capital Spacing in Latin lookup 0 subtable" dx=0 dy=0 dh=0 dv=0
EndChar

StartChar: X
Encoding: 88 88 467
Width: 1360
GlyphClass: 2
Flags: W
AnchorPoint: "Anchor-1" 680 1490 basechar 0
AnchorPoint: "Anchor-0" 680 0 basechar 0
LayerCount: 2
Fore
SplineSet
41 0 m 1,0,-1
 623 831 l 1,1,-1
 623 694 l 1,2,-1
 74 1490 l 1,3,-1
 288 1490 l 1,4,-1
 505 1171 l 2,5,6
 546 1112 546 1112 577 1064 c 128,-1,7
 608 1016 608 1016 637 969 c 128,-1,8
 666 922 666 922 697 866 c 1,9,-1
 666 866 l 1,10,11
 698 922 698 922 727 969 c 128,-1,12
 756 1016 756 1016 788 1064 c 128,-1,13
 820 1112 820 1112 861 1171 c 2,14,-1
 1082 1490 l 1,15,-1
 1291 1490 l 1,16,-1
 743 702 l 1,17,-1
 743 838 l 1,18,-1
 1319 0 l 1,19,-1
 1106 0 l 1,20,-1
 843 381 l 2,21,22
 806 435 806 435 776 480 c 128,-1,23
 746 525 746 525 718.5 570 c 128,-1,24
 691 615 691 615 661 668 c 1,25,-1
 701 668 l 1,26,27
 671 616 671 616 643 571 c 128,-1,28
 615 526 615 526 584.5 481 c 128,-1,29
 554 436 554 436 516 381 c 2,30,-1
 251 0 l 1,31,-1
 41 0 l 1,0,-1
EndSplineSet
Substitution2: "'ss06' Style Set 6 in Latin lookup 52 subtable" X.squared
Substitution2: "'ss05' Style Set 5 in Latin lookup 51 subtable" uni24CD
Position2: "'cpsp' Capital Spacing in Latin lookup 0 subtable" dx=0 dy=0 dh=0 dv=0
EndChar

StartChar: Y
Encoding: 89 89 473
Width: 1353
GlyphClass: 2
Flags: W
AnchorPoint: "Anchor-4" 769 0 basechar 0
AnchorPoint: "Anchor-1" 677 1490 basechar 0
AnchorPoint: "Anchor-0" 677 0 basechar 0
LayerCount: 2
Fore
SplineSet
584 0 m 1,0,-1
 584 612 l 1,1,-1
 36 1490 l 1,2,-1
 250 1490 l 1,3,-1
 547 1009 l 2,4,5
 595 932 595 932 635 859.5 c 128,-1,6
 675 787 675 787 717 695 c 1,7,-1
 640 695 l 1,8,9
 681 788 681 788 722 861 c 128,-1,10
 763 934 763 934 808 1009 c 2,11,-1
 1104 1490 l 1,12,-1
 1317 1490 l 1,13,-1
 769 612 l 1,14,-1
 769 0 l 1,15,-1
 584 0 l 1,0,-1
EndSplineSet
Substitution2: "'c2sc' Capitals to Small Capitals in Latin lookup 68 subtable" y.sc
Substitution2: "'ss06' Style Set 6 in Latin lookup 52 subtable" Y.squared
Substitution2: "'ss05' Style Set 5 in Latin lookup 51 subtable" uni24CE
Substitution2: "'aalt' Access All Alternates in Latin lookup 0 subtable" y.sc
Position2: "'cpsp' Capital Spacing in Latin lookup 0 subtable" dx=0 dy=0 dh=0 dv=0
EndChar

StartChar: uni01B3
Encoding: 435 435 474
Width: 1421
Flags: W
LayerCount: 2
Fore
SplineSet
654 762 m 1,0,-1
 654 796 l 1,1,-1
 690 796 l 1,2,-1
 690 762 l 1,3,-1
 654 762 l 1,0,-1
40 1490 m 1,4,-1
 251 1490 l 1,5,-1
 672 782 l 1,6,-1
 1004 1341 l 2,7,8
 1053 1422 1053 1422 1116.5 1463.5 c 128,-1,9
 1180 1505 1180 1505 1252.5 1508.5 c 128,-1,10
 1325 1512 1325 1512 1397 1478 c 1,11,-1
 1348 1329 l 1,12,13
 1295 1351 1295 1351 1248 1338.5 c 128,-1,14
 1201 1326 1201 1326 1162 1262 c 2,15,-1
 765 613 l 1,16,-1
 765 0 l 1,17,-1
 580 0 l 1,18,-1
 580 613 l 1,19,-1
 40 1490 l 1,4,-1
EndSplineSet
Position2: "'cpsp' Capital Spacing in Latin lookup 0 subtable" dx=0 dy=0 dh=0 dv=0
EndChar

StartChar: uni024E
Encoding: 590 590 484
Width: 1336
GlyphClass: 2
Flags: W
AnchorPoint: "Anchor-4" 769 0 basechar 0
AnchorPoint: "Anchor-1" 677 1490 basechar 0
AnchorPoint: "Anchor-0" 677 0 basechar 0
LayerCount: 2
Fore
SplineSet
1346 1184 m 1,0,-1
 1346 1064 l 1,1,-1
 -10 1064 l 1,2,-1
 -10 1184 l 1,3,-1
 1346 1184 l 1,0,-1
584 0 m 1,4,-1
 584 612 l 1,5,-1
 36 1490 l 1,6,-1
 250 1490 l 1,7,-1
 547 1009 l 2,8,9
 595 932 595 932 635 859.5 c 128,-1,10
 675 787 675 787 717 695 c 1,11,-1
 640 695 l 1,12,13
 681 788 681 788 722 861 c 128,-1,14
 763 934 763 934 808 1009 c 2,15,-1
 1104 1490 l 1,16,-1
 1317 1490 l 1,17,-1
 769 612 l 1,18,-1
 769 0 l 1,19,-1
 584 0 l 1,4,-1
EndSplineSet
Position2: "'cpsp' Capital Spacing in Latin lookup 0 subtable" dx=0 dy=0 dh=0 dv=0
EndChar

StartChar: Z
Encoding: 90 90 497
Width: 1272
GlyphClass: 2
Flags: W
AnchorPoint: "Anchor-1" 636 1490 basechar 0
AnchorPoint: "Anchor-0" 633 0 basechar 0
LayerCount: 2
Fore
SplineSet
94 0 m 1,0,-1
 94 143 l 1,1,-1
 817 1139 l 2,2,3
 863 1203 863 1203 913 1267 c 128,-1,4
 963 1331 963 1331 1013 1394 c 1,5,-1
 1035 1331 l 1,6,7
 947 1328 947 1328 859 1327 c 128,-1,8
 771 1326 771 1326 683 1326 c 2,9,-1
 106 1326 l 1,10,-1
 106 1490 l 1,11,-1
 1174 1490 l 1,12,-1
 1174 1346 l 1,13,-1
 465 369 l 2,14,15
 416 301 416 301 363 232.5 c 128,-1,16
 310 164 310 164 255 97 c 1,17,-1
 233 160 l 1,18,19
 320 163 320 163 406.5 163.5 c 128,-1,20
 493 164 493 164 580 164 c 2,21,-1
 1182 164 l 1,22,-1
 1182 0 l 1,23,-1
 94 0 l 1,0,-1
EndSplineSet
Substitution2: "'ss06' Style Set 6 in Latin lookup 52 subtable" Z.squared
Substitution2: "'ss05' Style Set 5 in Latin lookup 51 subtable" uni24CF
Position2: "'cpsp' Capital Spacing in Latin lookup 0 subtable" dx=0 dy=0 dh=0 dv=0
EndChar

StartChar: uni0224
Encoding: 548 548 504
Width: 1272
GlyphClass: 2
Flags: W
AnchorPoint: "Anchor-1" 636 1490 basechar 0
AnchorPoint: "Anchor-0" 633 0 basechar 0
LayerCount: 2
Fore
SplineSet
788 -418 m 1,0,-1
 788 -260 l 1,1,2
 804 -262 804 -262 829 -262.5 c 128,-1,3
 854 -263 854 -263 867 -263 c 0,4,5
 941 -263 941 -263 969 -239 c 128,-1,6
 997 -215 997 -215 997 -162 c 2,7,-1
 997 0 l 1,8,-1
 1182 0 l 1,9,-1
 1182 -170 l 2,10,11
 1182 -293 1182 -293 1109 -357.5 c 128,-1,12
 1036 -422 1036 -422 895 -422 c 0,13,14
 862 -422 862 -422 834 -421 c 128,-1,15
 806 -420 806 -420 788 -418 c 1,0,-1
94 0 m 1,16,-1
 94 143 l 1,17,-1
 817 1139 l 2,18,19
 863 1203 863 1203 913 1267 c 128,-1,20
 963 1331 963 1331 1013 1394 c 1,21,-1
 1035 1331 l 1,22,23
 947 1328 947 1328 859 1327 c 128,-1,24
 771 1326 771 1326 683 1326 c 2,25,-1
 106 1326 l 1,26,-1
 106 1490 l 1,27,-1
 1174 1490 l 1,28,-1
 1174 1346 l 1,29,-1
 465 369 l 2,30,31
 416 301 416 301 363 232.5 c 128,-1,32
 310 164 310 164 255 97 c 1,33,-1
 233 160 l 1,34,35
 320 163 320 163 406.5 163.5 c 128,-1,36
 493 164 493 164 580 164 c 2,37,-1
 1182 164 l 1,38,-1
 1182 0 l 1,39,-1
 94 0 l 1,16,-1
EndSplineSet
Position2: "'cpsp' Capital Spacing in Latin lookup 0 subtable" dx=0 dy=0 dh=0 dv=0
EndChar

StartChar: uni2C7F
Encoding: 11391 11391 507
Width: 1238
Flags: W
LayerCount: 2
Fore
SplineSet
1013 -427 m 0,0,1
 936 -427 936 -427 873.5 -396 c 128,-1,2
 811 -365 811 -365 755.5 -316.5 c 128,-1,3
 700 -268 700 -268 646.5 -213.5 c 128,-1,4
 593 -159 593 -159 535.5 -110 c 128,-1,5
 478 -61 478 -61 410.5 -30.5 c 128,-1,6
 343 0 343 0 258 0 c 2,7,-1
 98 0 l 1,8,-1
 98 132 l 1,9,-1
 899 1326 l 1,10,-1
 90 1326 l 1,11,-1
 90 1490 l 1,12,-1
 1122 1490 l 1,13,-1
 1122 1357 l 1,14,-1
 314 155 l 1,15,16
 407 146 407 146 480.5 112.5 c 128,-1,17
 554 79 554 79 613 31.5 c 128,-1,18
 672 -16 672 -16 723 -67 c 128,-1,19
 774 -118 774 -118 820 -162.5 c 128,-1,20
 866 -207 866 -207 913 -234.5 c 128,-1,21
 960 -262 960 -262 1013 -262 c 0,22,23
 1039 -262 1039 -262 1061.5 -261 c 128,-1,24
 1084 -260 1084 -260 1105.5 -257.5 c 128,-1,25
 1127 -255 1127 -255 1148 -253 c 1,26,-1
 1148 -414 l 1,27,28
 1118 -419 1118 -419 1086.5 -423 c 128,-1,29
 1055 -427 1055 -427 1013 -427 c 0,0,1
EndSplineSet
Position2: "'cpsp' Capital Spacing in Latin lookup 0 subtable" dx=0 dy=0 dh=0 dv=0
EndChar

StartChar: a
Encoding: 97 97 508
Width: 1105
GlyphClass: 2
Flags: W
AnchorPoint: "Anchor-4" 963 0 basechar 0
AnchorPoint: "Anchor-1" 541 1087 basechar 0
AnchorPoint: "Anchor-0" 541 0 basechar 0
LayerCount: 2
Fore
SplineSet
460 -21 m 0,0,1
 354 -21 354 -21 269.5 17 c 128,-1,2
 185 55 185 55 135 129.5 c 128,-1,3
 85 204 85 204 85 311 c 0,4,5
 85 405 85 405 122 463.5 c 128,-1,6
 159 522 159 522 220.5 555.5 c 128,-1,7
 282 589 282 589 358 606 c 128,-1,8
 434 623 434 623 513 633 c 0,9,10
 613 646 613 646 673.5 653 c 128,-1,11
 734 660 734 660 761.5 676.5 c 128,-1,12
 789 693 789 693 789 734 c 2,13,-1
 789 742 l 2,14,15
 789 806 789 806 762.5 852.5 c 128,-1,16
 736 899 736 899 683.5 924.5 c 128,-1,17
 631 950 631 950 555 950 c 256,18,19
 479 950 479 950 422 925.5 c 128,-1,20
 365 901 365 901 330.5 861 c 128,-1,21
 296 821 296 821 285 775 c 1,22,-1
 112 804 l 1,23,24
 136 903 136 903 200 969.5 c 128,-1,25
 264 1036 264 1036 355.5 1070 c 128,-1,26
 447 1104 447 1104 553 1104 c 0,27,28
 627 1104 627 1104 700 1085 c 128,-1,29
 773 1066 773 1066 832.5 1023 c 128,-1,30
 892 980 892 980 927.5 908.5 c 128,-1,31
 963 837 963 837 963 733 c 2,32,-1
 963 0 l 1,33,-1
 791 0 l 1,34,-1
 791 151 l 1,35,-1
 783 151 l 1,36,37
 764 113 764 113 724.5 73 c 128,-1,38
 685 33 685 33 620 6 c 128,-1,39
 555 -21 555 -21 460 -21 c 0,0,1
487 135 m 0,40,41
 589 135 589 135 656 173 c 128,-1,42
 723 211 723 211 756 272.5 c 128,-1,43
 789 334 789 334 789 402 c 2,44,-1
 789 546 l 1,45,46
 779 535 779 535 747 525.5 c 128,-1,47
 715 516 715 516 672 508.5 c 128,-1,48
 629 501 629 501 584.5 494.5 c 128,-1,49
 540 488 540 488 505 484 c 0,50,51
 442 476 442 476 386.5 456.5 c 128,-1,52
 331 437 331 437 297 400.5 c 128,-1,53
 263 364 263 364 263 302 c 0,54,55
 263 248 263 248 291 211 c 128,-1,56
 319 174 319 174 369.5 154.5 c 128,-1,57
 420 135 420 135 487 135 c 0,40,41
EndSplineSet
Substitution2: "'smcp' Lowercase to Small Capitals in Latin lookup 69 subtable" a.sc
Substitution2: "'c2sc' Capitals to Small Capitals in Latin lookup 68 subtable" a.sc
Substitution2: "'cv11' Character Variants 11 in Latin lookup 65 subtable" a.1
Substitution2: "'salt' Stylistic Alternatives in Latin lookup 46 subtable" a.1
Substitution2: "Single Substitution lookup 44 subtable" ordfeminine
Substitution2: "'sups' Superscript in Latin lookup 39 subtable" a.sups
Substitution2: "'subs' Subscript in Latin lookup 38 subtable" a.subs
Substitution2: "'sinf' Scientific Inferiors in Latin lookup 18 subtable" a.subs
AlternateSubs2: "'aalt' Access All Alternates in Latin lookup 1 subtable" ordfeminine a.sups a.subs a.sc
EndChar

StartChar: aturn
Encoding: 592 592 540
Width: 1105
GlyphClass: 2
Flags: W
AnchorPoint: "Anchor-4" 142 1087 basechar 0
AnchorPoint: "Anchor-1" 596 1087 basechar 0
AnchorPoint: "Anchor-0" 588 0 basechar 0
LayerCount: 2
Fore
SplineSet
646 1108 m 0,0,1
 751 1108 751 1108 836 1070 c 128,-1,2
 921 1032 921 1032 970.5 958 c 128,-1,3
 1020 884 1020 884 1020 776 c 0,4,5
 1020 683 1020 683 983.5 624.5 c 128,-1,6
 947 566 947 566 885.5 532.5 c 128,-1,7
 824 499 824 499 748 482 c 128,-1,8
 672 465 672 465 593 455 c 0,9,10
 493 442 493 442 432 435 c 128,-1,11
 371 428 371 428 343.5 411.5 c 128,-1,12
 316 395 316 395 316 354 c 2,13,-1
 316 346 l 2,14,15
 316 283 316 283 343 236 c 128,-1,16
 370 189 370 189 422.5 163 c 128,-1,17
 475 137 475 137 550 137 c 0,18,19
 628 137 628 137 684 161.5 c 128,-1,20
 740 186 740 186 775 226.5 c 128,-1,21
 810 267 810 267 820 312 c 1,22,-1
 993 284 l 1,23,24
 970 185 970 185 905.5 118 c 128,-1,25
 841 51 841 51 750 17 c 128,-1,26
 659 -17 659 -17 553 -17 c 0,27,28
 479 -17 479 -17 406 2.5 c 128,-1,29
 333 22 333 22 273.5 65 c 128,-1,30
 214 108 214 108 178 179 c 128,-1,31
 142 250 142 250 142 355 c 2,32,-1
 142 1087 l 1,33,-1
 315 1087 l 1,34,-1
 315 936 l 1,35,-1
 323 936 l 1,36,37
 342 975 342 975 381.5 1015 c 128,-1,38
 421 1055 421 1055 486 1081.5 c 128,-1,39
 551 1108 551 1108 646 1108 c 0,0,1
618 953 m 0,40,41
 517 953 517 953 449.5 914.5 c 128,-1,42
 382 876 382 876 349 815 c 128,-1,43
 316 754 316 754 316 685 c 2,44,-1
 316 542 l 1,45,46
 327 553 327 553 358.5 562 c 128,-1,47
 390 571 390 571 433 579 c 128,-1,48
 476 587 476 587 520.5 593 c 128,-1,49
 565 599 565 599 601 604 c 0,50,51
 664 613 664 613 719.5 632 c 128,-1,52
 775 651 775 651 809 688 c 128,-1,53
 843 725 843 725 843 786 c 0,54,55
 843 840 843 840 814.5 877 c 128,-1,56
 786 914 786 914 736 933.5 c 128,-1,57
 686 953 686 953 618 953 c 0,40,41
EndSplineSet
EndChar

StartChar: ae
Encoding: 230 230 544
Width: 1832
GlyphClass: 2
Flags: W
AnchorPoint: "Anchor-1" 896 1087 basechar 0
LayerCount: 2
Fore
SplineSet
472 -20 m 0,0,1
 357 -20 357 -20 270 20.5 c 128,-1,2
 183 61 183 61 134 135.5 c 128,-1,3
 85 210 85 210 85 311 c 0,4,5
 85 397 85 397 123 458.5 c 128,-1,6
 161 520 161 520 227 559.5 c 128,-1,7
 293 599 293 599 379.5 618.5 c 128,-1,8
 466 638 466 638 564 638 c 2,9,-1
 1648 638 l 1,10,-1
 1570 581 l 1,11,12
 1577 689 1577 689 1541 772.5 c 128,-1,13
 1505 856 1505 856 1434.5 903 c 128,-1,14
 1364 950 1364 950 1266 950 c 0,15,16
 1169 950 1169 950 1097.5 903.5 c 128,-1,17
 1026 857 1026 857 987.5 777.5 c 128,-1,18
 949 698 949 698 949 599 c 2,19,-1
 949 512 l 2,20,21
 949 396 949 396 989 311 c 128,-1,22
 1029 226 1029 226 1103.5 179.5 c 128,-1,23
 1178 133 1178 133 1280 133 c 0,24,25
 1351 133 1351 133 1406.5 154.5 c 128,-1,26
 1462 176 1462 176 1500.5 216 c 128,-1,27
 1539 256 1539 256 1558 312 c 1,28,-1
 1730 290 l 1,29,30
 1707 197 1707 197 1644.5 126.5 c 128,-1,31
 1582 56 1582 56 1489 16 c 128,-1,32
 1396 -24 1396 -24 1280 -24 c 0,33,34
 1162 -24 1162 -24 1068.5 16.5 c 128,-1,35
 975 57 975 57 912.5 130 c 128,-1,36
 850 203 850 203 823 300 c 1,37,-1
 838 806 l 1,38,39
 874 898 874 898 935.5 965 c 128,-1,40
 997 1032 997 1032 1080.5 1069 c 128,-1,41
 1164 1106 1164 1106 1266 1106 c 0,42,43
 1366 1106 1366 1106 1453 1071.5 c 128,-1,44
 1540 1037 1540 1037 1606.5 967 c 128,-1,45
 1673 897 1673 897 1710.5 793 c 128,-1,46
 1748 689 1748 689 1748 550 c 2,47,-1
 1748 489 l 1,48,-1
 565 489 l 2,49,50
 475 489 475 489 407 468.5 c 128,-1,51
 339 448 339 448 301 407.5 c 128,-1,52
 263 367 263 367 263 306 c 0,53,54
 263 221 263 221 325 178.5 c 128,-1,55
 387 136 387 136 487 136 c 0,56,57
 589 136 589 136 656 173.5 c 128,-1,58
 723 211 723 211 755.5 272.5 c 128,-1,59
 788 334 788 334 788 402 c 2,60,-1
 788 742 l 2,61,62
 788 805 788 805 761.5 852 c 128,-1,63
 735 899 735 899 683 924.5 c 128,-1,64
 631 950 631 950 555 950 c 256,65,66
 479 950 479 950 422 925.5 c 128,-1,67
 365 901 365 901 330.5 861 c 128,-1,68
 296 821 296 821 285 775 c 1,69,-1
 112 804 l 1,70,71
 136 903 136 903 200 969.5 c 128,-1,72
 264 1036 264 1036 355.5 1070 c 128,-1,73
 447 1104 447 1104 553 1104 c 0,74,75
 647 1104 647 1104 727 1073.5 c 128,-1,76
 807 1043 807 1043 861.5 977.5 c 128,-1,77
 916 912 916 912 932 806 c 1,78,-1
 902 217 l 1,79,-1
 884 217 l 1,80,81
 865 163 865 163 827 119.5 c 128,-1,82
 789 76 789 76 735 45 c 128,-1,83
 681 14 681 14 614.5 -3 c 128,-1,84
 548 -20 548 -20 472 -20 c 0,0,1
EndSplineSet
EndChar

StartChar: a.1
Encoding: 57388 57388 548
Width: 1207
GlyphClass: 2
Flags: W
AnchorPoint: "Anchor-4" 1065 0 basechar 0
AnchorPoint: "Anchor-1" 587 1087 basechar 0
AnchorPoint: "Anchor-0" 586 0 basechar 0
LayerCount: 2
Fore
SplineSet
553 -22 m 0,0,1
 416 -22 416 -22 311 48.5 c 128,-1,2
 206 119 206 119 147 245.5 c 128,-1,3
 88 372 88 372 88 542 c 256,4,5
 88 712 88 712 147 838.5 c 128,-1,6
 206 965 206 965 311.5 1034.5 c 128,-1,7
 417 1104 417 1104 555 1104 c 0,8,9
 644 1104 644 1104 707.5 1076.5 c 128,-1,10
 771 1049 771 1049 814 1006.5 c 128,-1,11
 857 964 857 964 883 920 c 1,12,-1
 892 920 l 1,13,-1
 892 1087 l 1,14,-1
 1065 1087 l 1,15,-1
 1065 0 l 1,16,-1
 892 0 l 1,17,-1
 892 167 l 1,18,-1
 883 167 l 1,19,20
 855 121 855 121 811.5 77.5 c 128,-1,21
 768 34 768 34 704.5 6 c 128,-1,22
 641 -22 641 -22 553 -22 c 0,0,1
581 135 m 0,23,24
 681 135 681 135 752 186.5 c 128,-1,25
 823 238 823 238 860.5 330 c 128,-1,26
 898 422 898 422 898 543 c 0,27,28
 898 665 898 665 861 756 c 128,-1,29
 824 847 824 847 753 897.5 c 128,-1,30
 682 948 682 948 581 948 c 0,31,32
 483 948 483 948 412 898 c 128,-1,33
 341 848 341 848 303.5 757.5 c 128,-1,34
 266 667 266 667 266 543 c 0,35,36
 266 420 266 420 304 328.5 c 128,-1,37
 342 237 342 237 412.5 186 c 128,-1,38
 483 135 483 135 581 135 c 0,23,24
EndSplineSet
EndChar

StartChar: b
Encoding: 98 98 579
Width: 1206
GlyphClass: 2
Flags: W
AnchorPoint: "Anchor-1" 658 1283 basechar 0
AnchorPoint: "Anchor-0" 634 0 basechar 0
LayerCount: 2
Fore
SplineSet
653 -22 m 0,0,1
 566 -22 566 -22 502.5 6 c 128,-1,2
 439 34 439 34 395.5 77.5 c 128,-1,3
 352 121 352 121 323 167 c 1,4,-1
 312 167 l 1,5,-1
 312 0 l 1,6,-1
 142 0 l 1,7,-1
 142 1490 l 1,8,-1
 317 1490 l 1,9,-1
 317 920 l 1,10,-1
 325 920 l 1,11,12
 352 964 352 964 394.5 1006.5 c 128,-1,13
 437 1049 437 1049 500.5 1076.5 c 128,-1,14
 564 1104 564 1104 652 1104 c 0,15,16
 791 1104 791 1104 896 1034.5 c 128,-1,17
 1001 965 1001 965 1059.5 838.5 c 128,-1,18
 1118 712 1118 712 1118 542 c 256,19,20
 1118 372 1118 372 1059.5 245.5 c 128,-1,21
 1001 119 1001 119 896.5 48.5 c 128,-1,22
 792 -22 792 -22 653 -22 c 0,0,1
626 135 m 256,23,24
 725 135 725 135 795 186 c 128,-1,25
 865 237 865 237 903 328.5 c 128,-1,26
 941 420 941 420 941 543 c 256,27,28
 941 666 941 666 903.5 757 c 128,-1,29
 866 848 866 848 795.5 898 c 128,-1,30
 725 948 725 948 626 948 c 0,31,32
 526 948 526 948 455 897.5 c 128,-1,33
 384 847 384 847 346.5 756 c 128,-1,34
 309 665 309 665 309 543 c 0,35,36
 309 422 309 422 346.5 330 c 128,-1,37
 384 238 384 238 455.5 186.5 c 128,-1,38
 527 135 527 135 626 135 c 256,23,24
EndSplineSet
Substitution2: "'sups' Superscript in Latin lookup 39 subtable" b.sups
Substitution2: "'subs' Subscript in Latin lookup 38 subtable" b.subs
Substitution2: "'sinf' Scientific Inferiors in Latin lookup 18 subtable" b.subs
AlternateSubs2: "'aalt' Access All Alternates in Latin lookup 1 subtable" b.sups b.subs
EndChar

StartChar: uni0183
Encoding: 387 387 581
Width: 1206
GlyphClass: 2
Flags: W
AnchorPoint: "Anchor-1" 658 1283 basechar 0
AnchorPoint: "Anchor-0" 634 0 basechar 0
LayerCount: 2
Fore
SplineSet
233 1338 m 1,0,-1
 142 1490 l 1,1,-1
 970 1490 l 1,2,-1
 970 1338 l 1,3,-1
 233 1338 l 1,0,-1
653 -22 m 0,4,5
 566 -22 566 -22 502.5 6 c 128,-1,6
 439 34 439 34 395.5 77.5 c 128,-1,7
 352 121 352 121 323 167 c 1,8,-1
 312 167 l 1,9,-1
 312 0 l 1,10,-1
 142 0 l 1,11,-1
 142 1490 l 1,12,-1
 317 1490 l 1,13,-1
 317 920 l 1,14,-1
 325 920 l 1,15,16
 352 964 352 964 394.5 1006.5 c 128,-1,17
 437 1049 437 1049 500.5 1076.5 c 128,-1,18
 564 1104 564 1104 652 1104 c 0,19,20
 791 1104 791 1104 896 1034.5 c 128,-1,21
 1001 965 1001 965 1059.5 838.5 c 128,-1,22
 1118 712 1118 712 1118 542 c 256,23,24
 1118 372 1118 372 1059.5 245.5 c 128,-1,25
 1001 119 1001 119 896.5 48.5 c 128,-1,26
 792 -22 792 -22 653 -22 c 0,4,5
626 135 m 256,27,28
 725 135 725 135 795 186 c 128,-1,29
 865 237 865 237 903 328.5 c 128,-1,30
 941 420 941 420 941 543 c 256,31,32
 941 666 941 666 903.5 757 c 128,-1,33
 866 848 866 848 795.5 898 c 128,-1,34
 725 948 725 948 626 948 c 0,35,36
 526 948 526 948 455 897.5 c 128,-1,37
 384 847 384 847 346.5 756 c 128,-1,38
 309 665 309 665 309 543 c 0,39,40
 309 422 309 422 346.5 330 c 128,-1,41
 384 238 384 238 455.5 186.5 c 128,-1,42
 527 135 527 135 626 135 c 256,27,28
EndSplineSet
EndChar

StartChar: uni0253
Encoding: 595 595 582
Width: 1202
GlyphClass: 2
Flags: W
AnchorPoint: "Anchor-1" 395 1490 basechar 0
AnchorPoint: "Anchor-0" 645 0 basechar 0
LayerCount: 2
Fore
SplineSet
648 -22 m 0,0,1
 561 -22 561 -22 497.5 6 c 128,-1,2
 434 34 434 34 390.5 77.5 c 128,-1,3
 347 121 347 121 318 166 c 1,4,-1
 307 166 l 1,5,-1
 307 0 l 1,6,-1
 142 0 l 1,7,-1
 142 1087 l 1,8,-1
 312 1087 l 1,9,-1
 312 920 l 1,10,-1
 320 920 l 1,11,12
 347 964 347 964 389.5 1006.5 c 128,-1,13
 432 1049 432 1049 495.5 1076.5 c 128,-1,14
 559 1104 559 1104 647 1104 c 0,15,16
 787 1104 787 1104 892 1034.5 c 128,-1,17
 997 965 997 965 1055.5 838.5 c 128,-1,18
 1114 712 1114 712 1114 542 c 0,19,20
 1114 373 1114 373 1055.5 246 c 128,-1,21
 997 119 997 119 892 48.5 c 128,-1,22
 787 -22 787 -22 648 -22 c 0,0,1
624 132 m 256,23,24
 724 132 724 132 795 183 c 128,-1,25
 866 234 866 234 904 326.5 c 128,-1,26
 942 419 942 419 942 543 c 256,27,28
 942 667 942 667 904 758.5 c 128,-1,29
 866 850 866 850 795.5 900.5 c 128,-1,30
 725 951 725 951 624 951 c 256,31,32
 523 951 523 951 451.5 900.5 c 128,-1,33
 380 850 380 850 342 758 c 128,-1,34
 304 666 304 666 304 543 c 0,35,36
 304 421 304 421 342 328 c 128,-1,37
 380 235 380 235 452 183.5 c 128,-1,38
 524 132 524 132 624 132 c 256,23,24
142 871 m 1,39,-1
 142 1246 l 2,40,41
 142 1369 142 1369 218 1433 c 128,-1,42
 294 1497 294 1497 434 1497 c 0,43,44
 468 1497 468 1497 493 1496 c 128,-1,45
 518 1495 518 1495 536 1493 c 1,46,-1
 536 1344 l 1,47,48
 521 1345 521 1345 496 1345.5 c 128,-1,49
 471 1346 471 1346 457 1346 c 0,50,51
 383 1346 383 1346 350 1322 c 128,-1,52
 317 1298 317 1298 317 1246 c 2,53,-1
 317 871 l 1,54,-1
 142 871 l 1,39,-1
EndSplineSet
EndChar

StartChar: thorn
Encoding: 254 254 586
Width: 1206
Flags: W
LayerCount: 2
Fore
SplineSet
653 -22 m 0,0,1
 566 -22 566 -22 503 6 c 128,-1,2
 440 34 440 34 397 77.5 c 128,-1,3
 354 121 354 121 325 167 c 1,4,-1
 317 167 l 1,5,-1
 317 -418 l 1,6,-1
 142 -418 l 1,7,-1
 142 1490 l 1,8,-1
 317 1490 l 1,9,-1
 317 920 l 1,10,-1
 325 920 l 1,11,12
 352 964 352 964 394.5 1006.5 c 128,-1,13
 437 1049 437 1049 500.5 1076.5 c 128,-1,14
 564 1104 564 1104 652 1104 c 0,15,16
 791 1104 791 1104 896 1034.5 c 128,-1,17
 1001 965 1001 965 1059.5 838.5 c 128,-1,18
 1118 712 1118 712 1118 542 c 256,19,20
 1118 372 1118 372 1059.5 245.5 c 128,-1,21
 1001 119 1001 119 896.5 48.5 c 128,-1,22
 792 -22 792 -22 653 -22 c 0,0,1
626 135 m 256,23,24
 725 135 725 135 795 186 c 128,-1,25
 865 237 865 237 903 328.5 c 128,-1,26
 941 420 941 420 941 543 c 256,27,28
 941 666 941 666 903.5 757 c 128,-1,29
 866 848 866 848 795.5 898 c 128,-1,30
 725 948 725 948 626 948 c 0,31,32
 526 948 526 948 455 897.5 c 128,-1,33
 384 847 384 847 346.5 756 c 128,-1,34
 309 665 309 665 309 543 c 0,35,36
 309 422 309 422 346.5 330 c 128,-1,37
 384 238 384 238 455.5 186.5 c 128,-1,38
 527 135 527 135 626 135 c 256,23,24
EndSplineSet
EndChar

StartChar: c
Encoding: 99 99 587
Width: 1121
GlyphClass: 2
Flags: W
AnchorPoint: "Anchor-3" 588 0 basechar 0
AnchorPoint: "Anchor-1" 588 1087 basechar 0
AnchorPoint: "Anchor-0" 588 0 basechar 0
LayerCount: 2
Fore
SplineSet
588 -24 m 0,0,1
 439 -24 439 -24 326.5 47.5 c 128,-1,2
 214 119 214 119 151 246 c 128,-1,3
 88 373 88 373 88 539 c 0,4,5
 88 708 88 708 151 835.5 c 128,-1,6
 214 963 214 963 326.5 1034.5 c 128,-1,7
 439 1106 439 1106 588 1106 c 0,8,9
 673 1106 673 1106 747.5 1082 c 128,-1,10
 822 1058 822 1058 881 1013.5 c 128,-1,11
 940 969 940 969 980 906.5 c 128,-1,12
 1020 844 1020 844 1037 768 c 1,13,-1
 864 743 l 1,14,15
 854 788 854 788 830.5 825.5 c 128,-1,16
 807 863 807 863 772 890.5 c 128,-1,17
 737 918 737 918 691 933.5 c 128,-1,18
 645 949 645 949 588 949 c 0,19,20
 482 949 482 949 410.5 895 c 128,-1,21
 339 841 339 841 302.5 748.5 c 128,-1,22
 266 656 266 656 266 539 c 0,23,24
 266 424 266 424 302.5 332.5 c 128,-1,25
 339 241 339 241 410.5 187.5 c 128,-1,26
 482 134 482 134 588 134 c 0,27,28
 645 134 645 134 691 149 c 128,-1,29
 737 164 737 164 771.5 192 c 128,-1,30
 806 220 806 220 829.5 258.5 c 128,-1,31
 853 297 853 297 865 344 c 1,32,-1
 1039 319 l 1,33,34
 1022 243 1022 243 982 180 c 128,-1,35
 942 117 942 117 882.5 71.5 c 128,-1,36
 823 26 823 26 748 1 c 128,-1,37
 673 -24 673 -24 588 -24 c 0,0,1
EndSplineSet
Substitution2: "'sups' Superscript in Latin lookup 39 subtable" c.sups
Substitution2: "'subs' Subscript in Latin lookup 38 subtable" c.subs
Substitution2: "'sinf' Scientific Inferiors in Latin lookup 18 subtable" c.subs
AlternateSubs2: "'aalt' Access All Alternates in Latin lookup 1 subtable" c.sups c.subs
EndChar

StartChar: uni023C
Encoding: 572 572 588
Width: 1121
GlyphClass: 2
Flags: W
AnchorPoint: "Anchor-3" 588 0 basechar 0
AnchorPoint: "Anchor-1" 588 1087 basechar 0
AnchorPoint: "Anchor-0" 588 0 basechar 0
LayerCount: 2
Fore
SplineSet
135 -418 m 1,0,-1
 874 1490 l 1,1,-1
 1012 1490 l 1,2,-1
 274 -418 l 1,3,-1
 135 -418 l 1,0,-1
588 -24 m 0,4,5
 439 -24 439 -24 326.5 47.5 c 128,-1,6
 214 119 214 119 151 246 c 128,-1,7
 88 373 88 373 88 539 c 0,8,9
 88 708 88 708 151 835.5 c 128,-1,10
 214 963 214 963 326.5 1034.5 c 128,-1,11
 439 1106 439 1106 588 1106 c 0,12,13
 673 1106 673 1106 747.5 1082 c 128,-1,14
 822 1058 822 1058 881 1013.5 c 128,-1,15
 940 969 940 969 980 906.5 c 128,-1,16
 1020 844 1020 844 1037 768 c 1,17,-1
 864 743 l 1,18,19
 854 788 854 788 830.5 825.5 c 128,-1,20
 807 863 807 863 772 890.5 c 128,-1,21
 737 918 737 918 691 933.5 c 128,-1,22
 645 949 645 949 588 949 c 0,23,24
 482 949 482 949 410.5 895 c 128,-1,25
 339 841 339 841 302.5 748.5 c 128,-1,26
 266 656 266 656 266 539 c 0,27,28
 266 424 266 424 302.5 332.5 c 128,-1,29
 339 241 339 241 410.5 187.5 c 128,-1,30
 482 134 482 134 588 134 c 0,31,32
 645 134 645 134 691 149 c 128,-1,33
 737 164 737 164 771.5 192 c 128,-1,34
 806 220 806 220 829.5 258.5 c 128,-1,35
 853 297 853 297 865 344 c 1,36,-1
 1039 319 l 1,37,38
 1022 243 1022 243 982 180 c 128,-1,39
 942 117 942 117 882.5 71.5 c 128,-1,40
 823 26 823 26 748 1 c 128,-1,41
 673 -24 673 -24 588 -24 c 0,4,5
EndSplineSet
Ligature2: "'ccmp' Glyph Composition/Decomposition in Latin lookup 6 subtable" c uni0338
EndChar

StartChar: uni0188
Encoding: 392 392 589
Width: 1230
GlyphClass: 2
Flags: W
AnchorPoint: "Anchor-3" 588 0 basechar 0
AnchorPoint: "Anchor-1" 588 1087 basechar 0
AnchorPoint: "Anchor-0" 588 0 basechar 0
LayerCount: 2
Fore
SplineSet
887 754 m 1,0,-1
 844 999 l 1,1,2
 809 1146 809 1146 876 1216.5 c 128,-1,3
 943 1287 943 1287 1088 1287 c 0,4,5
 1122 1287 1122 1287 1145 1286 c 128,-1,6
 1168 1285 1168 1285 1185 1283 c 1,7,-1
 1185 1135 l 1,8,9
 1166 1137 1166 1137 1137.5 1137.5 c 128,-1,10
 1109 1138 1109 1138 1093 1138 c 0,11,12
 1035 1138 1035 1138 1012 1110 c 128,-1,13
 989 1082 989 1082 1001 1021 c 2,14,-1
 1037 768 l 1,15,-1
 887 754 l 1,0,-1
588 -24 m 0,16,17
 439 -24 439 -24 326.5 47.5 c 128,-1,18
 214 119 214 119 151 246 c 128,-1,19
 88 373 88 373 88 539 c 0,20,21
 88 708 88 708 151 835.5 c 128,-1,22
 214 963 214 963 326.5 1034.5 c 128,-1,23
 439 1106 439 1106 588 1106 c 0,24,25
 673 1106 673 1106 747.5 1082 c 128,-1,26
 822 1058 822 1058 881 1013.5 c 128,-1,27
 940 969 940 969 980 906.5 c 128,-1,28
 1020 844 1020 844 1037 768 c 1,29,-1
 864 743 l 1,30,31
 854 788 854 788 830.5 825.5 c 128,-1,32
 807 863 807 863 772 890.5 c 128,-1,33
 737 918 737 918 691 933.5 c 128,-1,34
 645 949 645 949 588 949 c 0,35,36
 482 949 482 949 410.5 895 c 128,-1,37
 339 841 339 841 302.5 748.5 c 128,-1,38
 266 656 266 656 266 539 c 0,39,40
 266 424 266 424 302.5 332.5 c 128,-1,41
 339 241 339 241 410.5 187.5 c 128,-1,42
 482 134 482 134 588 134 c 0,43,44
 645 134 645 134 691 149 c 128,-1,45
 737 164 737 164 771.5 192 c 128,-1,46
 806 220 806 220 829.5 258.5 c 128,-1,47
 853 297 853 297 865 344 c 1,48,-1
 1039 319 l 1,49,50
 1022 243 1022 243 982 180 c 128,-1,51
 942 117 942 117 882.5 71.5 c 128,-1,52
 823 26 823 26 748 1 c 128,-1,53
 673 -24 673 -24 588 -24 c 0,16,17
EndSplineSet
EndChar

StartChar: d
Encoding: 100 100 598
Width: 1206
GlyphClass: 2
Flags: W
AnchorPoint: "Anchor-1" 548 1283 basechar 0
LayerCount: 2
Fore
SplineSet
554 -22 m 0,0,1
 416 -22 416 -22 310.5 48.5 c 128,-1,2
 205 119 205 119 146.5 245.5 c 128,-1,3
 88 372 88 372 88 542 c 256,4,5
 88 712 88 712 147 838.5 c 128,-1,6
 206 965 206 965 311 1034.5 c 128,-1,7
 416 1104 416 1104 554 1104 c 0,8,9
 643 1104 643 1104 706.5 1076.5 c 128,-1,10
 770 1049 770 1049 812.5 1006.5 c 128,-1,11
 855 964 855 964 881 920 c 1,12,-1
 889 920 l 1,13,-1
 889 1490 l 1,14,-1
 1064 1490 l 1,15,-1
 1064 0 l 1,16,-1
 894 0 l 1,17,-1
 894 167 l 1,18,-1
 883 167 l 1,19,20
 855 121 855 121 811.5 77.5 c 128,-1,21
 768 34 768 34 705 6 c 128,-1,22
 642 -22 642 -22 554 -22 c 0,0,1
580 135 m 0,23,24
 680 135 680 135 751 186.5 c 128,-1,25
 822 238 822 238 859.5 330 c 128,-1,26
 897 422 897 422 897 543 c 0,27,28
 897 665 897 665 860 756 c 128,-1,29
 823 847 823 847 752 897.5 c 128,-1,30
 681 948 681 948 580 948 c 0,31,32
 482 948 482 948 411.5 898 c 128,-1,33
 341 848 341 848 303.5 757 c 128,-1,34
 266 666 266 666 266 543 c 256,35,36
 266 420 266 420 303.5 328.5 c 128,-1,37
 341 237 341 237 412 186 c 128,-1,38
 483 135 483 135 580 135 c 0,23,24
EndSplineSet
Substitution2: "'sups' Superscript in Latin lookup 39 subtable" d.sups
Substitution2: "'subs' Subscript in Latin lookup 38 subtable" d.subs
Substitution2: "'sinf' Scientific Inferiors in Latin lookup 18 subtable" d.subs
AlternateSubs2: "'aalt' Access All Alternates in Latin lookup 1 subtable" d.sups d.subs
EndChar

StartChar: drthook
Encoding: 598 598 600
Width: 1206
GlyphClass: 2
Flags: W
AnchorPoint: "Anchor-1" 548 1283 basechar 0
LayerCount: 2
Fore
SplineSet
1172 -422 m 0,0,1
 1032 -422 1032 -422 959.5 -357.5 c 128,-1,2
 887 -293 887 -293 887 -170 c 2,3,-1
 887 185 l 1,4,-1
 1060 185 l 1,5,-1
 1060 -170 l 2,6,7
 1060 -223 1060 -223 1090.5 -247 c 128,-1,8
 1121 -271 1121 -271 1195 -271 c 0,9,10
 1209 -271 1209 -271 1234 -270.5 c 128,-1,11
 1259 -270 1259 -270 1274 -269 c 1,12,-1
 1274 -418 l 1,13,14
 1256 -420 1256 -420 1231 -421 c 128,-1,15
 1206 -422 1206 -422 1172 -422 c 0,0,1
554 -22 m 0,16,17
 416 -22 416 -22 310.5 48.5 c 128,-1,18
 205 119 205 119 146.5 245.5 c 128,-1,19
 88 372 88 372 88 542 c 256,20,21
 88 712 88 712 147 838.5 c 128,-1,22
 206 965 206 965 311 1034.5 c 128,-1,23
 416 1104 416 1104 554 1104 c 0,24,25
 643 1104 643 1104 706.5 1076.5 c 128,-1,26
 770 1049 770 1049 812.5 1006.5 c 128,-1,27
 855 964 855 964 881 920 c 1,28,-1
 889 920 l 1,29,-1
 889 1490 l 1,30,-1
 1064 1490 l 1,31,-1
 1064 0 l 1,32,-1
 894 0 l 1,33,-1
 894 167 l 1,34,-1
 883 167 l 1,35,36
 855 121 855 121 811.5 77.5 c 128,-1,37
 768 34 768 34 705 6 c 128,-1,38
 642 -22 642 -22 554 -22 c 0,16,17
580 135 m 0,39,40
 680 135 680 135 751 186.5 c 128,-1,41
 822 238 822 238 859.5 330 c 128,-1,42
 897 422 897 422 897 543 c 0,43,44
 897 665 897 665 860 756 c 128,-1,45
 823 847 823 847 752 897.5 c 128,-1,46
 681 948 681 948 580 948 c 0,47,48
 482 948 482 948 411.5 898 c 128,-1,49
 341 848 341 848 303.5 757 c 128,-1,50
 266 666 266 666 266 543 c 256,51,52
 266 420 266 420 303.5 328.5 c 128,-1,53
 341 237 341 237 412 186 c 128,-1,54
 483 135 483 135 580 135 c 0,39,40
EndSplineSet
EndChar

StartChar: uni0257
Encoding: 599 599 601
Width: 1207
GlyphClass: 2
Flags: W
AnchorPoint: "Anchor-4" 1065 0 basechar 0
AnchorPoint: "Anchor-1" 587 1087 basechar 0
AnchorPoint: "Anchor-0" 586 0 basechar 0
LayerCount: 2
Fore
SplineSet
890 871 m 1,0,-1
 890 1246 l 2,1,2
 890 1369 890 1369 966 1433 c 128,-1,3
 1042 1497 1042 1497 1182 1497 c 0,4,5
 1216 1497 1216 1497 1241 1496 c 128,-1,6
 1266 1495 1266 1495 1284 1493 c 1,7,-1
 1284 1344 l 1,8,9
 1269 1345 1269 1345 1244 1345.5 c 128,-1,10
 1219 1346 1219 1346 1205 1346 c 0,11,12
 1131 1346 1131 1346 1098 1322 c 128,-1,13
 1065 1298 1065 1298 1065 1246 c 2,14,-1
 1065 871 l 1,15,-1
 890 871 l 1,0,-1
553 -22 m 0,16,17
 416 -22 416 -22 311 48.5 c 128,-1,18
 206 119 206 119 147 245.5 c 128,-1,19
 88 372 88 372 88 542 c 256,20,21
 88 712 88 712 147 838.5 c 128,-1,22
 206 965 206 965 311.5 1034.5 c 128,-1,23
 417 1104 417 1104 555 1104 c 0,24,25
 644 1104 644 1104 707.5 1076.5 c 128,-1,26
 771 1049 771 1049 814 1006.5 c 128,-1,27
 857 964 857 964 883 920 c 1,28,-1
 892 920 l 1,29,-1
 892 1087 l 1,30,-1
 1065 1087 l 1,31,-1
 1065 0 l 1,32,-1
 892 0 l 1,33,-1
 892 167 l 1,34,-1
 883 167 l 1,35,36
 855 121 855 121 811.5 77.5 c 128,-1,37
 768 34 768 34 704.5 6 c 128,-1,38
 641 -22 641 -22 553 -22 c 0,16,17
581 135 m 0,39,40
 681 135 681 135 752 186.5 c 128,-1,41
 823 238 823 238 860.5 330 c 128,-1,42
 898 422 898 422 898 543 c 0,43,44
 898 665 898 665 861 756 c 128,-1,45
 824 847 824 847 753 897.5 c 128,-1,46
 682 948 682 948 581 948 c 0,47,48
 483 948 483 948 412 898 c 128,-1,49
 341 848 341 848 303.5 757.5 c 128,-1,50
 266 667 266 667 266 543 c 0,51,52
 266 420 266 420 304 328.5 c 128,-1,53
 342 237 342 237 412.5 186 c 128,-1,54
 483 135 483 135 581 135 c 0,39,40
EndSplineSet
EndChar

StartChar: uni018C
Encoding: 396 396 602
Width: 1206
GlyphClass: 2
Flags: W
AnchorPoint: "Anchor-1" 548 1283 basechar 0
LayerCount: 2
Fore
SplineSet
974 1338 m 1,0,-1
 237 1338 l 1,1,-1
 237 1490 l 1,2,-1
 1064 1490 l 1,3,-1
 974 1338 l 1,0,-1
554 -22 m 0,4,5
 416 -22 416 -22 310.5 48.5 c 128,-1,6
 205 119 205 119 146.5 245.5 c 128,-1,7
 88 372 88 372 88 542 c 256,8,9
 88 712 88 712 147 838.5 c 128,-1,10
 206 965 206 965 311 1034.5 c 128,-1,11
 416 1104 416 1104 554 1104 c 0,12,13
 643 1104 643 1104 706.5 1076.5 c 128,-1,14
 770 1049 770 1049 812.5 1006.5 c 128,-1,15
 855 964 855 964 881 920 c 1,16,-1
 889 920 l 1,17,-1
 889 1490 l 1,18,-1
 1064 1490 l 1,19,-1
 1064 0 l 1,20,-1
 894 0 l 1,21,-1
 894 167 l 1,22,-1
 883 167 l 1,23,24
 855 121 855 121 811.5 77.5 c 128,-1,25
 768 34 768 34 705 6 c 128,-1,26
 642 -22 642 -22 554 -22 c 0,4,5
580 135 m 0,27,28
 680 135 680 135 751 186.5 c 128,-1,29
 822 238 822 238 859.5 330 c 128,-1,30
 897 422 897 422 897 543 c 0,31,32
 897 665 897 665 860 756 c 128,-1,33
 823 847 823 847 752 897.5 c 128,-1,34
 681 948 681 948 580 948 c 0,35,36
 482 948 482 948 411.5 898 c 128,-1,37
 341 848 341 848 303.5 757 c 128,-1,38
 266 666 266 666 266 543 c 256,39,40
 266 420 266 420 303.5 328.5 c 128,-1,41
 341 237 341 237 412 186 c 128,-1,42
 483 135 483 135 580 135 c 0,27,28
EndSplineSet
EndChar

StartChar: uni0221
Encoding: 545 545 603
Width: 1526
GlyphClass: 2
Flags: W
AnchorPoint: "Anchor-1" 548 1283 basechar 0
LayerCount: 2
Fore
SplineSet
1197 -418 m 0,0,1
 1084 -418 1084 -418 1015.5 -370.5 c 128,-1,2
 947 -323 947 -323 916 -250 c 128,-1,3
 885 -177 885 -177 885 -102 c 2,4,-1
 885 243 l 1,5,-1
 1060 243 l 1,6,-1
 1060 -120 l 2,7,8
 1060 -192 1060 -192 1101.5 -230 c 128,-1,9
 1143 -268 1143 -268 1197 -268 c 0,10,11
 1249 -268 1249 -268 1280.5 -235.5 c 128,-1,12
 1312 -203 1312 -203 1312 -154 c 0,13,14
 1312 -110 1312 -110 1287 -79 c 128,-1,15
 1262 -48 1262 -48 1216 -41 c 0,16,17
 1181 -35 1181 -35 1150 -42 c 128,-1,18
 1119 -49 1119 -49 1092.5 -65.5 c 128,-1,19
 1066 -82 1066 -82 1042 -106 c 2,20,-1
 767 -383 l 1,21,-1
 656 -266 l 1,22,-1
 886 -32 l 2,23,24
 956 38 956 38 1042.5 74.5 c 128,-1,25
 1129 111 1129 111 1210 111 c 0,26,27
 1332 111 1332 111 1413 38.5 c 128,-1,28
 1494 -34 1494 -34 1494 -154 c 0,29,30
 1494 -272 1494 -272 1413.5 -345 c 128,-1,31
 1333 -418 1333 -418 1197 -418 c 0,0,1
554 -22 m 0,32,33
 416 -22 416 -22 310.5 48.5 c 128,-1,34
 205 119 205 119 146.5 245.5 c 128,-1,35
 88 372 88 372 88 542 c 256,36,37
 88 712 88 712 147 838.5 c 128,-1,38
 206 965 206 965 311 1034.5 c 128,-1,39
 416 1104 416 1104 554 1104 c 0,40,41
 643 1104 643 1104 706.5 1076.5 c 128,-1,42
 770 1049 770 1049 812.5 1006.5 c 128,-1,43
 855 964 855 964 881 920 c 1,44,-1
 889 920 l 1,45,-1
 889 1490 l 1,46,-1
 1064 1490 l 1,47,-1
 1064 0 l 1,48,-1
 894 0 l 1,49,-1
 894 167 l 1,50,-1
 883 167 l 1,51,52
 855 121 855 121 811.5 77.5 c 128,-1,53
 768 34 768 34 705 6 c 128,-1,54
 642 -22 642 -22 554 -22 c 0,32,33
580 135 m 0,55,56
 680 135 680 135 751 186.5 c 128,-1,57
 822 238 822 238 859.5 330 c 128,-1,58
 897 422 897 422 897 543 c 0,59,60
 897 665 897 665 860 756 c 128,-1,61
 823 847 823 847 752 897.5 c 128,-1,62
 681 948 681 948 580 948 c 0,63,64
 482 948 482 948 411.5 898 c 128,-1,65
 341 848 341 848 303.5 757 c 128,-1,66
 266 666 266 666 266 543 c 256,67,68
 266 420 266 420 303.5 328.5 c 128,-1,69
 341 237 341 237 412 186 c 128,-1,70
 483 135 483 135 580 135 c 0,55,56
EndSplineSet
EndChar

StartChar: uni02A3
Encoding: 675 675 611
Width: 2137
GlyphClass: 2
Flags: W
AnchorPoint: "Anchor-1" 548 1283 basechar 0
LayerCount: 2
Fore
SplineSet
1194 0 m 1,0,-1
 1194 130 l 1,1,-1
 1800 923 l 1,2,-1
 1800 931 l 1,3,-1
 981 931 l 1,4,-1
 981 1087 l 1,5,-1
 2015 1087 l 1,6,-1
 2015 950 l 1,7,-1
 1421 164 l 1,8,-1
 1421 156 l 1,9,-1
 2027 156 l 1,10,-1
 2027 0 l 1,11,-1
 1194 0 l 1,0,-1
554 -22 m 0,12,13
 416 -22 416 -22 310.5 48.5 c 128,-1,14
 205 119 205 119 146.5 245.5 c 128,-1,15
 88 372 88 372 88 542 c 256,16,17
 88 712 88 712 147 838.5 c 128,-1,18
 206 965 206 965 311 1034.5 c 128,-1,19
 416 1104 416 1104 554 1104 c 0,20,21
 643 1104 643 1104 706.5 1076.5 c 128,-1,22
 770 1049 770 1049 812.5 1006.5 c 128,-1,23
 855 964 855 964 881 920 c 1,24,-1
 889 920 l 1,25,-1
 889 1490 l 1,26,-1
 1064 1490 l 1,27,-1
 1064 0 l 1,28,-1
 894 0 l 1,29,-1
 894 167 l 1,30,-1
 883 167 l 1,31,32
 855 121 855 121 811.5 77.5 c 128,-1,33
 768 34 768 34 705 6 c 128,-1,34
 642 -22 642 -22 554 -22 c 0,12,13
580 135 m 0,35,36
 680 135 680 135 751 186.5 c 128,-1,37
 822 238 822 238 859.5 330 c 128,-1,38
 897 422 897 422 897 543 c 0,39,40
 897 665 897 665 860 756 c 128,-1,41
 823 847 823 847 752 897.5 c 128,-1,42
 681 948 681 948 580 948 c 0,43,44
 482 948 482 948 411.5 898 c 128,-1,45
 341 848 341 848 303.5 757 c 128,-1,46
 266 666 266 666 266 543 c 256,47,48
 266 420 266 420 303.5 328.5 c 128,-1,49
 341 237 341 237 412 186 c 128,-1,50
 483 135 483 135 580 135 c 0,35,36
EndSplineSet
EndChar

StartChar: dyogh
Encoding: 676 676 613
Width: 2016
GlyphClass: 2
Flags: W
AnchorPoint: "Anchor-1" 548 1283 basechar 0
LayerCount: 2
Fore
SplineSet
1075 -88 m 1,0,1
 1091 -148 1091 -148 1137.5 -189.5 c 128,-1,2
 1184 -231 1184 -231 1252 -253 c 128,-1,3
 1320 -275 1320 -275 1397 -275 c 0,4,5
 1496 -275 1496 -275 1571.5 -241 c 128,-1,6
 1647 -207 1647 -207 1690 -143 c 128,-1,7
 1733 -79 1733 -79 1733 11 c 0,8,9
 1733 99 1733 99 1692 167 c 128,-1,10
 1651 235 1651 235 1567.5 273.5 c 128,-1,11
 1484 312 1484 312 1354 312 c 2,12,-1
 1236 312 l 1,13,-1
 1236 458 l 1,14,-1
 1616 921 l 1,15,-1
 1616 928 l 1,16,-1
 970 928 l 1,17,-1
 970 1088 l 1,18,-1
 1852 1088 l 1,19,-1
 1852 956 l 1,20,-1
 1442 459 l 1,21,-1
 1442 452 l 1,22,23
 1576 446 1576 446 1682 388 c 128,-1,24
 1788 330 1788 330 1849 233 c 128,-1,25
 1910 136 1910 136 1910 11 c 0,26,27
 1910 -118 1910 -118 1844.5 -218.5 c 128,-1,28
 1779 -319 1779 -319 1663 -376.5 c 128,-1,29
 1547 -434 1547 -434 1397 -434 c 0,30,31
 1272 -434 1272 -434 1164.5 -392.5 c 128,-1,32
 1057 -351 1057 -351 985.5 -273 c 128,-1,33
 914 -195 914 -195 895 -88 c 1,34,-1
 1075 -88 l 1,0,1
554 -22 m 0,35,36
 416 -22 416 -22 310.5 48.5 c 128,-1,37
 205 119 205 119 146.5 245.5 c 128,-1,38
 88 372 88 372 88 542 c 256,39,40
 88 712 88 712 147 838.5 c 128,-1,41
 206 965 206 965 311 1034.5 c 128,-1,42
 416 1104 416 1104 554 1104 c 0,43,44
 643 1104 643 1104 706.5 1076.5 c 128,-1,45
 770 1049 770 1049 812.5 1006.5 c 128,-1,46
 855 964 855 964 881 920 c 1,47,-1
 889 920 l 1,48,-1
 889 1490 l 1,49,-1
 1064 1490 l 1,50,-1
 1064 0 l 1,51,-1
 894 0 l 1,52,-1
 894 167 l 1,53,-1
 883 167 l 1,54,55
 855 121 855 121 811.5 77.5 c 128,-1,56
 768 34 768 34 705 6 c 128,-1,57
 642 -22 642 -22 554 -22 c 0,35,36
580 135 m 0,58,59
 680 135 680 135 751 186.5 c 128,-1,60
 822 238 822 238 859.5 330 c 128,-1,61
 897 422 897 422 897 543 c 0,62,63
 897 665 897 665 860 756 c 128,-1,64
 823 847 823 847 752 897.5 c 128,-1,65
 681 948 681 948 580 948 c 0,66,67
 482 948 482 948 411.5 898 c 128,-1,68
 341 848 341 848 303.5 757 c 128,-1,69
 266 666 266 666 266 543 c 256,70,71
 266 420 266 420 303.5 328.5 c 128,-1,72
 341 237 341 237 412 186 c 128,-1,73
 483 135 483 135 580 135 c 0,58,59
EndSplineSet
EndChar

StartChar: e
Encoding: 101 101 615
Width: 1146
GlyphClass: 2
Flags: W
AnchorPoint: "Anchor-4" 1044 288 basechar 0
AnchorPoint: "Anchor-3" 581 0 basechar 0
AnchorPoint: "Anchor-1" 577 1087 basechar 0
AnchorPoint: "Anchor-0" 577 0 basechar 0
LayerCount: 2
Fore
SplineSet
595 -24 m 0,0,1
 437 -24 437 -24 323.5 47.5 c 128,-1,2
 210 119 210 119 149 246 c 128,-1,3
 88 373 88 373 88 538 c 0,4,5
 88 705 88 705 149.5 833 c 128,-1,6
 211 961 211 961 322 1033.5 c 128,-1,7
 433 1106 433 1106 579 1106 c 0,8,9
 678 1106 678 1106 765.5 1071.5 c 128,-1,10
 853 1037 853 1037 920 967 c 128,-1,11
 987 897 987 897 1024.5 793 c 128,-1,12
 1062 689 1062 689 1062 550 c 2,13,-1
 1062 489 l 1,14,-1
 194 489 l 1,15,-1
 194 638 l 1,16,-1
 966 638 l 1,17,-1
 888 584 l 1,18,19
 888 693 888 693 851.5 775.5 c 128,-1,20
 815 858 815 858 746 904 c 128,-1,21
 677 950 677 950 579 950 c 256,22,23
 481 950 481 950 410.5 903.5 c 128,-1,24
 340 857 340 857 301.5 777.5 c 128,-1,25
 263 698 263 698 263 599 c 2,26,-1
 263 512 l 2,27,28
 263 396 263 396 303.5 310.5 c 128,-1,29
 344 225 344 225 418.5 179 c 128,-1,30
 493 133 493 133 596 133 c 0,31,32
 666 133 666 133 721.5 154.5 c 128,-1,33
 777 176 777 176 815.5 216 c 128,-1,34
 854 256 854 256 872 312 c 1,35,-1
 1044 288 l 1,36,37
 1021 196 1021 196 958.5 125.5 c 128,-1,38
 896 55 896 55 803 15.5 c 128,-1,39
 710 -24 710 -24 595 -24 c 0,0,1
EndSplineSet
Substitution2: "'sups' Superscript in Latin lookup 39 subtable" e.sups
Substitution2: "'subs' Subscript in Latin lookup 38 subtable" e.subs
Substitution2: "'sinf' Scientific Inferiors in Latin lookup 18 subtable" e.subs
AlternateSubs2: "'aalt' Access All Alternates in Latin lookup 1 subtable" e.sups e.subs
EndChar

StartChar: uni0247
Encoding: 583 583 617
Width: 1146
GlyphClass: 2
Flags: W
AnchorPoint: "Anchor-4" 1044 288 basechar 0
AnchorPoint: "Anchor-3" 581 0 basechar 0
AnchorPoint: "Anchor-1" 577 1087 basechar 0
AnchorPoint: "Anchor-0" 577 0 basechar 0
LayerCount: 2
Fore
SplineSet
118 -418 m 1,0,-1
 882 1490 l 1,1,-1
 1020 1490 l 1,2,-1
 258 -418 l 1,3,-1
 118 -418 l 1,0,-1
595 -24 m 0,4,5
 437 -24 437 -24 323.5 47.5 c 128,-1,6
 210 119 210 119 149 246 c 128,-1,7
 88 373 88 373 88 538 c 0,8,9
 88 705 88 705 149.5 833 c 128,-1,10
 211 961 211 961 322 1033.5 c 128,-1,11
 433 1106 433 1106 579 1106 c 0,12,13
 678 1106 678 1106 765.5 1071.5 c 128,-1,14
 853 1037 853 1037 920 967 c 128,-1,15
 987 897 987 897 1024.5 793 c 128,-1,16
 1062 689 1062 689 1062 550 c 2,17,-1
 1062 489 l 1,18,-1
 194 489 l 1,19,-1
 194 638 l 1,20,-1
 966 638 l 1,21,-1
 888 584 l 1,22,23
 888 693 888 693 851.5 775.5 c 128,-1,24
 815 858 815 858 746 904 c 128,-1,25
 677 950 677 950 579 950 c 256,26,27
 481 950 481 950 410.5 903.5 c 128,-1,28
 340 857 340 857 301.5 777.5 c 128,-1,29
 263 698 263 698 263 599 c 2,30,-1
 263 512 l 2,31,32
 263 396 263 396 303.5 310.5 c 128,-1,33
 344 225 344 225 418.5 179 c 128,-1,34
 493 133 493 133 596 133 c 0,35,36
 666 133 666 133 721.5 154.5 c 128,-1,37
 777 176 777 176 815.5 216 c 128,-1,38
 854 256 854 256 872 312 c 1,39,-1
 1044 288 l 1,40,41
 1021 196 1021 196 958.5 125.5 c 128,-1,42
 896 55 896 55 803 15.5 c 128,-1,43
 710 -24 710 -24 595 -24 c 0,4,5
EndSplineSet
EndChar

StartChar: eturn
Encoding: 477 477 646
Width: 1146
GlyphClass: 2
Flags: W
AnchorPoint: "Anchor-4" 768 0 basechar 0
AnchorPoint: "Anchor-3" 602 0 basechar 0
AnchorPoint: "Anchor-1" 600 1087 basechar 0
AnchorPoint: "Anchor-0" 600 0 basechar 0
LayerCount: 2
Fore
SplineSet
551 1111 m 0,0,1
 710 1111 710 1111 823.5 1039.5 c 128,-1,2
 937 968 937 968 997.5 841.5 c 128,-1,3
 1058 715 1058 715 1058 549 c 0,4,5
 1058 384 1058 384 996.5 255.5 c 128,-1,6
 935 127 935 127 824.5 54 c 128,-1,7
 714 -19 714 -19 568 -19 c 0,8,9
 468 -19 468 -19 380.5 16 c 128,-1,10
 293 51 293 51 226.5 120.5 c 128,-1,11
 160 190 160 190 122 294.5 c 128,-1,12
 84 399 84 399 84 538 c 2,13,-1
 84 599 l 1,14,-1
 952 599 l 1,15,-1
 952 450 l 1,16,-1
 180 450 l 1,17,-1
 259 503 l 1,18,19
 259 395 259 395 295.5 312 c 128,-1,20
 332 229 332 229 401 183 c 128,-1,21
 470 137 470 137 568 137 c 0,22,23
 665 137 665 137 736 183.5 c 128,-1,24
 807 230 807 230 845 310 c 128,-1,25
 883 390 883 390 883 489 c 2,26,-1
 883 575 l 2,27,28
 883 693 883 693 843 777.5 c 128,-1,29
 803 862 803 862 728.5 908 c 128,-1,30
 654 954 654 954 551 954 c 0,31,32
 480 954 480 954 424.5 933 c 128,-1,33
 369 912 369 912 331 871.5 c 128,-1,34
 293 831 293 831 274 775 c 1,35,-1
 102 799 l 1,36,37
 125 892 125 892 187.5 962 c 128,-1,38
 250 1032 250 1032 343.5 1071.5 c 128,-1,39
 437 1111 437 1111 551 1111 c 0,0,1
EndSplineSet
EndChar

StartChar: _part.f_base
Encoding: 1114123 -1 647
Width: 714
GlyphClass: 2
Flags: W
AnchorPoint: "Anchor-1" 382 1521 basechar 0
AnchorPoint: "Anchor-0" 304 0 basechar 0
LayerCount: 2
Fore
SplineSet
216 0 m 1,0,-1
 216 1256 l 2,1,2
 216 1342 216 1342 256 1402 c 128,-1,3
 296 1462 296 1462 363.5 1493.5 c 128,-1,4
 431 1525 431 1525 514 1525 c 0,5,6
 564 1525 564 1525 600.5 1520 c 128,-1,7
 637 1515 637 1515 651 1510 c 1,8,-1
 626 1360 l 1,9,10
 615 1363 615 1363 588 1366 c 128,-1,11
 561 1369 561 1369 533 1369 c 0,12,13
 458 1369 458 1369 424.5 1333 c 128,-1,14
 391 1297 391 1297 391 1223 c 2,15,-1
 391 0 l 1,16,-1
 216 0 l 1,0,-1
EndSplineSet
EndChar

StartChar: f
Encoding: 102 102 648
Width: 693
GlyphClass: 2
Flags: W
AnchorPoint: "Anchor-1" 388 1521 basechar 0
AnchorPoint: "Anchor-0" 309 0 basechar 0
LayerCount: 2
Fore
SplineSet
633 1087 m 1,0,-1
 633 937 l 1,1,-1
 18 937 l 1,2,-1
 18 1087 l 1,3,-1
 633 1087 l 1,0,-1
222 0 m 1,4,-1
 222 1256 l 2,5,6
 222 1342 222 1342 261.5 1402 c 128,-1,7
 301 1462 301 1462 369 1493.5 c 128,-1,8
 437 1525 437 1525 520 1525 c 0,9,10
 569 1525 569 1525 605.5 1520 c 128,-1,11
 642 1515 642 1515 657 1510 c 1,12,-1
 632 1360 l 1,13,14
 620 1363 620 1363 593 1366 c 128,-1,15
 566 1369 566 1369 538 1369 c 0,16,17
 463 1369 463 1369 430 1333 c 128,-1,18
 397 1297 397 1297 397 1223 c 2,19,-1
 397 0 l 1,20,-1
 222 0 l 1,4,-1
EndSplineSet
Substitution2: "'cv12' Character Variants 12 in Latin lookup 66 subtable" f.1
Substitution2: "'salt' Stylistic Alternatives in Latin lookup 46 subtable" f.1
Substitution2: "'sups' Superscript in Latin lookup 39 subtable" f.sups
Substitution2: "'subs' Subscript in Latin lookup 38 subtable" f.subs
Substitution2: "Single Substitution lookup 36 subtable" f.1
Substitution2: "Single Substitution lookup 35 subtable" f.i.1
Substitution2: "Single Substitution lookup 34 subtable" f.i
Substitution2: "'sinf' Scientific Inferiors in Latin lookup 18 subtable" f.subs
AlternateSubs2: "'aalt' Access All Alternates in Latin lookup 1 subtable" f.sups f.subs
EndChar

StartChar: f.1
Encoding: 60941 60941 649
Width: 613
GlyphClass: 2
Flags: W
AnchorPoint: "Anchor-1" 308 1521 basechar 0
AnchorPoint: "Anchor-0" 230 0 basechar 0
LayerCount: 2
Fore
SplineSet
553 1087 m 1,0,-1
 553 937 l 1,1,-1
 216 937 l 1,2,-1
 216 1087 l 1,3,-1
 553 1087 l 1,0,-1
142 0 m 1,4,-1
 142 1256 l 2,5,6
 142 1342 142 1342 182 1402 c 128,-1,7
 222 1462 222 1462 289.5 1493.5 c 128,-1,8
 357 1525 357 1525 440 1525 c 0,9,10
 490 1525 490 1525 526.5 1520 c 128,-1,11
 563 1515 563 1515 577 1510 c 1,12,-1
 552 1360 l 1,13,14
 541 1363 541 1363 514 1366 c 128,-1,15
 487 1369 487 1369 459 1369 c 0,16,17
 384 1369 384 1369 350.5 1333 c 128,-1,18
 317 1297 317 1297 317 1223 c 2,19,-1
 317 0 l 1,20,-1
 142 0 l 1,4,-1
EndSplineSet
EndChar

StartChar: f.i
Encoding: 60942 60942 650
Width: 648
GlyphClass: 2
Flags: W
AnchorPoint: "Anchor-1" 387 1521 basechar 0
AnchorPoint: "Anchor-0" 308 0 basechar 0
LayerCount: 2
Fore
SplineSet
221 0 m 1,0,-1
 221 1256 l 2,1,2
 221 1342 221 1342 260.5 1402 c 128,-1,3
 300 1462 300 1462 368 1493.5 c 128,-1,4
 436 1525 436 1525 519 1525 c 0,5,6
 540 1525 540 1525 559.5 1524 c 128,-1,7
 579 1523 579 1523 597 1521 c 1,8,-1
 583 1367 l 1,9,10
 573 1368 573 1368 561.5 1368.5 c 128,-1,11
 550 1369 550 1369 537 1369 c 0,12,13
 462 1369 462 1369 429 1333 c 128,-1,14
 396 1297 396 1297 396 1223 c 2,15,-1
 396 0 l 1,16,-1
 221 0 l 1,0,-1
18 937 m 1,17,-1
 18 1087 l 1,18,-1
 844 1087 l 1,19,-1
 844 937 l 1,20,-1
 18 937 l 1,17,-1
EndSplineSet
Substitution2: "Single Substitution lookup 35 subtable" f.i.1
EndChar

StartChar: f.i.1
Encoding: 60943 60943 651
Width: 569
GlyphClass: 2
Flags: W
AnchorPoint: "Anchor-1" 308 1521 basechar 0
AnchorPoint: "Anchor-0" 230 0 basechar 0
LayerCount: 2
Fore
SplineSet
142 0 m 1,0,-1
 142 1256 l 2,1,2
 142 1342 142 1342 182 1402 c 128,-1,3
 222 1462 222 1462 289.5 1493.5 c 128,-1,4
 357 1525 357 1525 440 1525 c 0,5,6
 462 1525 462 1525 481.5 1524 c 128,-1,7
 501 1523 501 1523 518 1521 c 1,8,-1
 505 1367 l 1,9,10
 494 1368 494 1368 482.5 1368.5 c 128,-1,11
 471 1369 471 1369 459 1369 c 0,12,13
 384 1369 384 1369 350.5 1333 c 128,-1,14
 317 1297 317 1297 317 1223 c 2,15,-1
 317 0 l 1,16,-1
 142 0 l 1,0,-1
224 937 m 1,17,-1
 224 1087 l 1,18,-1
 765 1087 l 1,19,-1
 765 937 l 1,20,-1
 224 937 l 1,17,-1
EndSplineSet
EndChar

StartChar: g
Encoding: 103 103 659
Width: 1207
GlyphClass: 2
Flags: W
AnchorPoint: "Anchor-1" 580 1087 basechar 0
AnchorPoint: "Anchor-0" 595 -436 basechar 0
LayerCount: 2
Fore
SplineSet
590 -437 m 0,0,1
 468 -437 468 -437 375 -403 c 128,-1,2
 282 -369 282 -369 222 -307 c 128,-1,3
 162 -245 162 -245 138 -163 c 1,4,-1
 298 -116 l 1,5,6
 317 -160 317 -160 354 -198.5 c 128,-1,7
 391 -237 391 -237 449 -260 c 128,-1,8
 507 -283 507 -283 590 -283 c 0,9,10
 726 -283 726 -283 808.5 -214.5 c 128,-1,11
 891 -146 891 -146 891 -9 c 2,12,-1
 891 183 l 1,13,-1
 882 183 l 1,14,15
 853 136 853 136 810.5 94 c 128,-1,16
 768 52 768 52 705 25.5 c 128,-1,17
 642 -1 642 -1 553 -1 c 0,18,19
 418 -1 418 -1 312.5 65.5 c 128,-1,20
 207 132 207 132 147.5 255 c 128,-1,21
 88 378 88 378 88 546 c 256,22,23
 88 714 88 714 147 839.5 c 128,-1,24
 206 965 206 965 311.5 1034.5 c 128,-1,25
 417 1104 417 1104 555 1104 c 0,26,27
 644 1104 644 1104 707.5 1077 c 128,-1,28
 771 1050 771 1050 814.5 1006.5 c 128,-1,29
 858 963 858 963 886 915 c 1,30,-1
 895 915 l 1,31,-1
 895 1087 l 1,32,-1
 1065 1087 l 1,33,-1
 1065 -14 l 2,34,35
 1065 -164 1065 -164 1000.5 -257.5 c 128,-1,36
 936 -351 936 -351 827.5 -394 c 128,-1,37
 719 -437 719 -437 590 -437 c 0,0,1
581 156 m 0,38,39
 681 156 681 156 752 203.5 c 128,-1,40
 823 251 823 251 860.5 339.5 c 128,-1,41
 898 428 898 428 898 548 c 256,42,43
 898 668 898 668 861 757.5 c 128,-1,44
 824 847 824 847 753 897.5 c 128,-1,45
 682 948 682 948 581 948 c 0,46,47
 483 948 483 948 412 898 c 128,-1,48
 341 848 341 848 303.5 758.5 c 128,-1,49
 266 669 266 669 266 548 c 0,50,51
 266 426 266 426 304 338 c 128,-1,52
 342 250 342 250 412.5 203 c 128,-1,53
 483 156 483 156 581 156 c 0,38,39
EndSplineSet
Substitution2: "'smcp' Lowercase to Small Capitals in Latin lookup 69 subtable" g.sc
Substitution2: "'sups' Superscript in Latin lookup 39 subtable" g.sups
Substitution2: "'subs' Subscript in Latin lookup 38 subtable" g.subs
Substitution2: "'sinf' Scientific Inferiors in Latin lookup 18 subtable" g.subs
AlternateSubs2: "'aalt' Access All Alternates in Latin lookup 1 subtable" g.sc g.sups g.subs
EndChar

StartChar: uni0260
Encoding: 608 608 660
Width: 1207
GlyphClass: 2
Flags: W
AnchorPoint: "Anchor-1" 580 1087 basechar 0
AnchorPoint: "Anchor-0" 595 -436 basechar 0
LayerCount: 2
Fore
SplineSet
890 871 m 1,0,-1
 890 1246 l 2,1,2
 890 1369 890 1369 966 1433 c 128,-1,3
 1042 1497 1042 1497 1182 1497 c 0,4,5
 1216 1497 1216 1497 1241 1496 c 128,-1,6
 1266 1495 1266 1495 1284 1493 c 1,7,-1
 1284 1344 l 1,8,9
 1269 1345 1269 1345 1244 1345.5 c 128,-1,10
 1219 1346 1219 1346 1205 1346 c 0,11,12
 1131 1346 1131 1346 1098 1322 c 128,-1,13
 1065 1298 1065 1298 1065 1246 c 2,14,-1
 1065 871 l 1,15,-1
 890 871 l 1,0,-1
590 -437 m 0,16,17
 468 -437 468 -437 375 -403 c 128,-1,18
 282 -369 282 -369 222 -307 c 128,-1,19
 162 -245 162 -245 138 -163 c 1,20,-1
 298 -116 l 1,21,22
 317 -160 317 -160 354 -198.5 c 128,-1,23
 391 -237 391 -237 449 -260 c 128,-1,24
 507 -283 507 -283 590 -283 c 0,25,26
 726 -283 726 -283 808.5 -214.5 c 128,-1,27
 891 -146 891 -146 891 -9 c 2,28,-1
 891 183 l 1,29,-1
 882 183 l 1,30,31
 853 136 853 136 810.5 94 c 128,-1,32
 768 52 768 52 705 25.5 c 128,-1,33
 642 -1 642 -1 553 -1 c 0,34,35
 418 -1 418 -1 312.5 65.5 c 128,-1,36
 207 132 207 132 147.5 255 c 128,-1,37
 88 378 88 378 88 546 c 256,38,39
 88 714 88 714 147 839.5 c 128,-1,40
 206 965 206 965 311.5 1034.5 c 128,-1,41
 417 1104 417 1104 555 1104 c 0,42,43
 644 1104 644 1104 707.5 1077 c 128,-1,44
 771 1050 771 1050 814.5 1006.5 c 128,-1,45
 858 963 858 963 886 915 c 1,46,-1
 895 915 l 1,47,-1
 895 1087 l 1,48,-1
 1065 1087 l 1,49,-1
 1065 -14 l 2,50,51
 1065 -164 1065 -164 1000.5 -257.5 c 128,-1,52
 936 -351 936 -351 827.5 -394 c 128,-1,53
 719 -437 719 -437 590 -437 c 0,16,17
581 156 m 0,54,55
 681 156 681 156 752 203.5 c 128,-1,56
 823 251 823 251 860.5 339.5 c 128,-1,57
 898 428 898 428 898 548 c 256,58,59
 898 668 898 668 861 757.5 c 128,-1,60
 824 847 824 847 753 897.5 c 128,-1,61
 682 948 682 948 581 948 c 0,62,63
 483 948 483 948 412 898 c 128,-1,64
 341 848 341 848 303.5 758.5 c 128,-1,65
 266 669 266 669 266 548 c 0,66,67
 266 426 266 426 304 338 c 128,-1,68
 342 250 342 250 412.5 203 c 128,-1,69
 483 156 483 156 581 156 c 0,54,55
EndSplineSet
Substitution2: "'smcp' Lowercase to Small Capitals in Latin lookup 69 subtable" uni0260.sc
Substitution2: "'c2sc' Capitals to Small Capitals in Latin lookup 68 subtable" uni0260.sc
Substitution2: "'aalt' Access All Alternates in Latin lookup 0 subtable" uni0260.sc
EndChar

StartChar: g.sc
Encoding: 610 610 669
Width: 1110
GlyphClass: 2
Flags: W
AnchorPoint: "Anchor-1" 563 1087 basechar 0
AnchorPoint: "Anchor-0" 561 0 basechar 0
LayerCount: 2
Fore
SplineSet
572 -16 m 0,0,1
 424 -16 424 -16 310 53.5 c 128,-1,2
 196 123 196 123 132.5 249 c 128,-1,3
 69 375 69 375 69 543 c 0,4,5
 69 714 69 714 134 840 c 128,-1,6
 199 966 199 966 311.5 1034.5 c 128,-1,7
 424 1103 424 1103 568 1103 c 0,8,9
 687 1103 687 1103 784.5 1056.5 c 128,-1,10
 882 1010 882 1010 946.5 927.5 c 128,-1,11
 1011 845 1011 845 1028 736 c 1,12,-1
 850 736 l 1,13,14
 833 799 833 799 794.5 846 c 128,-1,15
 756 893 756 893 699.5 919 c 128,-1,16
 643 945 643 945 570 945 c 0,17,18
 475 945 475 945 401 897 c 128,-1,19
 327 849 327 849 285.5 759 c 128,-1,20
 244 669 244 669 244 543 c 0,21,22
 244 419 244 419 285.5 329 c 128,-1,23
 327 239 327 239 401.5 190.5 c 128,-1,24
 476 142 476 142 574 142 c 0,25,26
 702 142 702 142 783.5 219.5 c 128,-1,27
 865 297 865 297 865 424 c 1,28,-1
 910 418 l 1,29,-1
 602 418 l 1,30,-1
 602 560 l 1,31,-1
 1036 560 l 1,32,-1
 1036 434 l 2,33,34
 1036 299 1036 299 975.5 198 c 128,-1,35
 915 97 915 97 810.5 40.5 c 128,-1,36
 706 -16 706 -16 572 -16 c 0,0,1
EndSplineSet
EndChar

StartChar: uni0260.sc
Encoding: 60947 60947 670
Width: 1180
GlyphClass: 2
Flags: W
AnchorPoint: "Anchor-1" 563 1087 basechar 0
AnchorPoint: "Anchor-0" 561 0 basechar 0
LayerCount: 2
Fore
SplineSet
903 736 m 1,0,-1
 864 972 l 2,1,2
 847 1056 847 1056 868.5 1119.5 c 128,-1,3
 890 1183 890 1183 949.5 1219 c 128,-1,4
 1009 1255 1009 1255 1101 1255 c 0,5,6
 1135 1255 1135 1255 1156.5 1253.5 c 128,-1,7
 1178 1252 1178 1252 1196 1250 c 1,8,-1
 1196 1102 l 1,9,10
 1180 1103 1180 1103 1159 1103.5 c 128,-1,11
 1138 1104 1138 1104 1124 1104 c 0,12,13
 1049 1104 1049 1104 1023.5 1064 c 128,-1,14
 998 1024 998 1024 1019 918 c 1,15,-1
 1028 736 l 1,16,-1
 903 736 l 1,0,-1
572 -16 m 0,17,18
 424 -16 424 -16 310 53.5 c 128,-1,19
 196 123 196 123 132.5 249 c 128,-1,20
 69 375 69 375 69 543 c 0,21,22
 69 714 69 714 134 840 c 128,-1,23
 199 966 199 966 311.5 1034.5 c 128,-1,24
 424 1103 424 1103 568 1103 c 0,25,26
 687 1103 687 1103 784.5 1056.5 c 128,-1,27
 882 1010 882 1010 946.5 927.5 c 128,-1,28
 1011 845 1011 845 1028 736 c 1,29,-1
 850 736 l 1,30,31
 833 799 833 799 794.5 846 c 128,-1,32
 756 893 756 893 699.5 919 c 128,-1,33
 643 945 643 945 570 945 c 0,34,35
 475 945 475 945 401 897 c 128,-1,36
 327 849 327 849 285.5 759 c 128,-1,37
 244 669 244 669 244 543 c 0,38,39
 244 419 244 419 285.5 329 c 128,-1,40
 327 239 327 239 401.5 190.5 c 128,-1,41
 476 142 476 142 574 142 c 0,42,43
 702 142 702 142 783.5 219.5 c 128,-1,44
 865 297 865 297 865 424 c 1,45,-1
 910 418 l 1,46,-1
 602 418 l 1,47,-1
 602 560 l 1,48,-1
 1036 560 l 1,49,-1
 1036 434 l 2,50,51
 1036 299 1036 299 975.5 198 c 128,-1,52
 915 97 915 97 810.5 40.5 c 128,-1,53
 706 -16 706 -16 572 -16 c 0,17,18
EndSplineSet
EndChar

StartChar: h
Encoding: 104 104 671
Width: 1166
GlyphClass: 2
Flags: W
AnchorPoint: "Anchor-3" 229 0 basechar 0
AnchorPoint: "Anchor-1" 230 1490 basechar 0
AnchorPoint: "Anchor-0" 583 0 basechar 0
LayerCount: 2
Fore
SplineSet
317 644 m 2,0,-1
 317 0 l 1,1,-1
 142 0 l 1,2,-1
 142 1490 l 1,3,-1
 317 1490 l 1,4,-1
 317 824 l 1,5,-1
 276 824 l 1,6,7
 327 973 327 973 420.5 1038.5 c 128,-1,8
 514 1104 514 1104 640 1104 c 0,9,10
 750 1104 750 1104 837 1057.5 c 128,-1,11
 924 1011 924 1011 974 918 c 128,-1,12
 1024 825 1024 825 1024 683 c 2,13,-1
 1024 0 l 1,14,-1
 848 0 l 1,15,-1
 848 670 l 2,16,17
 848 803 848 803 781.5 874 c 128,-1,18
 715 945 715 945 597 945 c 0,19,20
 519 945 519 945 455.5 912 c 128,-1,21
 392 879 392 879 354.5 812.5 c 128,-1,22
 317 746 317 746 317 644 c 2,0,-1
EndSplineSet
Substitution2: "'smcp' Lowercase to Small Capitals in Latin lookup 69 subtable" h.sc
Substitution2: "'sups' Superscript in Latin lookup 39 subtable" h.sups
Substitution2: "'subs' Subscript in Latin lookup 38 subtable" h.subs
Substitution2: "'sinf' Scientific Inferiors in Latin lookup 18 subtable" h.subs
AlternateSubs2: "'aalt' Access All Alternates in Latin lookup 1 subtable" h.sups h.subs h.sc
EndChar

StartChar: uni0452
Encoding: 1106 1106 674
Width: 1166
GlyphClass: 2
Flags: W
AnchorPoint: "Anchor-3" 229 0 basechar 0
AnchorPoint: "Anchor-1" 230 1490 basechar 0
AnchorPoint: "Anchor-0" 583 0 basechar 0
LayerCount: 2
Fore
SplineSet
738 -422 m 0,0,1
 704 -422 704 -422 678 -421 c 128,-1,2
 652 -420 652 -420 634 -418 c 1,3,-1
 634 -269 l 1,4,5
 650 -270 650 -270 675 -270.5 c 128,-1,6
 700 -271 700 -271 714 -271 c 0,7,8
 787 -271 787 -271 817.5 -247 c 128,-1,9
 848 -223 848 -223 848 -170 c 2,10,-1
 848 0 l 1,11,-1
 1024 0 l 1,12,-1
 1024 -170 l 2,13,14
 1024 -293 1024 -293 951 -357.5 c 128,-1,15
 878 -422 878 -422 738 -422 c 0,0,1
317 644 m 2,16,-1
 317 0 l 1,17,-1
 142 0 l 1,18,-1
 142 1490 l 1,19,-1
 317 1490 l 1,20,-1
 317 824 l 1,21,-1
 276 824 l 1,22,23
 327 973 327 973 420.5 1038.5 c 128,-1,24
 514 1104 514 1104 640 1104 c 0,25,26
 750 1104 750 1104 837 1057.5 c 128,-1,27
 924 1011 924 1011 974 918 c 128,-1,28
 1024 825 1024 825 1024 683 c 2,29,-1
 1024 0 l 1,30,-1
 848 0 l 1,31,-1
 848 670 l 2,32,33
 848 803 848 803 781.5 874 c 128,-1,34
 715 945 715 945 597 945 c 0,35,36
 519 945 519 945 455.5 912 c 128,-1,37
 392 879 392 879 354.5 812.5 c 128,-1,38
 317 746 317 746 317 644 c 2,16,-1
-7 1212 m 1,39,-1
 -7 1354 l 1,40,-1
 636 1354 l 1,41,-1
 636 1212 l 1,42,-1
 -7 1212 l 1,39,-1
EndSplineSet
EndChar

StartChar: uni0266
Encoding: 614 614 675
Width: 1165
GlyphClass: 2
Flags: W
AnchorPoint: "Anchor-1" 583 1087 basechar 0
AnchorPoint: "Anchor-0" 583 0 basechar 0
LayerCount: 2
Fore
SplineSet
142 871 m 1,0,-1
 142 1246 l 2,1,2
 142 1369 142 1369 218 1433 c 128,-1,3
 294 1497 294 1497 434 1497 c 0,4,5
 468 1497 468 1497 493 1496 c 128,-1,6
 518 1495 518 1495 536 1493 c 1,7,-1
 536 1344 l 1,8,9
 521 1345 521 1345 496 1345.5 c 128,-1,10
 471 1346 471 1346 457 1346 c 0,11,12
 383 1346 383 1346 350 1322 c 128,-1,13
 317 1298 317 1298 317 1246 c 2,14,-1
 317 871 l 1,15,-1
 142 871 l 1,0,-1
317 644 m 2,16,-1
 317 0 l 1,17,-1
 142 0 l 1,18,-1
 142 1087 l 1,19,-1
 312 1087 l 1,20,-1
 312 824 l 1,21,-1
 276 824 l 1,22,23
 327 973 327 973 420.5 1038.5 c 128,-1,24
 514 1104 514 1104 640 1104 c 0,25,26
 750 1104 750 1104 836.5 1057.5 c 128,-1,27
 923 1011 923 1011 973 918 c 128,-1,28
 1023 825 1023 825 1023 683 c 2,29,-1
 1023 0 l 1,30,-1
 848 0 l 1,31,-1
 848 670 l 2,32,33
 848 803 848 803 781.5 874 c 128,-1,34
 715 945 715 945 597 945 c 0,35,36
 519 945 519 945 455.5 912 c 128,-1,37
 392 879 392 879 354.5 812.5 c 128,-1,38
 317 746 317 746 317 644 c 2,16,-1
EndSplineSet
EndChar

StartChar: uni0267
Encoding: 615 615 676
Width: 1165
GlyphClass: 2
Flags: W
AnchorPoint: "Anchor-1" 583 1087 basechar 0
AnchorPoint: "Anchor-0" 583 0 basechar 0
LayerCount: 2
Fore
SplineSet
738 -422 m 0,0,1
 704 -422 704 -422 678 -421 c 128,-1,2
 652 -420 652 -420 634 -418 c 1,3,-1
 634 -269 l 1,4,5
 650 -270 650 -270 675 -270.5 c 128,-1,6
 700 -271 700 -271 714 -271 c 0,7,8
 787 -271 787 -271 817.5 -247 c 128,-1,9
 848 -223 848 -223 848 -170 c 2,10,-1
 848 0 l 1,11,-1
 1024 0 l 1,12,-1
 1024 -170 l 2,13,14
 1024 -293 1024 -293 951 -357.5 c 128,-1,15
 878 -422 878 -422 738 -422 c 0,0,1
317 644 m 2,16,-1
 317 0 l 1,17,-1
 142 0 l 1,18,-1
 142 1087 l 1,19,-1
 312 1087 l 1,20,-1
 312 824 l 1,21,-1
 276 824 l 1,22,23
 327 973 327 973 420.5 1038.5 c 128,-1,24
 514 1104 514 1104 640 1104 c 0,25,26
 750 1104 750 1104 836.5 1057.5 c 128,-1,27
 923 1011 923 1011 973 918 c 128,-1,28
 1023 825 1023 825 1023 683 c 2,29,-1
 1023 0 l 1,30,-1
 848 0 l 1,31,-1
 848 670 l 2,32,33
 848 803 848 803 781.5 874 c 128,-1,34
 715 945 715 945 597 945 c 0,35,36
 519 945 519 945 455.5 912 c 128,-1,37
 392 879 392 879 354.5 812.5 c 128,-1,38
 317 746 317 746 317 644 c 2,16,-1
142 871 m 1,39,-1
 142 1246 l 2,40,41
 142 1369 142 1369 218 1433 c 128,-1,42
 294 1497 294 1497 434 1497 c 0,43,44
 468 1497 468 1497 493 1496 c 128,-1,45
 518 1495 518 1495 536 1493 c 1,46,-1
 536 1344 l 1,47,48
 521 1345 521 1345 496 1345.5 c 128,-1,49
 471 1346 471 1346 457 1346 c 0,50,51
 383 1346 383 1346 350 1322 c 128,-1,52
 317 1298 317 1298 317 1246 c 2,53,-1
 317 871 l 1,54,-1
 142 871 l 1,39,-1
EndSplineSet
EndChar

StartChar: uni0195
Encoding: 405 405 677
Width: 1907
Flags: W
LayerCount: 2
Fore
SplineSet
1236 -20 m 0,0,1
 1132 -20 1132 -20 1046.5 29 c 128,-1,2
 961 78 961 78 911 180 c 128,-1,3
 861 282 861 282 861 442 c 2,4,-1
 861 670 l 2,5,6
 861 804 861 804 792 874.5 c 128,-1,7
 723 945 723 945 603 945 c 0,8,9
 523 945 523 945 458.5 912 c 128,-1,10
 394 879 394 879 355.5 812.5 c 128,-1,11
 317 746 317 746 317 644 c 2,12,-1
 317 0 l 1,13,-1
 142 0 l 1,14,-1
 142 1490 l 1,15,-1
 317 1490 l 1,16,-1
 317 913 l 1,17,-1
 327 913 l 1,18,19
 364 997 364 997 442.5 1050.5 c 128,-1,20
 521 1104 521 1104 649 1104 c 0,21,22
 759 1104 759 1104 847 1058 c 128,-1,23
 935 1012 935 1012 986 918.5 c 128,-1,24
 1037 825 1037 825 1037 683 c 2,25,-1
 1037 442 l 2,26,27
 1037 313 1037 313 1072 247.5 c 128,-1,28
 1107 182 1107 182 1156 159 c 128,-1,29
 1205 136 1205 136 1248 136 c 0,30,31
 1339 136 1339 136 1416 216 c 128,-1,32
 1493 296 1493 296 1540.5 478 c 128,-1,33
 1588 660 1588 660 1588 967 c 2,34,-1
 1588 1087 l 1,35,-1
 1765 1087 l 1,36,-1
 1765 967 l 2,37,38
 1765 615 1765 615 1695.5 397.5 c 128,-1,39
 1626 180 1626 180 1506.5 80 c 128,-1,40
 1387 -20 1387 -20 1236 -20 c 0,0,1
EndSplineSet
EndChar

StartChar: hturn
Encoding: 613 613 678
Width: 1166
GlyphClass: 2
Flags: W
AnchorPoint: "Anchor-3" 937 1087 basechar 0
AnchorPoint: "Anchor-1" 580 1087 basechar 0
AnchorPoint: "Anchor-0" 583 1087 basechar 0
LayerCount: 2
Fore
SplineSet
849 443 m 2,0,-1
 849 1087 l 1,1,-1
 1024 1087 l 1,2,-1
 1024 -403 l 1,3,-1
 849 -403 l 1,4,-1
 849 264 l 1,5,-1
 890 264 l 1,6,7
 839 116 839 116 745.5 49.5 c 128,-1,8
 652 -17 652 -17 526 -17 c 0,9,10
 416 -17 416 -17 329 29.5 c 128,-1,11
 242 76 242 76 192 170 c 128,-1,12
 142 264 142 264 142 404 c 2,13,-1
 142 1087 l 1,14,-1
 318 1087 l 1,15,-1
 318 418 l 2,16,17
 318 285 318 285 384.5 213.5 c 128,-1,18
 451 142 451 142 569 142 c 0,19,20
 648 142 648 142 711 175 c 128,-1,21
 774 208 774 208 811.5 275.5 c 128,-1,22
 849 343 849 343 849 443 c 2,0,-1
EndSplineSet
EndChar

StartChar: hturnlthook
Encoding: 686 686 679
Width: 1262
Flags: W
LayerCount: 2
Fore
SplineSet
945 -418 m 1,0,-1
 945 264 l 1,1,-1
 986 264 l 1,2,3
 934 114 934 114 840 48.5 c 128,-1,4
 746 -17 746 -17 622 -17 c 0,5,6
 512 -17 512 -17 425 29.5 c 128,-1,7
 338 76 338 76 288 170 c 128,-1,8
 238 264 238 264 238 404 c 2,9,-1
 238 799 l 2,10,11
 238 883 238 883 195.5 913.5 c 128,-1,12
 153 944 153 944 73 944 c 0,13,14
 63 944 63 944 53.5 943.5 c 128,-1,15
 44 943 44 943 35 942.5 c 128,-1,16
 26 942 26 942 18 941 c 1,17,-1
 18 1089 l 1,18,19
 37 1093 37 1093 59.5 1093.5 c 128,-1,20
 82 1094 82 1094 110 1094 c 0,21,22
 178 1094 178 1094 233.5 1075.5 c 128,-1,23
 289 1057 289 1057 329.5 1020.5 c 128,-1,24
 370 984 370 984 391.5 929.5 c 128,-1,25
 413 875 413 875 413 803 c 2,26,-1
 413 418 l 2,27,28
 413 285 413 285 480 213.5 c 128,-1,29
 547 142 547 142 665 142 c 0,30,31
 743 142 743 142 806.5 175 c 128,-1,32
 870 208 870 208 907 275.5 c 128,-1,33
 944 343 944 343 944 443 c 2,34,-1
 944 1087 l 1,35,-1
 1120 1087 l 1,36,-1
 1120 -418 l 1,37,-1
 945 -418 l 1,0,-1
EndSplineSet
EndChar

StartChar: hturnhook2
Encoding: 687 687 680
Width: 1261
Flags: W
LayerCount: 2
Fore
SplineSet
1232 -422 m 0,0,1
 1091 -422 1091 -422 1018 -357.5 c 128,-1,2
 945 -293 945 -293 945 -170 c 2,3,-1
 945 264 l 1,4,-1
 986 264 l 1,5,6
 934 114 934 114 840 48.5 c 128,-1,7
 746 -17 746 -17 622 -17 c 0,8,9
 512 -17 512 -17 425 29.5 c 128,-1,10
 338 76 338 76 288 170 c 128,-1,11
 238 264 238 264 238 404 c 2,12,-1
 238 799 l 2,13,14
 238 883 238 883 195.5 913.5 c 128,-1,15
 153 944 153 944 73 944 c 0,16,17
 63 944 63 944 53.5 943.5 c 128,-1,18
 44 943 44 943 35 942.5 c 128,-1,19
 26 942 26 942 18 941 c 1,20,-1
 18 1089 l 1,21,22
 37 1093 37 1093 59.5 1093.5 c 128,-1,23
 82 1094 82 1094 110 1094 c 0,24,25
 178 1094 178 1094 233.5 1075.5 c 128,-1,26
 289 1057 289 1057 329.5 1020.5 c 128,-1,27
 370 984 370 984 391.5 929.5 c 128,-1,28
 413 875 413 875 413 803 c 2,29,-1
 413 418 l 2,30,31
 413 285 413 285 480 213.5 c 128,-1,32
 547 142 547 142 665 142 c 0,33,34
 743 142 743 142 806.5 175 c 128,-1,35
 870 208 870 208 907 275.5 c 128,-1,36
 944 343 944 343 944 443 c 2,37,-1
 944 1087 l 1,38,-1
 1120 1087 l 1,39,-1
 1120 -170 l 2,40,41
 1120 -223 1120 -223 1150.5 -247 c 128,-1,42
 1181 -271 1181 -271 1255 -271 c 0,43,44
 1268 -271 1268 -271 1293 -270.5 c 128,-1,45
 1318 -270 1318 -270 1334 -269 c 1,46,-1
 1334 -418 l 1,47,48
 1322 -419 1322 -419 1306.5 -420 c 128,-1,49
 1291 -421 1291 -421 1272.5 -421.5 c 128,-1,50
 1254 -422 1254 -422 1232 -422 c 0,0,1
EndSplineSet
EndChar

StartChar: dotlessi
Encoding: 305 305 691
Width: 459
GlyphClass: 2
Flags: W
AnchorPoint: "Anchor-4" 317 0 basechar 0
AnchorPoint: "Anchor-1" 230 1087 basechar 0
AnchorPoint: "Anchor-0" 230 0 basechar 0
LayerCount: 2
Fore
SplineSet
142 0 m 1,0,-1
 142 1087 l 1,1,-1
 317 1087 l 1,2,-1
 317 0 l 1,3,-1
 142 0 l 1,0,-1
EndSplineSet
EndChar

StartChar: uni0237
Encoding: 567 567 713
Width: 459
GlyphClass: 2
Flags: W
AnchorPoint: "Anchor-1" 230 1087 basechar 0
AnchorPoint: "Anchor-0" 173 -458 basechar 0
LayerCount: 2
Fore
SplineSet
142 1087 m 1,0,-1
 317 1087 l 1,1,-1
 317 -114 l 2,2,3
 318 -205 318 -205 283 -273.5 c 128,-1,4
 248 -342 248 -342 180.5 -380 c 128,-1,5
 113 -418 113 -418 14 -418 c 2,6,-1
 -41 -418 l 1,7,-1
 -41 -260 l 1,8,-1
 5 -260 l 2,9,10
 76 -260 76 -260 109 -220 c 128,-1,11
 142 -180 142 -180 142 -101 c 2,12,-1
 142 1087 l 1,0,-1
EndSplineSet
EndChar

StartChar: i.sc
Encoding: 60950 60950 720
Width: 616
GlyphClass: 2
Flags: W
AnchorPoint: "Anchor-4" 558 0 basechar 0
AnchorPoint: "Anchor-1" 308 1087 basechar 0
AnchorPoint: "Anchor-0" 308 0 basechar 0
LayerCount: 2
Fore
SplineSet
58 0 m 1,0,-1
 58 149 l 1,1,-1
 221 149 l 1,2,-1
 221 939 l 1,3,-1
 58 939 l 1,4,-1
 58 1087 l 1,5,-1
 558 1087 l 1,6,-1
 558 939 l 1,7,-1
 396 939 l 1,8,-1
 396 149 l 1,9,-1
 558 149 l 1,10,-1
 558 0 l 1,11,-1
 58 0 l 1,0,-1
EndSplineSet
EndChar

StartChar: jcrosstail.ccmp
Encoding: 57423 57423 722
Width: 678
GlyphClass: 2
Flags: W
AnchorPoint: "Anchor-4" 541 0 basechar 0
AnchorPoint: "Anchor-1" 454 1087 basechar 0
AnchorPoint: "Anchor-0" 356 -460 basechar 0
LayerCount: 2
Fore
SplineSet
249 -418 m 0,0,1
 159 -418 159 -418 94 -383 c 128,-1,2
 29 -348 29 -348 -6 -288 c 128,-1,3
 -41 -228 -41 -228 -41 -154 c 0,4,5
 -41 -71 -41 -71 0 -10.5 c 128,-1,6
 41 50 41 50 109.5 83 c 128,-1,7
 178 116 178 116 259 116 c 2,8,-1
 753 116 l 1,9,-1
 753 -46 l 1,10,-1
 259 -46 l 2,11,12
 207 -47 207 -47 175 -79 c 128,-1,13
 143 -111 143 -111 143 -158 c 0,14,15
 143 -201 143 -201 172 -231.5 c 128,-1,16
 201 -262 201 -262 247 -262 c 0,17,18
 310 -262 310 -262 338.5 -212 c 128,-1,19
 367 -162 367 -162 367 -116 c 2,20,-1
 367 244 l 1,21,-1
 537 244 l 1,22,-1
 537 -98 l 2,23,24
 537 -161 537 -161 518 -218.5 c 128,-1,25
 499 -276 499 -276 462 -321 c 128,-1,26
 425 -366 425 -366 371.5 -392 c 128,-1,27
 318 -418 318 -418 249 -418 c 0,0,1
366 0 m 1,28,-1
 366 1087 l 1,29,-1
 541 1087 l 1,30,-1
 541 0 l 1,31,-1
 366 0 l 1,28,-1
EndSplineSet
EndChar

StartChar: k
Encoding: 107 107 729
Width: 1082
GlyphClass: 2
Flags: W
AnchorPoint: "Anchor-1" 230 1490 basechar 0
AnchorPoint: "Anchor-0" 563 0 basechar 0
LayerCount: 2
Fore
SplineSet
306 391 m 1,0,-1
 306 603 l 1,1,-1
 329 603 l 1,2,-1
 814 1087 l 1,3,-1
 1035 1087 l 1,4,-1
 520 572 l 1,5,-1
 502 572 l 1,6,-1
 306 391 l 1,0,-1
142 0 m 1,7,-1
 142 1490 l 1,8,-1
 317 1490 l 1,9,-1
 317 0 l 1,10,-1
 142 0 l 1,7,-1
846 0 m 1,11,-1
 417 533 l 1,12,-1
 541 655 l 1,13,-1
 1070 0 l 1,14,-1
 846 0 l 1,11,-1
EndSplineSet
Substitution2: "'sups' Superscript in Latin lookup 39 subtable" k.sups
Substitution2: "'subs' Subscript in Latin lookup 38 subtable" k.subs
Substitution2: "'sinf' Scientific Inferiors in Latin lookup 18 subtable" k.subs
AlternateSubs2: "'aalt' Access All Alternates in Latin lookup 1 subtable" k.sups k.subs
EndChar

StartChar: uni0199
Encoding: 409 409 730
Width: 1082
GlyphClass: 2
Flags: W
AnchorPoint: "Anchor-1" 230 1087 basechar 0
AnchorPoint: "Anchor-0" 563 0 basechar 0
LayerCount: 2
Fore
SplineSet
142 871 m 1,0,-1
 142 1246 l 2,1,2
 142 1369 142 1369 218 1433 c 128,-1,3
 294 1497 294 1497 434 1497 c 0,4,5
 468 1497 468 1497 493 1496 c 128,-1,6
 518 1495 518 1495 536 1493 c 1,7,-1
 536 1344 l 1,8,9
 521 1345 521 1345 496 1345.5 c 128,-1,10
 471 1346 471 1346 457 1346 c 0,11,12
 383 1346 383 1346 350 1322 c 128,-1,13
 317 1298 317 1298 317 1246 c 2,14,-1
 317 871 l 1,15,-1
 142 871 l 1,0,-1
306 391 m 1,16,-1
 306 603 l 1,17,-1
 329 603 l 1,18,-1
 814 1087 l 1,19,-1
 1035 1087 l 1,20,-1
 520 572 l 1,21,-1
 502 572 l 1,22,-1
 306 391 l 1,16,-1
142 0 m 1,23,-1
 142 1087 l 1,24,-1
 317 1087 l 1,25,-1
 317 0 l 1,26,-1
 142 0 l 1,23,-1
846 0 m 1,27,-1
 417 533 l 1,28,-1
 541 655 l 1,29,-1
 1070 0 l 1,30,-1
 846 0 l 1,27,-1
EndSplineSet
EndChar

StartChar: kturn
Encoding: 670 670 736
Width: 1082
GlyphClass: 2
Flags: W
AnchorPoint: "Anchor-1" 562 1087 basechar 0
AnchorPoint: "Anchor-0" 872 -372 basechar 0
LayerCount: 2
Fore
SplineSet
776 696 m 1,0,-1
 776 484 l 1,1,-1
 753 484 l 1,2,-1
 268 0 l 1,3,-1
 47 0 l 1,4,-1
 562 516 l 1,5,-1
 580 516 l 1,6,-1
 776 696 l 1,0,-1
940 1087 m 1,7,-1
 940 -403 l 1,8,-1
 765 -403 l 1,9,-1
 765 1087 l 1,10,-1
 940 1087 l 1,7,-1
236 1087 m 1,11,-1
 665 555 l 1,12,-1
 541 432 l 1,13,-1
 12 1087 l 1,14,-1
 236 1087 l 1,11,-1
EndSplineSet
EndChar

StartChar: k.base
Encoding: 60951 60951 737
Width: 1082
GlyphClass: 2
Flags: W
AnchorPoint: "Anchor-1" 230 1087 basechar 0
AnchorPoint: "Anchor-0" 563 0 basechar 0
LayerCount: 2
Fore
SplineSet
306 391 m 1,0,-1
 306 603 l 1,1,-1
 329 603 l 1,2,-1
 814 1087 l 1,3,-1
 1035 1087 l 1,4,-1
 520 572 l 1,5,-1
 502 572 l 1,6,-1
 306 391 l 1,0,-1
142 0 m 1,7,-1
 142 1087 l 1,8,-1
 317 1087 l 1,9,-1
 317 0 l 1,10,-1
 142 0 l 1,7,-1
846 0 m 1,11,-1
 417 533 l 1,12,-1
 541 655 l 1,13,-1
 1070 0 l 1,14,-1
 846 0 l 1,11,-1
EndSplineSet
EndChar

StartChar: l
Encoding: 1114124 -1 738
Width: 459
GlyphClass: 2
Flags: W
AnchorPoint: "Anchor-1" 230 1490 basechar 0
AnchorPoint: "Anchor-0" 229 0 basechar 0
LayerCount: 2
Fore
SplineSet
317 1490 m 1,0,-1
 317 0 l 1,1,-1
 142 0 l 1,2,-1
 142 1490 l 1,3,-1
 317 1490 l 1,0,-1
EndSplineSet
Substitution2: "'smcp' Lowercase to Small Capitals in Latin lookup 69 subtable" l.sc
Substitution2: "'c2sc' Capitals to Small Capitals in Latin lookup 68 subtable" l.sc
Substitution2: "'cv05' Character Variants 05 in Latin lookup 59 subtable" l.ss02
Substitution2: "'ss04' Style Set 4 in Latin lookup 50 subtable" l.ss02
Substitution2: "'ss02' Style Set 2 in Latin lookup 48 subtable" l.ss02
Substitution2: "'salt' Stylistic Alternatives in Latin lookup 46 subtable" l.ss02
Substitution2: "'sups' Superscript in Latin lookup 39 subtable" l.sups
Substitution2: "'subs' Subscript in Latin lookup 38 subtable" l.subs
Substitution2: "'sinf' Scientific Inferiors in Latin lookup 18 subtable" l.subs
AlternateSubs2: "'aalt' Access All Alternates in Latin lookup 1 subtable" l.sc l.sups l.subs
EndChar

StartChar: lrthook
Encoding: 621 621 742
Width: 459
GlyphClass: 2
Flags: W
AnchorPoint: "Anchor-1" 230 1490 basechar 0
AnchorPoint: "Anchor-0" 229 0 basechar 0
LayerCount: 2
Fore
SplineSet
429 -422 m 0,0,1
 289 -422 289 -422 215.5 -357.5 c 128,-1,2
 142 -293 142 -293 142 -170 c 2,3,-1
 142 0 l 1,4,-1
 317 0 l 1,5,-1
 317 -170 l 2,6,7
 317 -223 317 -223 348 -247 c 128,-1,8
 379 -271 379 -271 452 -271 c 0,9,10
 466 -271 466 -271 491 -270.5 c 128,-1,11
 516 -270 516 -270 532 -269 c 1,12,-1
 532 -418 l 1,13,14
 514 -420 514 -420 488.5 -421 c 128,-1,15
 463 -422 463 -422 429 -422 c 0,0,1
317 1490 m 1,16,-1
 317 0 l 1,17,-1
 142 0 l 1,18,-1
 142 1490 l 1,19,-1
 317 1490 l 1,16,-1
EndSplineSet
EndChar

StartChar: uni026C
Encoding: 1114128 -1 743
Width: 830
Flags: W
LayerCount: 2
Fore
SplineSet
813 598 m 1,0,-1
 312 598 l 2,1,2
 230 598 230 598 162 630.5 c 128,-1,3
 94 663 94 663 53 723 c 128,-1,4
 12 783 12 783 12 865 c 0,5,6
 12 940 12 940 47.5 1000.5 c 128,-1,7
 83 1061 83 1061 149.5 1096.5 c 128,-1,8
 216 1132 216 1132 307 1132 c 0,9,10
 378 1132 378 1132 432 1110.5 c 128,-1,11
 486 1089 486 1089 523.5 1049.5 c 128,-1,12
 561 1010 561 1010 580 956.5 c 128,-1,13
 599 903 599 903 599 840 c 2,14,-1
 599 467 l 1,15,-1
 422 467 l 1,16,-1
 422 859 l 2,17,18
 422 906 422 906 393 942 c 128,-1,19
 364 978 364 978 303 978 c 0,20,21
 273 978 273 978 248.5 962.5 c 128,-1,22
 224 947 224 947 209.5 921 c 128,-1,23
 195 895 195 895 195 865 c 0,24,25
 195 823 195 823 228.5 791.5 c 128,-1,26
 262 760 262 760 315 760 c 2,27,-1
 813 760 l 1,28,-1
 813 598 l 1,0,-1
599 1490 m 1,29,-1
 599 0 l 1,30,-1
 422 0 l 1,31,-1
 422 1490 l 1,32,-1
 599 1490 l 1,29,-1
EndSplineSet
Substitution2: "'cv05' Character Variants 05 in Latin lookup 59 subtable" uni026C.ss02
Substitution2: "'ss04' Style Set 4 in Latin lookup 50 subtable" uni026C.ss02
Substitution2: "'ss02' Style Set 2 in Latin lookup 48 subtable" uni026C.ss02
Substitution2: "'salt' Stylistic Alternatives in Latin lookup 46 subtable" uni026C.ss02
EndChar

StartChar: uni0234
Encoding: 564 564 744
Width: 779
GlyphClass: 2
Flags: W
AnchorPoint: "Anchor-1" 230 1490 basechar 0
AnchorPoint: "Anchor-0" 229 0 basechar 0
LayerCount: 2
Fore
SplineSet
454 -418 m 0,0,1
 341 -418 341 -418 272.5 -370.5 c 128,-1,2
 204 -323 204 -323 173 -250 c 128,-1,3
 142 -177 142 -177 142 -102 c 2,4,-1
 142 243 l 1,5,-1
 317 243 l 1,6,-1
 317 -120 l 2,7,8
 317 -192 317 -192 358.5 -230 c 128,-1,9
 400 -268 400 -268 454 -268 c 0,10,11
 506 -268 506 -268 537.5 -235.5 c 128,-1,12
 569 -203 569 -203 569 -154 c 0,13,14
 569 -110 569 -110 544 -79 c 128,-1,15
 519 -48 519 -48 473 -41 c 0,16,17
 438 -35 438 -35 407 -42 c 128,-1,18
 376 -49 376 -49 349.5 -65.5 c 128,-1,19
 323 -82 323 -82 299 -106 c 2,20,-1
 24 -383 l 1,21,-1
 -87 -266 l 1,22,-1
 143 -32 l 2,23,24
 213 38 213 38 299.5 74.5 c 128,-1,25
 386 111 386 111 467 111 c 0,26,27
 589 111 589 111 670 38.5 c 128,-1,28
 751 -34 751 -34 751 -154 c 0,29,30
 751 -272 751 -272 670.5 -345 c 128,-1,31
 590 -418 590 -418 454 -418 c 0,0,1
317 1490 m 1,32,-1
 317 0 l 1,33,-1
 142 0 l 1,34,-1
 142 1490 l 1,35,-1
 317 1490 l 1,32,-1
EndSplineSet
EndChar

StartChar: l.ss02
Encoding: 57424 57424 753
AltUni2: 00006c.ffffffff.0
Width: 517
GlyphClass: 2
Flags: W
AnchorPoint: "Anchor-1" 230 1490 basechar 0
AnchorPoint: "Anchor-0" 294 0 basechar 0
LayerCount: 2
Fore
SplineSet
403 -4 m 0,0,1
 267 -4 267 -4 204.5 57 c 128,-1,2
 142 118 142 118 142 243 c 2,3,-1
 142 1490 l 1,4,-1
 317 1490 l 1,5,-1
 317 275 l 2,6,7
 317 203 317 203 337 176.5 c 128,-1,8
 357 150 357 150 418 150 c 0,9,10
 436 150 436 150 450 151 c 128,-1,11
 464 152 464 152 474 154 c 1,12,-1
 492 5 l 1,13,14
 474 1 474 1 450.5 -1.5 c 128,-1,15
 427 -4 427 -4 403 -4 c 0,0,1
EndSplineSet
EndChar

StartChar: uni026C.ss02
Encoding: 57428 57428 757
AltUni2: 00026c.ffffffff.0
Width: 821
GlyphClass: 2
Flags: W
AnchorPoint: "Anchor-1" 513 1490 basechar 0
AnchorPoint: "Anchor-0" 577 0 basechar 0
LayerCount: 2
Fore
SplineSet
370 600 m 2,0,1
 253 600 253 600 174.5 633 c 128,-1,2
 96 666 96 666 57 727 c 128,-1,3
 18 788 18 788 18 870 c 0,4,5
 18 947 18 947 50 1006 c 128,-1,6
 82 1065 82 1065 138 1098.5 c 128,-1,7
 194 1132 194 1132 267 1132 c 0,8,9
 346 1132 346 1132 393 1094 c 128,-1,10
 440 1056 440 1056 461 991 c 128,-1,11
 482 926 482 926 482 844 c 2,12,-1
 482 802 l 1,13,-1
 426 802 l 1,14,-1
 426 862 l 2,15,16
 426 909 426 909 397 944.5 c 128,-1,17
 368 980 368 980 306 980 c 0,18,19
 260 980 260 980 229 946.5 c 128,-1,20
 198 913 198 913 198 866 c 0,21,22
 198 823 198 823 232 784.5 c 128,-1,23
 266 746 266 746 318 746 c 2,24,-1
 762 746 l 1,25,-1
 762 600 l 1,26,-1
 370 600 l 2,0,1
686 -4 m 0,27,28
 550 -4 550 -4 488 57 c 128,-1,29
 426 118 426 118 426 243 c 2,30,-1
 426 1490 l 1,31,-1
 601 1490 l 1,32,-1
 601 275 l 2,33,34
 601 203 601 203 621 176.5 c 128,-1,35
 641 150 641 150 701 150 c 0,36,37
 720 150 720 150 733.5 151 c 128,-1,38
 747 152 747 152 758 154 c 1,39,-1
 776 5 l 1,40,41
 758 1 758 1 734 -1.5 c 128,-1,42
 710 -4 710 -4 686 -4 c 0,27,28
EndSplineSet
EndChar

StartChar: l.sc
Encoding: 60952 60952 767
Width: 945
Flags: W
LayerCount: 2
Fore
SplineSet
142 0 m 1,0,-1
 142 1087 l 1,1,-1
 317 1087 l 1,2,-1
 317 163 l 1,3,-1
 871 163 l 1,4,-1
 871 0 l 1,5,-1
 142 0 l 1,0,-1
EndSplineSet
EndChar

StartChar: m
Encoding: 109 109 768
Width: 1756
GlyphClass: 2
Flags: W
AnchorPoint: "Anchor-1" 878 1087 basechar 0
AnchorPoint: "Anchor-0" 878 0 basechar 0
LayerCount: 2
Fore
SplineSet
142 0 m 1,0,-1
 142 1087 l 1,1,-1
 313 1087 l 1,2,-1
 313 854 l 1,3,-1
 296 854 l 1,4,5
 323 938 323 938 373 994 c 128,-1,6
 423 1050 423 1050 488.5 1078.5 c 128,-1,7
 554 1107 554 1107 626 1107 c 0,8,9
 749 1107 749 1107 830 1034.5 c 128,-1,10
 911 962 911 962 933 853 c 1,11,-1
 903 853 l 1,12,13
 925 928 925 928 976 985 c 128,-1,14
 1027 1042 1027 1042 1100.5 1074.5 c 128,-1,15
 1174 1107 1174 1107 1262 1107 c 0,16,17
 1359 1107 1359 1107 1439 1065 c 128,-1,18
 1519 1023 1519 1023 1566.5 938 c 128,-1,19
 1614 853 1614 853 1614 723 c 2,20,-1
 1614 0 l 1,21,-1
 1439 0 l 1,22,-1
 1439 721 l 2,23,24
 1439 842 1439 842 1370.5 894.5 c 128,-1,25
 1302 947 1302 947 1211 947 c 0,26,27
 1136 947 1136 947 1080.5 915 c 128,-1,28
 1025 883 1025 883 995.5 828 c 128,-1,29
 966 773 966 773 966 701 c 2,30,-1
 966 0 l 1,31,-1
 791 0 l 1,32,-1
 791 739 l 2,33,34
 791 833 791 833 728 890 c 128,-1,35
 665 947 665 947 569 947 c 0,36,37
 504 947 504 947 446 916.5 c 128,-1,38
 388 886 388 886 352.5 825 c 128,-1,39
 317 764 317 764 317 674 c 2,40,-1
 317 0 l 1,41,-1
 142 0 l 1,0,-1
EndSplineSet
Substitution2: "'smcp' Lowercase to Small Capitals in Latin lookup 69 subtable" m.sc
Substitution2: "'c2sc' Capitals to Small Capitals in Latin lookup 68 subtable" m.sc
Substitution2: "'sups' Superscript in Latin lookup 39 subtable" m.sups
Substitution2: "'subs' Subscript in Latin lookup 38 subtable" m.subs
Substitution2: "'sinf' Scientific Inferiors in Latin lookup 18 subtable" m.subs
AlternateSubs2: "'aalt' Access All Alternates in Latin lookup 1 subtable" m.sups m.subs m.sc
EndChar

StartChar: uni0271
Encoding: 625 625 769
Width: 1756
GlyphClass: 2
Flags: W
AnchorPoint: "Anchor-1" 878 1087 basechar 0
AnchorPoint: "Anchor-0" 878 0 basechar 0
LayerCount: 2
Fore
SplineSet
1328 -422 m 0,0,1
 1295 -422 1295 -422 1269 -421 c 128,-1,2
 1243 -420 1243 -420 1225 -418 c 1,3,-1
 1225 -269 l 1,4,5
 1240 -270 1240 -270 1265.5 -270.5 c 128,-1,6
 1291 -271 1291 -271 1304 -271 c 0,7,8
 1378 -271 1378 -271 1408.5 -247 c 128,-1,9
 1439 -223 1439 -223 1439 -170 c 2,10,-1
 1439 0 l 1,11,-1
 1614 0 l 1,12,-1
 1614 -170 l 2,13,14
 1614 -293 1614 -293 1541.5 -357.5 c 128,-1,15
 1469 -422 1469 -422 1328 -422 c 0,0,1
142 0 m 1,16,-1
 142 1087 l 1,17,-1
 313 1087 l 1,18,-1
 313 854 l 1,19,-1
 296 854 l 1,20,21
 323 938 323 938 373 994 c 128,-1,22
 423 1050 423 1050 488.5 1078.5 c 128,-1,23
 554 1107 554 1107 626 1107 c 0,24,25
 749 1107 749 1107 830 1034.5 c 128,-1,26
 911 962 911 962 933 853 c 1,27,-1
 903 853 l 1,28,29
 925 928 925 928 976 985 c 128,-1,30
 1027 1042 1027 1042 1100.5 1074.5 c 128,-1,31
 1174 1107 1174 1107 1263 1107 c 0,32,33
 1360 1107 1360 1107 1439.5 1065 c 128,-1,34
 1519 1023 1519 1023 1566.5 938 c 128,-1,35
 1614 853 1614 853 1614 723 c 2,36,-1
 1614 0 l 1,37,-1
 1439 0 l 1,38,-1
 1439 721 l 2,39,40
 1439 843 1439 843 1370.5 895 c 128,-1,41
 1302 947 1302 947 1212 947 c 0,42,43
 1136 947 1136 947 1080.5 915.5 c 128,-1,44
 1025 884 1025 884 995.5 828.5 c 128,-1,45
 966 773 966 773 966 701 c 2,46,-1
 966 0 l 1,47,-1
 791 0 l 1,48,-1
 791 739 l 2,49,50
 791 833 791 833 728 890 c 128,-1,51
 665 947 665 947 570 947 c 0,52,53
 504 947 504 947 446 916.5 c 128,-1,54
 388 886 388 886 352.5 825 c 128,-1,55
 317 764 317 764 317 674 c 2,56,-1
 317 0 l 1,57,-1
 142 0 l 1,16,-1
EndSplineSet
EndChar

StartChar: mturn
Encoding: 623 623 770
Width: 1756
GlyphClass: 2
Flags: W
AnchorPoint: "Anchor-1" 875 1087 basechar 0
AnchorPoint: "Anchor-0" 875 0 basechar 0
LayerCount: 2
Fore
SplineSet
1614 1087 m 1,0,-1
 1614 0 l 1,1,-1
 1444 0 l 1,2,-1
 1443 233 l 1,3,-1
 1461 233 l 1,4,5
 1435 150 1435 150 1384.5 93.5 c 128,-1,6
 1334 37 1334 37 1268 8.5 c 128,-1,7
 1202 -20 1202 -20 1130 -20 c 0,8,9
 1008 -20 1008 -20 927 53 c 128,-1,10
 846 126 846 126 824 234 c 1,11,-1
 853 234 l 1,12,13
 832 160 832 160 781 102.5 c 128,-1,14
 730 45 730 45 656.5 12.5 c 128,-1,15
 583 -20 583 -20 494 -20 c 0,16,17
 397 -20 397 -20 317 22 c 128,-1,18
 237 64 237 64 189.5 149.5 c 128,-1,19
 142 235 142 235 142 364 c 2,20,-1
 142 1087 l 1,21,-1
 318 1087 l 1,22,-1
 318 367 l 2,23,24
 318 245 318 245 386 192.5 c 128,-1,25
 454 140 454 140 545 140 c 0,26,27
 622 140 622 140 676.5 172 c 128,-1,28
 731 204 731 204 761 259.5 c 128,-1,29
 791 315 791 315 791 386 c 2,30,-1
 791 1087 l 1,31,-1
 966 1087 l 1,32,-1
 966 349 l 2,33,34
 966 255 966 255 1029 197.5 c 128,-1,35
 1092 140 1092 140 1186 140 c 0,36,37
 1253 140 1253 140 1310.5 171 c 128,-1,38
 1368 202 1368 202 1403.5 262.5 c 128,-1,39
 1439 323 1439 323 1439 413 c 2,40,-1
 1439 1087 l 1,41,-1
 1614 1087 l 1,0,-1
EndSplineSet
EndChar

StartChar: mturndescend
Encoding: 624 624 771
Width: 1756
GlyphClass: 2
Flags: W
AnchorPoint: "Anchor-1" 875 1087 basechar 0
AnchorPoint: "Anchor-0" 875 0 basechar 0
LayerCount: 2
Fore
SplineSet
1438 -418 m 1,0,-1
 1438 0 l 1,1,-1
 1608 0 l 1,2,-1
 1608 -418 l 1,3,-1
 1438 -418 l 1,0,-1
1614 1087 m 1,4,-1
 1614 0 l 1,5,-1
 1444 0 l 1,6,-1
 1443 233 l 1,7,-1
 1461 233 l 1,8,9
 1435 150 1435 150 1384.5 93.5 c 128,-1,10
 1334 37 1334 37 1268 8.5 c 128,-1,11
 1202 -20 1202 -20 1130 -20 c 0,12,13
 1008 -20 1008 -20 927 53 c 128,-1,14
 846 126 846 126 824 234 c 1,15,-1
 853 234 l 1,16,17
 832 160 832 160 781 102.5 c 128,-1,18
 730 45 730 45 656.5 12.5 c 128,-1,19
 583 -20 583 -20 494 -20 c 0,20,21
 397 -20 397 -20 317 22 c 128,-1,22
 237 64 237 64 189.5 149.5 c 128,-1,23
 142 235 142 235 142 364 c 2,24,-1
 142 1087 l 1,25,-1
 318 1087 l 1,26,-1
 318 367 l 2,27,28
 318 245 318 245 386 192.5 c 128,-1,29
 454 140 454 140 545 140 c 0,30,31
 622 140 622 140 676.5 172 c 128,-1,32
 731 204 731 204 761 259.5 c 128,-1,33
 791 315 791 315 791 386 c 2,34,-1
 791 1087 l 1,35,-1
 966 1087 l 1,36,-1
 966 349 l 2,37,38
 966 255 966 255 1029 197.5 c 128,-1,39
 1092 140 1092 140 1186 140 c 0,40,41
 1253 140 1253 140 1310.5 171 c 128,-1,42
 1368 202 1368 202 1403.5 262.5 c 128,-1,43
 1439 323 1439 323 1439 413 c 2,44,-1
 1439 1087 l 1,45,-1
 1614 1087 l 1,4,-1
EndSplineSet
EndChar

StartChar: n
Encoding: 110 110 775
Width: 1165
GlyphClass: 2
Flags: W
AnchorPoint: "Anchor-1" 583 1087 basechar 0
AnchorPoint: "Anchor-0" 583 0 basechar 0
LayerCount: 2
Fore
SplineSet
317 644 m 2,0,-1
 317 0 l 1,1,-1
 142 0 l 1,2,-1
 142 1087 l 1,3,-1
 312 1087 l 1,4,-1
 312 824 l 1,5,-1
 276 824 l 1,6,7
 327 973 327 973 420.5 1038.5 c 128,-1,8
 514 1104 514 1104 640 1104 c 0,9,10
 750 1104 750 1104 836.5 1057.5 c 128,-1,11
 923 1011 923 1011 973 918 c 128,-1,12
 1023 825 1023 825 1023 683 c 2,13,-1
 1023 0 l 1,14,-1
 848 0 l 1,15,-1
 848 670 l 2,16,17
 848 803 848 803 781.5 874 c 128,-1,18
 715 945 715 945 597 945 c 0,19,20
 519 945 519 945 455.5 912 c 128,-1,21
 392 879 392 879 354.5 812.5 c 128,-1,22
 317 746 317 746 317 644 c 2,0,-1
EndSplineSet
Substitution2: "'smcp' Lowercase to Small Capitals in Latin lookup 69 subtable" n.sc
Substitution2: "'c2sc' Capitals to Small Capitals in Latin lookup 68 subtable" n.sc
Substitution2: "'sups' Superscript in Latin lookup 39 subtable" n.sups
Substitution2: "'subs' Subscript in Latin lookup 38 subtable" n.subs
Substitution2: "'numr' Numerators in Latin lookup 19 subtable" n.numr
Substitution2: "'sinf' Scientific Inferiors in Latin lookup 18 subtable" n.subs
AlternateSubs2: "'aalt' Access All Alternates in Latin lookup 1 subtable" n.sc n.numr n.sups n.subs
EndChar

StartChar: nrthook
Encoding: 627 627 777
Width: 1165
GlyphClass: 2
Flags: W
AnchorPoint: "Anchor-1" 583 1087 basechar 0
AnchorPoint: "Anchor-0" 583 0 basechar 0
LayerCount: 2
Fore
SplineSet
1136 -422 m 0,0,1
 995 -422 995 -422 922 -357.5 c 128,-1,2
 849 -293 849 -293 849 -170 c 2,3,-1
 849 0 l 1,4,-1
 1024 0 l 1,5,-1
 1024 -170 l 2,6,7
 1024 -223 1024 -223 1054.5 -247 c 128,-1,8
 1085 -271 1085 -271 1159 -271 c 0,9,10
 1173 -271 1173 -271 1197.5 -270.5 c 128,-1,11
 1222 -270 1222 -270 1238 -269 c 1,12,-1
 1238 -418 l 1,13,14
 1220 -420 1220 -420 1194.5 -421 c 128,-1,15
 1169 -422 1169 -422 1136 -422 c 0,0,1
317 644 m 2,16,-1
 317 0 l 1,17,-1
 142 0 l 1,18,-1
 142 1087 l 1,19,-1
 312 1087 l 1,20,-1
 312 824 l 1,21,-1
 276 824 l 1,22,23
 327 973 327 973 420.5 1038.5 c 128,-1,24
 514 1104 514 1104 640 1104 c 0,25,26
 750 1104 750 1104 836.5 1057.5 c 128,-1,27
 923 1011 923 1011 973 918 c 128,-1,28
 1023 825 1023 825 1023 683 c 2,29,-1
 1023 0 l 1,30,-1
 848 0 l 1,31,-1
 848 670 l 2,32,33
 848 803 848 803 781.5 874 c 128,-1,34
 715 945 715 945 597 945 c 0,35,36
 519 945 519 945 455.5 912 c 128,-1,37
 392 879 392 879 354.5 812.5 c 128,-1,38
 317 746 317 746 317 644 c 2,16,-1
EndSplineSet
EndChar

StartChar: eng
Encoding: 331 331 778
Width: 1165
GlyphClass: 2
Flags: W
AnchorPoint: "Anchor-1" 583 1087 basechar 0
AnchorPoint: "Anchor-0" 583 0 basechar 0
LayerCount: 2
Fore
SplineSet
629 -418 m 1,0,-1
 629 -260 l 1,1,2
 646 -262 646 -262 676 -262.5 c 128,-1,3
 706 -263 706 -263 718 -263 c 0,4,5
 792 -263 792 -263 820 -239 c 128,-1,6
 848 -215 848 -215 848 -162 c 2,7,-1
 848 0 l 1,8,-1
 1024 0 l 1,9,-1
 1024 -170 l 2,10,11
 1024 -293 1024 -293 950.5 -357.5 c 128,-1,12
 877 -422 877 -422 736 -422 c 0,13,14
 703 -422 703 -422 675 -421 c 128,-1,15
 647 -420 647 -420 629 -418 c 1,0,-1
317 644 m 2,16,-1
 317 0 l 1,17,-1
 142 0 l 1,18,-1
 142 1087 l 1,19,-1
 312 1087 l 1,20,-1
 312 824 l 1,21,-1
 276 824 l 1,22,23
 327 973 327 973 420.5 1038.5 c 128,-1,24
 514 1104 514 1104 640 1104 c 0,25,26
 750 1104 750 1104 836.5 1057.5 c 128,-1,27
 923 1011 923 1011 973 918 c 128,-1,28
 1023 825 1023 825 1023 683 c 2,29,-1
 1023 0 l 1,30,-1
 848 0 l 1,31,-1
 848 670 l 2,32,33
 848 803 848 803 781.5 874 c 128,-1,34
 715 945 715 945 597 945 c 0,35,36
 519 945 519 945 455.5 912 c 128,-1,37
 392 879 392 879 354.5 812.5 c 128,-1,38
 317 746 317 746 317 644 c 2,16,-1
EndSplineSet
EndChar

StartChar: uni0235
Encoding: 565 565 779
Width: 1485
GlyphClass: 2
Flags: W
AnchorPoint: "Anchor-1" 583 1087 basechar 0
AnchorPoint: "Anchor-0" 583 0 basechar 0
LayerCount: 2
Fore
SplineSet
1161 -418 m 0,0,1
 1048 -418 1048 -418 979.5 -370.5 c 128,-1,2
 911 -323 911 -323 880 -250 c 128,-1,3
 849 -177 849 -177 849 -102 c 2,4,-1
 849 243 l 1,5,-1
 1024 243 l 1,6,-1
 1024 -120 l 2,7,8
 1024 -192 1024 -192 1065 -230 c 128,-1,9
 1106 -268 1106 -268 1161 -268 c 0,10,11
 1212 -268 1212 -268 1244 -235.5 c 128,-1,12
 1276 -203 1276 -203 1276 -154 c 0,13,14
 1276 -110 1276 -110 1250.5 -79 c 128,-1,15
 1225 -48 1225 -48 1179 -41 c 0,16,17
 1145 -35 1145 -35 1114 -42 c 128,-1,18
 1083 -49 1083 -49 1056.5 -65.5 c 128,-1,19
 1030 -82 1030 -82 1006 -106 c 2,20,-1
 730 -383 l 1,21,-1
 619 -266 l 1,22,-1
 850 -32 l 2,23,24
 919 38 919 38 1006 74.5 c 128,-1,25
 1093 111 1093 111 1174 111 c 0,26,27
 1296 111 1296 111 1376.5 38.5 c 128,-1,28
 1457 -34 1457 -34 1457 -154 c 0,29,30
 1457 -272 1457 -272 1377 -345 c 128,-1,31
 1297 -418 1297 -418 1161 -418 c 0,0,1
317 644 m 2,32,-1
 317 0 l 1,33,-1
 142 0 l 1,34,-1
 142 1087 l 1,35,-1
 312 1087 l 1,36,-1
 312 824 l 1,37,-1
 276 824 l 1,38,39
 327 973 327 973 420.5 1038.5 c 128,-1,40
 514 1104 514 1104 640 1104 c 0,41,42
 750 1104 750 1104 836.5 1057.5 c 128,-1,43
 923 1011 923 1011 973 918 c 128,-1,44
 1023 825 1023 825 1023 683 c 2,45,-1
 1023 0 l 1,46,-1
 848 0 l 1,47,-1
 848 670 l 2,48,49
 848 803 848 803 781.5 874 c 128,-1,50
 715 945 715 945 597 945 c 0,51,52
 519 945 519 945 455.5 912 c 128,-1,53
 392 879 392 879 354.5 812.5 c 128,-1,54
 317 746 317 746 317 644 c 2,32,-1
EndSplineSet
EndChar

StartChar: nlfthook
Encoding: 626 626 780
Width: 1165
GlyphClass: 2
Flags: W
AnchorPoint: "Anchor-1" 583 1087 basechar 0
AnchorPoint: "Anchor-0" 583 0 basechar 0
LayerCount: 2
Fore
SplineSet
32 -422 m 0,0,1
 -2 -422 -2 -422 -28 -421 c 128,-1,2
 -54 -420 -54 -420 -72 -418 c 1,3,-1
 -72 -269 l 1,4,5
 -56 -270 -56 -270 -31 -270.5 c 128,-1,6
 -6 -271 -6 -271 8 -271 c 0,7,8
 81 -271 81 -271 111.5 -247 c 128,-1,9
 142 -223 142 -223 142 -170 c 2,10,-1
 142 0 l 1,11,-1
 318 0 l 1,12,-1
 318 -170 l 2,13,14
 318 -293 318 -293 245 -357.5 c 128,-1,15
 172 -422 172 -422 32 -422 c 0,0,1
317 644 m 2,16,-1
 317 0 l 1,17,-1
 142 0 l 1,18,-1
 142 1087 l 1,19,-1
 312 1087 l 1,20,-1
 312 824 l 1,21,-1
 276 824 l 1,22,23
 327 973 327 973 420.5 1038.5 c 128,-1,24
 514 1104 514 1104 640 1104 c 0,25,26
 750 1104 750 1104 836.5 1057.5 c 128,-1,27
 923 1011 923 1011 973 918 c 128,-1,28
 1023 825 1023 825 1023 683 c 2,29,-1
 1023 0 l 1,30,-1
 848 0 l 1,31,-1
 848 670 l 2,32,33
 848 803 848 803 781.5 874 c 128,-1,34
 715 945 715 945 597 945 c 0,35,36
 519 945 519 945 455.5 912 c 128,-1,37
 392 879 392 879 354.5 812.5 c 128,-1,38
 317 746 317 746 317 644 c 2,16,-1
EndSplineSet
EndChar

StartChar: n.sc
Encoding: 60953 60953 791
Width: 1243
GlyphClass: 2
Flags: W
AnchorPoint: "Anchor-1" 622 1087 basechar 0
AnchorPoint: "Anchor-0" 622 0 basechar 0
LayerCount: 2
Fore
SplineSet
142 0 m 1,0,-1
 142 1087 l 1,1,-1
 372 1087 l 1,2,-1
 777 456 l 2,3,4
 835 365 835 365 880 285.5 c 128,-1,5
 925 206 925 206 966 126 c 1,6,-1
 931 126 l 1,7,8
 930 179 930 179 929 232.5 c 128,-1,9
 928 286 928 286 927.5 341.5 c 128,-1,10
 927 397 927 397 927 456 c 2,11,-1
 927 1087 l 1,12,-1
 1101 1087 l 1,13,-1
 1101 0 l 1,14,-1
 876 0 l 1,15,-1
 470 633 l 2,16,17
 410 725 410 725 364.5 805 c 128,-1,18
 319 885 319 885 277 964 c 1,19,-1
 313 964 l 1,20,21
 315 885 315 885 316 803.5 c 128,-1,22
 317 722 317 722 317 633 c 2,23,-1
 317 0 l 1,24,-1
 142 0 l 1,0,-1
EndSplineSet
EndChar

StartChar: o
Encoding: 111 111 792
Width: 1176
GlyphClass: 2
Flags: W
AnchorPoint: "Anchor-4" 1088 539 basechar 0
AnchorPoint: "Anchor-1" 588 1087 basechar 0
AnchorPoint: "Anchor-0" 588 0 basechar 0
LayerCount: 2
Fore
SplineSet
588 -24 m 0,0,1
 439 -24 439 -24 326.5 47.5 c 128,-1,2
 214 119 214 119 151 246 c 128,-1,3
 88 373 88 373 88 539 c 0,4,5
 88 708 88 708 151 835.5 c 128,-1,6
 214 963 214 963 326.5 1034.5 c 128,-1,7
 439 1106 439 1106 588 1106 c 0,8,9
 738 1106 738 1106 850.5 1034.5 c 128,-1,10
 963 963 963 963 1025.5 835.5 c 128,-1,11
 1088 708 1088 708 1088 539 c 0,12,13
 1088 373 1088 373 1025.5 246 c 128,-1,14
 963 119 963 119 850.5 47.5 c 128,-1,15
 738 -24 738 -24 588 -24 c 0,0,1
588 134 m 256,16,17
 694 134 694 134 766 187.5 c 128,-1,18
 838 241 838 241 874.5 333 c 128,-1,19
 911 425 911 425 911 539 c 0,20,21
 911 655 911 655 874.5 747.5 c 128,-1,22
 838 840 838 840 766 894.5 c 128,-1,23
 694 949 694 949 588 949 c 256,24,25
 482 949 482 949 410.5 895 c 128,-1,26
 339 841 339 841 302.5 748.5 c 128,-1,27
 266 656 266 656 266 539 c 0,28,29
 266 424 266 424 302.5 332.5 c 128,-1,30
 339 241 339 241 410.5 187.5 c 128,-1,31
 482 134 482 134 588 134 c 256,16,17
EndSplineSet
Substitution2: "Single Substitution lookup 44 subtable" ordmasculine
Substitution2: "'sups' Superscript in Latin lookup 39 subtable" o.sups
Substitution2: "'subs' Subscript in Latin lookup 38 subtable" o.subs
Substitution2: "'sinf' Scientific Inferiors in Latin lookup 18 subtable" o.subs
AlternateSubs2: "'aalt' Access All Alternates in Latin lookup 1 subtable" ordmasculine o.sups o.subs
EndChar

StartChar: ohorn
Encoding: 417 417 796
Width: 1173
GlyphClass: 2
Flags: W
AnchorPoint: "Anchor-4" 1088 539 basechar 0
AnchorPoint: "Anchor-1" 588 1087 basechar 0
AnchorPoint: "Anchor-0" 588 0 basechar 0
LayerCount: 2
Fore
SplineSet
587 987 m 1,0,-1
 587 1106 l 1,1,2
 633 1106 633 1106 666 1104 c 128,-1,3
 699 1102 699 1102 731.5 1099 c 128,-1,4
 764 1096 764 1096 806.5 1093.5 c 128,-1,5
 849 1091 849 1091 913 1091 c 0,6,7
 947 1091 947 1091 947 1123 c 2,8,-1
 947 1331 l 1,9,-1
 1111 1331 l 1,10,-1
 1111 1137 l 2,11,12
 1111 1061 1111 1061 1069.5 1024 c 128,-1,13
 1028 987 1028 987 941 987 c 256,14,15
 854 987 854 987 764 987 c 128,-1,16
 674 987 674 987 587 987 c 1,0,-1
588 -24 m 0,17,18
 439 -24 439 -24 326.5 47.5 c 128,-1,19
 214 119 214 119 151 246 c 128,-1,20
 88 373 88 373 88 539 c 0,21,22
 88 708 88 708 151 835.5 c 128,-1,23
 214 963 214 963 326.5 1034.5 c 128,-1,24
 439 1106 439 1106 588 1106 c 0,25,26
 738 1106 738 1106 850.5 1034.5 c 128,-1,27
 963 963 963 963 1025.5 835.5 c 128,-1,28
 1088 708 1088 708 1088 539 c 0,29,30
 1088 373 1088 373 1025.5 246 c 128,-1,31
 963 119 963 119 850.5 47.5 c 128,-1,32
 738 -24 738 -24 588 -24 c 0,17,18
588 134 m 256,33,34
 694 134 694 134 766 187.5 c 128,-1,35
 838 241 838 241 874.5 333 c 128,-1,36
 911 425 911 425 911 539 c 0,37,38
 911 655 911 655 874.5 747.5 c 128,-1,39
 838 840 838 840 766 894.5 c 128,-1,40
 694 949 694 949 588 949 c 256,41,42
 482 949 482 949 410.5 895 c 128,-1,43
 339 841 339 841 302.5 748.5 c 128,-1,44
 266 656 266 656 266 539 c 0,45,46
 266 424 266 424 302.5 332.5 c 128,-1,47
 339 241 339 241 410.5 187.5 c 128,-1,48
 482 134 482 134 588 134 c 256,33,34
EndSplineSet
EndChar

StartChar: uni1EE1
Encoding: 7905 7905 826
Width: 1173
GlyphClass: 2
Flags: W
AnchorPoint: "Anchor-4" 1088 539 basechar 0
AnchorPoint: "Anchor-1" 588 1498 basechar 0
AnchorPoint: "Anchor-0" 588 0 basechar 0
LayerCount: 2
Fore
SplineSet
588 -24 m 0,0,1
 439 -24 439 -24 326.5 47.5 c 128,-1,2
 214 119 214 119 151 246 c 128,-1,3
 88 373 88 373 88 539 c 0,4,5
 88 708 88 708 151 835.5 c 128,-1,6
 214 963 214 963 326.5 1034.5 c 128,-1,7
 439 1106 439 1106 588 1106 c 0,8,9
 738 1106 738 1106 850.5 1034.5 c 128,-1,10
 963 963 963 963 1025.5 835.5 c 128,-1,11
 1088 708 1088 708 1088 539 c 0,12,13
 1088 373 1088 373 1025.5 246 c 128,-1,14
 963 119 963 119 850.5 47.5 c 128,-1,15
 738 -24 738 -24 588 -24 c 0,0,1
588 134 m 256,16,17
 694 134 694 134 766 187.5 c 128,-1,18
 838 241 838 241 874.5 333 c 128,-1,19
 911 425 911 425 911 539 c 0,20,21
 911 655 911 655 874.5 747.5 c 128,-1,22
 838 840 838 840 766 894.5 c 128,-1,23
 694 949 694 949 588 949 c 256,24,25
 482 949 482 949 410.5 895 c 128,-1,26
 339 841 339 841 302.5 748.5 c 128,-1,27
 266 656 266 656 266 539 c 0,28,29
 266 424 266 424 302.5 332.5 c 128,-1,30
 339 241 339 241 410.5 187.5 c 128,-1,31
 482 134 482 134 588 134 c 256,16,17
587 987 m 1,32,-1
 587 1106 l 1,33,34
 633 1106 633 1106 666 1104 c 128,-1,35
 699 1102 699 1102 731.5 1099 c 128,-1,36
 764 1096 764 1096 806.5 1093.5 c 128,-1,37
 849 1091 849 1091 913 1091 c 0,38,39
 947 1091 947 1091 947 1123 c 2,40,-1
 947 1331 l 1,41,-1
 1111 1331 l 1,42,-1
 1111 1137 l 2,43,44
 1111 1061 1111 1061 1069.5 1024 c 128,-1,45
 1028 987 1028 987 941 987 c 256,46,47
 854 987 854 987 764 987 c 128,-1,48
 674 987 674 987 587 987 c 1,32,-1
719 1286 m 0,49,50
 682 1286 682 1286 647 1298.5 c 128,-1,51
 612 1311 612 1311 580 1327.5 c 128,-1,52
 548 1344 548 1344 521.5 1356 c 128,-1,53
 495 1368 495 1368 477 1368 c 0,54,55
 451 1368 451 1368 438.5 1343 c 128,-1,56
 426 1318 426 1318 424 1290 c 1,57,-1
 300 1290 l 1,58,59
 303 1379 303 1379 341.5 1437.5 c 128,-1,60
 380 1496 380 1496 460 1496 c 0,61,62
 498 1496 498 1496 531 1483 c 128,-1,63
 564 1470 564 1470 593 1453.5 c 128,-1,64
 622 1437 622 1437 648.5 1424 c 128,-1,65
 675 1411 675 1411 700 1411 c 256,66,67
 725 1411 725 1411 738 1430 c 128,-1,68
 751 1449 751 1449 756 1492 c 1,69,-1
 877 1492 l 1,70,71
 874 1399 874 1399 833 1342.5 c 128,-1,72
 792 1286 792 1286 719 1286 c 0,49,50
EndSplineSet
Ligature2: "'ccmp' Glyph Composition/Decomposition in Latin lookup 6 subtable" ohorn tildecomb
EndChar

StartChar: obar
Encoding: 629 629 839
Width: 1176
GlyphClass: 2
Flags: W
AnchorPoint: "Anchor-4" 1088 539 basechar 0
AnchorPoint: "Anchor-1" 588 1087 basechar 0
AnchorPoint: "Anchor-0" 588 0 basechar 0
LayerCount: 2
Fore
SplineSet
978 617 m 1,0,-1
 978 470 l 1,1,-1
 198 470 l 1,2,-1
 198 617 l 1,3,-1
 978 617 l 1,0,-1
588 -24 m 0,4,5
 439 -24 439 -24 326.5 47.5 c 128,-1,6
 214 119 214 119 151 246 c 128,-1,7
 88 373 88 373 88 539 c 0,8,9
 88 708 88 708 151 835.5 c 128,-1,10
 214 963 214 963 326.5 1034.5 c 128,-1,11
 439 1106 439 1106 588 1106 c 0,12,13
 738 1106 738 1106 850.5 1034.5 c 128,-1,14
 963 963 963 963 1025.5 835.5 c 128,-1,15
 1088 708 1088 708 1088 539 c 0,16,17
 1088 373 1088 373 1025.5 246 c 128,-1,18
 963 119 963 119 850.5 47.5 c 128,-1,19
 738 -24 738 -24 588 -24 c 0,4,5
588 134 m 256,20,21
 694 134 694 134 766 187.5 c 128,-1,22
 838 241 838 241 874.5 333 c 128,-1,23
 911 425 911 425 911 539 c 0,24,25
 911 655 911 655 874.5 747.5 c 128,-1,26
 838 840 838 840 766 894.5 c 128,-1,27
 694 949 694 949 588 949 c 256,28,29
 482 949 482 949 410.5 895 c 128,-1,30
 339 841 339 841 302.5 748.5 c 128,-1,31
 266 656 266 656 266 539 c 0,32,33
 266 424 266 424 302.5 332.5 c 128,-1,34
 339 241 339 241 410.5 187.5 c 128,-1,35
 482 134 482 134 588 134 c 256,20,21
EndSplineSet
EndChar

StartChar: oe.sc
Encoding: 60954 60954 843
Width: 1618
Flags: W
LayerCount: 2
Fore
SplineSet
577 0 m 2,0,1
 429 0 429 0 319 70.5 c 128,-1,2
 209 141 209 141 148.5 262.5 c 128,-1,3
 88 384 88 384 88 536 c 2,4,-1
 88 552 l 2,5,6
 88 704 88 704 148 825 c 128,-1,7
 208 946 208 946 317 1016.5 c 128,-1,8
 426 1087 426 1087 573 1087 c 2,9,-1
 909 1087 l 1,10,-1
 909 930 l 1,11,-1
 567 930 l 2,12,13
 474 930 474 930 406 879.5 c 128,-1,14
 338 829 338 829 301.5 743.5 c 128,-1,15
 265 658 265 658 265 552 c 2,16,-1
 265 536 l 2,17,18
 265 430 265 430 302.5 344 c 128,-1,19
 340 258 340 258 408 207.5 c 128,-1,20
 476 157 476 157 571 157 c 2,21,-1
 909 157 l 1,22,-1
 909 0 l 1,23,-1
 577 0 l 2,0,1
926 0 m 1,24,-1
 926 157 l 1,25,-1
 1561 157 l 1,26,-1
 1561 0 l 1,27,-1
 926 0 l 1,24,-1
801 0 m 1,28,-1
 801 1087 l 1,29,-1
 975 1087 l 1,30,-1
 975 0 l 1,31,-1
 801 0 l 1,28,-1
926 476 m 1,32,-1
 926 630 l 1,33,-1
 1474 630 l 1,34,-1
 1474 476 l 1,35,-1
 926 476 l 1,32,-1
926 930 m 1,36,-1
 926 1087 l 1,37,-1
 1561 1087 l 1,38,-1
 1561 930 l 1,39,-1
 926 930 l 1,36,-1
EndSplineSet
EndChar

StartChar: p
Encoding: 112 112 845
Width: 1206
GlyphClass: 2
Flags: W
AnchorPoint: "Anchor-1" 655 1087 basechar 0
AnchorPoint: "Anchor-0" 229 -417 basechar 0
LayerCount: 2
Fore
SplineSet
142 -418 m 1,0,-1
 142 1087 l 1,1,-1
 312 1087 l 1,2,-1
 312 920 l 1,3,-1
 323 920 l 1,4,5
 350 964 350 964 393 1006.5 c 128,-1,6
 436 1049 436 1049 500 1076.5 c 128,-1,7
 564 1104 564 1104 652 1104 c 0,8,9
 791 1104 791 1104 896 1034.5 c 128,-1,10
 1001 965 1001 965 1059.5 838.5 c 128,-1,11
 1118 712 1118 712 1118 542 c 256,12,13
 1118 372 1118 372 1059.5 245.5 c 128,-1,14
 1001 119 1001 119 896.5 48.5 c 128,-1,15
 792 -22 792 -22 653 -22 c 0,16,17
 566 -22 566 -22 503 6 c 128,-1,18
 440 34 440 34 397 77.5 c 128,-1,19
 354 121 354 121 325 167 c 1,20,-1
 317 167 l 1,21,-1
 317 -418 l 1,22,-1
 142 -418 l 1,0,-1
626 135 m 256,23,24
 725 135 725 135 795 186 c 128,-1,25
 865 237 865 237 903 328.5 c 128,-1,26
 941 420 941 420 941 543 c 256,27,28
 941 666 941 666 903.5 757 c 128,-1,29
 866 848 866 848 795.5 898 c 128,-1,30
 725 948 725 948 626 948 c 0,31,32
 526 948 526 948 455 897.5 c 128,-1,33
 384 847 384 847 346.5 756 c 128,-1,34
 309 665 309 665 309 543 c 0,35,36
 309 422 309 422 346.5 330 c 128,-1,37
 384 238 384 238 455.5 186.5 c 128,-1,38
 527 135 527 135 626 135 c 256,23,24
EndSplineSet
Substitution2: "'sups' Superscript in Latin lookup 39 subtable" p.sups
Substitution2: "'subs' Subscript in Latin lookup 38 subtable" p.subs
Substitution2: "'sinf' Scientific Inferiors in Latin lookup 18 subtable" p.subs
AlternateSubs2: "'aalt' Access All Alternates in Latin lookup 1 subtable" p.sups p.subs
EndChar

StartChar: uni048F
Encoding: 1167 1167 846
Width: 1216
GlyphClass: 2
Flags: W
AnchorPoint: "Anchor-1" 655 1087 basechar 0
AnchorPoint: "Anchor-0" 229 -417 basechar 0
LayerCount: 2
Fore
SplineSet
782 395 m 1,0,-1
 1120 19 l 1,1,-1
 1004 -91 l 1,2,-1
 666 285 l 1,3,-1
 782 395 l 1,0,-1
142 -418 m 1,4,-1
 142 1087 l 1,5,-1
 312 1087 l 1,6,-1
 312 920 l 1,7,-1
 323 920 l 1,8,9
 350 964 350 964 393 1006.5 c 128,-1,10
 436 1049 436 1049 500 1076.5 c 128,-1,11
 564 1104 564 1104 652 1104 c 0,12,13
 791 1104 791 1104 896 1034.5 c 128,-1,14
 1001 965 1001 965 1059.5 838.5 c 128,-1,15
 1118 712 1118 712 1118 542 c 256,16,17
 1118 372 1118 372 1059.5 245.5 c 128,-1,18
 1001 119 1001 119 896.5 48.5 c 128,-1,19
 792 -22 792 -22 653 -22 c 0,20,21
 566 -22 566 -22 503 6 c 128,-1,22
 440 34 440 34 397 77.5 c 128,-1,23
 354 121 354 121 325 167 c 1,24,-1
 317 167 l 1,25,-1
 317 -418 l 1,26,-1
 142 -418 l 1,4,-1
626 135 m 256,27,28
 725 135 725 135 795 186 c 128,-1,29
 865 237 865 237 903 328.5 c 128,-1,30
 941 420 941 420 941 543 c 256,31,32
 941 666 941 666 903.5 757 c 128,-1,33
 866 848 866 848 795.5 898 c 128,-1,34
 725 948 725 948 626 948 c 0,35,36
 526 948 526 948 455 897.5 c 128,-1,37
 384 847 384 847 346.5 756 c 128,-1,38
 309 665 309 665 309 543 c 0,39,40
 309 422 309 422 346.5 330 c 128,-1,41
 384 238 384 238 455.5 186.5 c 128,-1,42
 527 135 527 135 626 135 c 256,27,28
EndSplineSet
EndChar

StartChar: uni01A5
Encoding: 421 421 847
Width: 1206
GlyphClass: 2
Flags: W
AnchorPoint: "Anchor-1" 655 1087 basechar 0
AnchorPoint: "Anchor-0" 229 -417 basechar 0
LayerCount: 2
Fore
SplineSet
142 871 m 1,0,-1
 142 1246 l 2,1,2
 142 1369 142 1369 218 1433 c 128,-1,3
 294 1497 294 1497 434 1497 c 0,4,5
 468 1497 468 1497 493 1496 c 128,-1,6
 518 1495 518 1495 536 1493 c 1,7,-1
 536 1344 l 1,8,9
 521 1345 521 1345 496 1345.5 c 128,-1,10
 471 1346 471 1346 457 1346 c 0,11,12
 383 1346 383 1346 350 1322 c 128,-1,13
 317 1298 317 1298 317 1246 c 2,14,-1
 317 871 l 1,15,-1
 142 871 l 1,0,-1
142 -418 m 1,16,-1
 142 1087 l 1,17,-1
 312 1087 l 1,18,-1
 312 920 l 1,19,-1
 323 920 l 1,20,21
 350 964 350 964 393 1006.5 c 128,-1,22
 436 1049 436 1049 500 1076.5 c 128,-1,23
 564 1104 564 1104 652 1104 c 0,24,25
 791 1104 791 1104 896 1034.5 c 128,-1,26
 1001 965 1001 965 1059.5 838.5 c 128,-1,27
 1118 712 1118 712 1118 542 c 256,28,29
 1118 372 1118 372 1059.5 245.5 c 128,-1,30
 1001 119 1001 119 896.5 48.5 c 128,-1,31
 792 -22 792 -22 653 -22 c 0,32,33
 566 -22 566 -22 503 6 c 128,-1,34
 440 34 440 34 397 77.5 c 128,-1,35
 354 121 354 121 325 167 c 1,36,-1
 317 167 l 1,37,-1
 317 -418 l 1,38,-1
 142 -418 l 1,16,-1
626 135 m 256,39,40
 725 135 725 135 795 186 c 128,-1,41
 865 237 865 237 903 328.5 c 128,-1,42
 941 420 941 420 941 543 c 256,43,44
 941 666 941 666 903.5 757 c 128,-1,45
 866 848 866 848 795.5 898 c 128,-1,46
 725 948 725 948 626 948 c 0,47,48
 526 948 526 948 455 897.5 c 128,-1,49
 384 847 384 847 346.5 756 c 128,-1,50
 309 665 309 665 309 543 c 0,51,52
 309 422 309 422 346.5 330 c 128,-1,53
 384 238 384 238 455.5 186.5 c 128,-1,54
 527 135 527 135 626 135 c 256,39,40
EndSplineSet
EndChar

StartChar: q
Encoding: 113 113 851
Width: 1206
GlyphClass: 2
Flags: W
AnchorPoint: "Anchor-1" 602 1087 basechar 0
AnchorPoint: "Anchor-0" 978 -417 basechar 0
LayerCount: 2
Fore
SplineSet
1064 -418 m 1,0,-1
 889 -418 l 1,1,-1
 889 167 l 1,2,-1
 881 167 l 1,3,4
 853 121 853 121 810 77.5 c 128,-1,5
 767 34 767 34 704.5 6 c 128,-1,6
 642 -22 642 -22 554 -22 c 0,7,8
 416 -22 416 -22 310.5 48.5 c 128,-1,9
 205 119 205 119 146.5 245.5 c 128,-1,10
 88 372 88 372 88 542 c 256,11,12
 88 712 88 712 147 838.5 c 128,-1,13
 206 965 206 965 311 1034.5 c 128,-1,14
 416 1104 416 1104 554 1104 c 0,15,16
 643 1104 643 1104 707 1076.5 c 128,-1,17
 771 1049 771 1049 814 1006.5 c 128,-1,18
 857 964 857 964 883 920 c 1,19,-1
 894 920 l 1,20,-1
 894 1087 l 1,21,-1
 1064 1087 l 1,22,-1
 1064 -418 l 1,0,-1
580 135 m 0,23,24
 680 135 680 135 751 186.5 c 128,-1,25
 822 238 822 238 859.5 330 c 128,-1,26
 897 422 897 422 897 543 c 0,27,28
 897 665 897 665 860 756 c 128,-1,29
 823 847 823 847 752 897.5 c 128,-1,30
 681 948 681 948 580 948 c 0,31,32
 482 948 482 948 411.5 898 c 128,-1,33
 341 848 341 848 303.5 757 c 128,-1,34
 266 666 266 666 266 543 c 256,35,36
 266 420 266 420 303.5 328.5 c 128,-1,37
 341 237 341 237 412 186 c 128,-1,38
 483 135 483 135 580 135 c 0,23,24
EndSplineSet
Substitution2: "'sups' Superscript in Latin lookup 39 subtable" q.sups
Substitution2: "'subs' Subscript in Latin lookup 38 subtable" q.subs
Substitution2: "'sinf' Scientific Inferiors in Latin lookup 18 subtable" q.subs
AlternateSubs2: "'aalt' Access All Alternates in Latin lookup 1 subtable" q.sups q.subs
EndChar

StartChar: uni02A0
Encoding: 672 672 852
Width: 1206
GlyphClass: 2
Flags: W
AnchorPoint: "Anchor-1" 602 1087 basechar 0
AnchorPoint: "Anchor-0" 978 -417 basechar 0
LayerCount: 2
Fore
SplineSet
885 871 m 1,0,-1
 885 1246 l 2,1,2
 885 1369 885 1369 961 1433 c 128,-1,3
 1037 1497 1037 1497 1177 1497 c 0,4,5
 1211 1497 1211 1497 1236 1496 c 128,-1,6
 1261 1495 1261 1495 1279 1493 c 1,7,-1
 1279 1344 l 1,8,9
 1264 1345 1264 1345 1239 1345.5 c 128,-1,10
 1214 1346 1214 1346 1200 1346 c 0,11,12
 1126 1346 1126 1346 1093 1322 c 128,-1,13
 1060 1298 1060 1298 1060 1246 c 2,14,-1
 1060 871 l 1,15,-1
 885 871 l 1,0,-1
1064 -418 m 1,16,-1
 889 -418 l 1,17,-1
 889 167 l 1,18,-1
 881 167 l 1,19,20
 853 121 853 121 810 77.5 c 128,-1,21
 767 34 767 34 704.5 6 c 128,-1,22
 642 -22 642 -22 554 -22 c 0,23,24
 416 -22 416 -22 310.5 48.5 c 128,-1,25
 205 119 205 119 146.5 245.5 c 128,-1,26
 88 372 88 372 88 542 c 256,27,28
 88 712 88 712 147 838.5 c 128,-1,29
 206 965 206 965 311 1034.5 c 128,-1,30
 416 1104 416 1104 554 1104 c 0,31,32
 643 1104 643 1104 707 1076.5 c 128,-1,33
 771 1049 771 1049 814 1006.5 c 128,-1,34
 857 964 857 964 883 920 c 1,35,-1
 894 920 l 1,36,-1
 894 1087 l 1,37,-1
 1064 1087 l 1,38,-1
 1064 -418 l 1,16,-1
580 135 m 0,39,40
 680 135 680 135 751 186.5 c 128,-1,41
 822 238 822 238 859.5 330 c 128,-1,42
 897 422 897 422 897 543 c 0,43,44
 897 665 897 665 860 756 c 128,-1,45
 823 847 823 847 752 897.5 c 128,-1,46
 681 948 681 948 580 948 c 0,47,48
 482 948 482 948 411.5 898 c 128,-1,49
 341 848 341 848 303.5 757 c 128,-1,50
 266 666 266 666 266 543 c 256,51,52
 266 420 266 420 303.5 328.5 c 128,-1,53
 341 237 341 237 412 186 c 128,-1,54
 483 135 483 135 580 135 c 0,39,40
EndSplineSet
EndChar

StartChar: qrthook
Encoding: 587 587 853
Width: 1207
GlyphClass: 2
Flags: W
AnchorPoint: "Anchor-4" 1065 0 basechar 0
AnchorPoint: "Anchor-1" 587 1087 basechar 0
AnchorPoint: "Anchor-0" 586 0 basechar 0
LayerCount: 2
Fore
SplineSet
1177 -422 m 0,0,1
 1037 -422 1037 -422 964.5 -357.5 c 128,-1,2
 892 -293 892 -293 892 -170 c 2,3,-1
 892 185 l 1,4,-1
 1065 185 l 1,5,-1
 1065 -170 l 2,6,7
 1065 -223 1065 -223 1095.5 -247 c 128,-1,8
 1126 -271 1126 -271 1200 -271 c 0,9,10
 1214 -271 1214 -271 1239 -270.5 c 128,-1,11
 1264 -270 1264 -270 1279 -269 c 1,12,-1
 1279 -418 l 1,13,14
 1261 -420 1261 -420 1236 -421 c 128,-1,15
 1211 -422 1211 -422 1177 -422 c 0,0,1
553 -22 m 0,16,17
 416 -22 416 -22 311 48.5 c 128,-1,18
 206 119 206 119 147 245.5 c 128,-1,19
 88 372 88 372 88 542 c 256,20,21
 88 712 88 712 147 838.5 c 128,-1,22
 206 965 206 965 311.5 1034.5 c 128,-1,23
 417 1104 417 1104 555 1104 c 0,24,25
 644 1104 644 1104 707.5 1076.5 c 128,-1,26
 771 1049 771 1049 814 1006.5 c 128,-1,27
 857 964 857 964 883 920 c 1,28,-1
 892 920 l 1,29,-1
 892 1087 l 1,30,-1
 1065 1087 l 1,31,-1
 1065 0 l 1,32,-1
 892 0 l 1,33,-1
 892 167 l 1,34,-1
 883 167 l 1,35,36
 855 121 855 121 811.5 77.5 c 128,-1,37
 768 34 768 34 704.5 6 c 128,-1,38
 641 -22 641 -22 553 -22 c 0,16,17
581 135 m 0,39,40
 681 135 681 135 752 186.5 c 128,-1,41
 823 238 823 238 860.5 330 c 128,-1,42
 898 422 898 422 898 543 c 0,43,44
 898 665 898 665 861 756 c 128,-1,45
 824 847 824 847 753 897.5 c 128,-1,46
 682 948 682 948 581 948 c 0,47,48
 483 948 483 948 412 898 c 128,-1,49
 341 848 341 848 303.5 757.5 c 128,-1,50
 266 667 266 667 266 543 c 0,51,52
 266 420 266 420 304 328.5 c 128,-1,53
 342 237 342 237 412.5 186 c 128,-1,54
 483 135 483 135 581 135 c 0,39,40
EndSplineSet
EndChar

StartChar: r
Encoding: 114 114 854
Width: 716
GlyphClass: 2
Flags: W
AnchorPoint: "Anchor-1" 397 1087 basechar 0
AnchorPoint: "Anchor-0" 229 0 basechar 0
LayerCount: 2
Fore
SplineSet
142 0 m 1,0,-1
 142 1087 l 1,1,-1
 310 1087 l 1,2,-1
 310 918 l 1,3,-1
 318 918 l 1,4,5
 348 1002 348 1002 419.5 1052.5 c 128,-1,6
 491 1103 491 1103 590 1103 c 0,7,8
 612 1103 612 1103 635.5 1101.5 c 128,-1,9
 659 1100 659 1100 672 1099 c 1,10,-1
 672 923 l 1,11,12
 663 926 663 926 632.5 930 c 128,-1,13
 602 934 602 934 566 934 c 0,14,15
 497 934 497 934 440 904 c 128,-1,16
 383 874 383 874 350 816 c 128,-1,17
 317 758 317 758 317 675 c 2,18,-1
 317 0 l 1,19,-1
 142 0 l 1,0,-1
EndSplineSet
Substitution2: "'smcp' Lowercase to Small Capitals in Latin lookup 69 subtable" r.sc
Substitution2: "'c2sc' Capitals to Small Capitals in Latin lookup 68 subtable" r.sc
Substitution2: "'sups' Superscript in Latin lookup 39 subtable" r.sups
Substitution2: "'subs' Subscript in Latin lookup 38 subtable" r.subs
Substitution2: "'sinf' Scientific Inferiors in Latin lookup 18 subtable" r.subs
AlternateSubs2: "'aalt' Access All Alternates in Latin lookup 1 subtable" r.sc r.sups r.subs
EndChar

StartChar: rrthook
Encoding: 57437 57437 855
Width: 716
GlyphClass: 2
Flags: W
AnchorPoint: "Anchor-1" 397 1087 basechar 0
AnchorPoint: "Anchor-0" 229 0 basechar 0
LayerCount: 2
Fore
SplineSet
429 -422 m 0,0,1
 289 -422 289 -422 215.5 -357.5 c 128,-1,2
 142 -293 142 -293 142 -170 c 2,3,-1
 142 0 l 1,4,-1
 317 0 l 1,5,-1
 317 -170 l 2,6,7
 317 -223 317 -223 348 -247 c 128,-1,8
 379 -271 379 -271 452 -271 c 0,9,10
 466 -271 466 -271 491 -270.5 c 128,-1,11
 516 -270 516 -270 532 -269 c 1,12,-1
 532 -418 l 1,13,14
 514 -420 514 -420 488.5 -421 c 128,-1,15
 463 -422 463 -422 429 -422 c 0,0,1
142 0 m 1,16,-1
 142 1087 l 1,17,-1
 310 1087 l 1,18,-1
 310 918 l 1,19,-1
 318 918 l 1,20,21
 348 1002 348 1002 419.5 1052.5 c 128,-1,22
 491 1103 491 1103 590 1103 c 0,23,24
 612 1103 612 1103 635.5 1101.5 c 128,-1,25
 659 1100 659 1100 672 1099 c 1,26,-1
 672 923 l 1,27,28
 663 926 663 926 632.5 930 c 128,-1,29
 602 934 602 934 566 934 c 0,30,31
 497 934 497 934 440 904 c 128,-1,32
 383 874 383 874 350 816 c 128,-1,33
 317 758 317 758 317 675 c 2,34,-1
 317 0 l 1,35,-1
 142 0 l 1,16,-1
EndSplineSet
EndChar

StartChar: rturn
Encoding: 633 633 857
Width: 716
GlyphClass: 2
Flags: W
AnchorPoint: "Anchor-1" 483 1087 basechar 0
AnchorPoint: "Anchor-0" 367 0 basechar 0
LayerCount: 2
Fore
SplineSet
574 1087 m 1,0,-1
 574 0 l 1,1,-1
 406 0 l 1,2,-1
 406 169 l 1,3,-1
 398 169 l 1,4,5
 368 86 368 86 296.5 35 c 128,-1,6
 225 -16 225 -16 126 -16 c 0,7,8
 105 -16 105 -16 81.5 -14 c 128,-1,9
 58 -12 58 -12 44 -11 c 1,10,-1
 44 164 l 1,11,12
 54 162 54 162 84 157.5 c 128,-1,13
 114 153 114 153 150 153 c 0,14,15
 220 153 220 153 276.5 183.5 c 128,-1,16
 333 214 333 214 366 272 c 128,-1,17
 399 330 399 330 399 412 c 2,18,-1
 399 1087 l 1,19,-1
 574 1087 l 1,0,-1
EndSplineSet
EndChar

StartChar: rturnrthook
Encoding: 635 635 858
Width: 716
GlyphClass: 2
Flags: W
AnchorPoint: "Anchor-1" 483 1087 basechar 0
AnchorPoint: "Anchor-0" 367 0 basechar 0
LayerCount: 2
Fore
SplineSet
681 -422 m 0,0,1
 541 -422 541 -422 471 -357.5 c 128,-1,2
 401 -293 401 -293 401 -170 c 2,3,-1
 401 0 l 1,4,-1
 569 0 l 1,5,-1
 569 -170 l 2,6,7
 569 -223 569 -223 599.5 -247 c 128,-1,8
 630 -271 630 -271 704 -271 c 0,9,10
 717 -271 717 -271 742.5 -270.5 c 128,-1,11
 768 -270 768 -270 783 -269 c 1,12,-1
 783 -418 l 1,13,14
 771 -419 771 -419 756 -420 c 128,-1,15
 741 -421 741 -421 722.5 -421.5 c 128,-1,16
 704 -422 704 -422 681 -422 c 0,0,1
574 1087 m 1,17,-1
 574 0 l 1,18,-1
 406 0 l 1,19,-1
 406 169 l 1,20,-1
 398 169 l 1,21,22
 368 86 368 86 296.5 35 c 128,-1,23
 225 -16 225 -16 126 -16 c 0,24,25
 105 -16 105 -16 81.5 -14 c 128,-1,26
 58 -12 58 -12 44 -11 c 1,27,-1
 44 164 l 1,28,29
 54 162 54 162 84 157.5 c 128,-1,30
 114 153 114 153 150 153 c 0,31,32
 220 153 220 153 276.5 183.5 c 128,-1,33
 333 214 333 214 366 272 c 128,-1,34
 399 330 399 330 399 412 c 2,35,-1
 399 1087 l 1,36,-1
 574 1087 l 1,17,-1
EndSplineSet
EndChar

StartChar: rfishhookrev
Encoding: 639 639 859
Width: 682
Flags: W
LayerCount: 2
Fore
SplineSet
540 0 m 1,0,-1
 365 0 l 1,1,-1
 365 718 l 2,2,3
 365 807 365 807 335.5 852.5 c 128,-1,4
 306 898 306 898 256.5 915 c 128,-1,5
 207 932 207 932 148 932 c 0,6,7
 111 932 111 932 86 931 c 128,-1,8
 61 930 61 930 44 928 c 1,9,-1
 44 1093 l 1,10,11
 51 1094 51 1094 67 1095.5 c 128,-1,12
 83 1097 83 1097 107.5 1098 c 128,-1,13
 132 1099 132 1099 163 1099 c 0,14,15
 254 1099 254 1099 340.5 1064.5 c 128,-1,16
 427 1030 427 1030 483.5 946.5 c 128,-1,17
 540 863 540 863 540 719 c 2,18,-1
 540 0 l 1,0,-1
EndSplineSet
EndChar

StartChar: uni027E
Encoding: 638 638 860
Width: 682
Flags: W
LayerCount: 2
Fore
SplineSet
142 0 m 1,0,-1
 142 719 l 2,1,2
 142 863 142 863 198.5 946.5 c 128,-1,3
 255 1030 255 1030 342 1064.5 c 128,-1,4
 429 1099 429 1099 520 1099 c 0,5,6
 551 1099 551 1099 575 1098 c 128,-1,7
 599 1097 599 1097 615 1095.5 c 128,-1,8
 631 1094 631 1094 638 1093 c 1,9,-1
 638 928 l 1,10,11
 622 930 622 930 596.5 931 c 128,-1,12
 571 932 571 932 534 932 c 0,13,14
 476 932 476 932 426.5 915 c 128,-1,15
 377 898 377 898 347 852.5 c 128,-1,16
 317 807 317 807 317 718 c 2,17,-1
 317 0 l 1,18,-1
 142 0 l 1,0,-1
EndSplineSet
EndChar

StartChar: rdescend
Encoding: 57438 57438 861
Width: 716
GlyphClass: 2
Flags: W
AnchorPoint: "Anchor-1" 397 1087 basechar 0
AnchorPoint: "Anchor-0" 229 0 basechar 0
LayerCount: 2
Fore
SplineSet
142 -418 m 1,0,-1
 142 0 l 1,1,-1
 312 0 l 1,2,-1
 312 -418 l 1,3,-1
 142 -418 l 1,0,-1
142 0 m 1,4,-1
 142 1087 l 1,5,-1
 310 1087 l 1,6,-1
 310 918 l 1,7,-1
 318 918 l 1,8,9
 348 1002 348 1002 419.5 1052.5 c 128,-1,10
 491 1103 491 1103 590 1103 c 0,11,12
 612 1103 612 1103 635.5 1101.5 c 128,-1,13
 659 1100 659 1100 672 1099 c 1,14,-1
 672 923 l 1,15,16
 663 926 663 926 632.5 930 c 128,-1,17
 602 934 602 934 566 934 c 0,18,19
 497 934 497 934 440 904 c 128,-1,20
 383 874 383 874 350 816 c 128,-1,21
 317 758 317 758 317 675 c 2,22,-1
 317 0 l 1,23,-1
 142 0 l 1,4,-1
EndSplineSet
EndChar

StartChar: r.sc
Encoding: 60955 60955 871
Width: 1103
Flags: W
LayerCount: 2
Fore
SplineSet
142 0 m 1,0,-1
 142 1087 l 1,1,-1
 598 1087 l 2,2,3
 806 1087 806 1087 912 994.5 c 128,-1,4
 1018 902 1018 902 1018 744 c 0,5,6
 1018 588 1018 588 911 498 c 128,-1,7
 804 408 804 408 595 408 c 2,8,-1
 241 408 l 1,9,-1
 241 556 l 1,10,-1
 582 556 l 2,11,12
 720 556 720 556 782.5 603 c 128,-1,13
 845 650 845 650 845 744 c 256,14,15
 845 838 845 838 783.5 886 c 128,-1,16
 722 934 722 934 584 934 c 2,17,-1
 317 934 l 1,18,-1
 317 0 l 1,19,-1
 142 0 l 1,0,-1
866 0 m 1,20,-1
 561 491 l 1,21,-1
 756 491 l 1,22,-1
 1068 0 l 1,23,-1
 866 0 l 1,20,-1
EndSplineSet
EndChar

StartChar: rinv.sc
Encoding: 60956 60956 872
Width: 1103
Flags: W
LayerCount: 2
Fore
SplineSet
142 0 m 1,0,-1
 142 1087 l 1,1,-1
 317 1087 l 1,2,-1
 317 154 l 1,3,-1
 584 154 l 2,4,5
 722 154 722 154 783.5 202 c 128,-1,6
 845 250 845 250 845 344 c 0,7,8
 845 437 845 437 782.5 484.5 c 128,-1,9
 720 532 720 532 582 532 c 2,10,-1
 241 532 l 1,11,-1
 241 679 l 1,12,-1
 595 679 l 2,13,14
 804 679 804 679 911 589.5 c 128,-1,15
 1018 500 1018 500 1018 344 c 0,16,17
 1018 186 1018 186 912 93 c 128,-1,18
 806 0 806 0 598 0 c 2,19,-1
 142 0 l 1,0,-1
561 596 m 1,20,-1
 866 1087 l 1,21,-1
 1068 1087 l 1,22,-1
 756 596 l 1,23,-1
 561 596 l 1,20,-1
EndSplineSet
EndChar

StartChar: s
Encoding: 115 115 873
Width: 1027
GlyphClass: 2
Flags: W
AnchorPoint: "Anchor-3" 522 0 basechar 0
AnchorPoint: "Anchor-1" 520 1087 basechar 0
AnchorPoint: "Anchor-0" 520 0 basechar 0
LayerCount: 2
Fore
SplineSet
516 -24 m 0,0,1
 402 -24 402 -24 311.5 11.5 c 128,-1,2
 221 47 221 47 163.5 117.5 c 128,-1,3
 106 188 106 188 92 294 c 1,4,-1
 262 314 l 1,5,6
 278 221 278 221 343 174.5 c 128,-1,7
 408 128 408 128 513 128 c 0,8,9
 627 128 627 128 693.5 176 c 128,-1,10
 760 224 760 224 760 294 c 0,11,12
 760 353 760 353 717.5 390 c 128,-1,13
 675 427 675 427 598 445 c 2,14,-1
 420 487 l 2,15,16
 271 522 271 522 196 597.5 c 128,-1,17
 121 673 121 673 121 789 c 0,18,19
 121 882 121 882 172.5 953.5 c 128,-1,20
 224 1025 224 1025 314 1065.5 c 128,-1,21
 404 1106 404 1106 520 1106 c 0,22,23
 632 1106 632 1106 716 1068 c 128,-1,24
 800 1030 800 1030 851 962 c 128,-1,25
 902 894 902 894 916 802 c 1,26,-1
 752 781 l 1,27,28
 740 853 740 853 682.5 905 c 128,-1,29
 625 957 625 957 520 957 c 0,30,31
 422 957 422 957 359.5 910.5 c 128,-1,32
 297 864 297 864 297 795 c 0,33,34
 297 734 297 734 341.5 697 c 128,-1,35
 386 660 386 660 473 639 c 2,36,-1
 643 599 l 2,37,38
 795 563 795 563 867 489.5 c 128,-1,39
 939 416 939 416 939 302 c 0,40,41
 939 204 939 204 884.5 130.5 c 128,-1,42
 830 57 830 57 734.5 16.5 c 128,-1,43
 639 -24 639 -24 516 -24 c 0,0,1
EndSplineSet
Substitution2: "'sups' Superscript in Latin lookup 39 subtable" s.sups
Substitution2: "'subs' Subscript in Latin lookup 38 subtable" s.subs
Substitution2: "'sinf' Scientific Inferiors in Latin lookup 18 subtable" s.subs
AlternateSubs2: "'aalt' Access All Alternates in Latin lookup 1 subtable" s.sups s.subs
EndChar

StartChar: srthook
Encoding: 642 642 874
Width: 1027
GlyphClass: 2
Flags: W
AnchorPoint: "Anchor-3" 522 0 basechar 0
AnchorPoint: "Anchor-1" 520 1087 basechar 0
AnchorPoint: "Anchor-0" 520 0 basechar 0
LayerCount: 2
Fore
SplineSet
378 -422 m 0,0,1
 238 -422 238 -422 165 -357.5 c 128,-1,2
 92 -293 92 -293 92 -170 c 2,3,-1
 92 294 l 1,4,-1
 258 294 l 1,5,-1
 258 -170 l 2,6,7
 258 -223 258 -223 292.5 -247 c 128,-1,8
 327 -271 327 -271 401 -271 c 0,9,10
 410 -271 410 -271 425 -270.5 c 128,-1,11
 440 -270 440 -270 455.5 -269.5 c 128,-1,12
 471 -269 471 -269 481 -269 c 1,13,-1
 481 -418 l 1,14,15
 469 -419 469 -419 453.5 -420 c 128,-1,16
 438 -421 438 -421 419.5 -421.5 c 128,-1,17
 401 -422 401 -422 378 -422 c 0,0,1
516 -24 m 0,18,19
 402 -24 402 -24 311.5 11.5 c 128,-1,20
 221 47 221 47 163.5 117.5 c 128,-1,21
 106 188 106 188 92 294 c 1,22,-1
 262 314 l 1,23,24
 278 221 278 221 343 174.5 c 128,-1,25
 408 128 408 128 513 128 c 0,26,27
 627 128 627 128 693.5 176 c 128,-1,28
 760 224 760 224 760 294 c 0,29,30
 760 353 760 353 717.5 390 c 128,-1,31
 675 427 675 427 598 445 c 2,32,-1
 420 487 l 2,33,34
 271 522 271 522 196 597.5 c 128,-1,35
 121 673 121 673 121 789 c 0,36,37
 121 882 121 882 172.5 953.5 c 128,-1,38
 224 1025 224 1025 314 1065.5 c 128,-1,39
 404 1106 404 1106 520 1106 c 0,40,41
 632 1106 632 1106 716 1068 c 128,-1,42
 800 1030 800 1030 851 962 c 128,-1,43
 902 894 902 894 916 802 c 1,44,-1
 752 781 l 1,45,46
 740 853 740 853 682.5 905 c 128,-1,47
 625 957 625 957 520 957 c 0,48,49
 422 957 422 957 359.5 910.5 c 128,-1,50
 297 864 297 864 297 795 c 0,51,52
 297 734 297 734 341.5 697 c 128,-1,53
 386 660 386 660 473 639 c 2,54,-1
 643 599 l 2,55,56
 795 563 795 563 867 489.5 c 128,-1,57
 939 416 939 416 939 302 c 0,58,59
 939 204 939 204 884.5 130.5 c 128,-1,60
 830 57 830 57 734.5 16.5 c 128,-1,61
 639 -24 639 -24 516 -24 c 0,18,19
EndSplineSet
EndChar

StartChar: uni023F
Encoding: 575 575 875
Width: 1027
GlyphClass: 2
Flags: W
AnchorPoint: "Anchor-3" 522 0 basechar 0
AnchorPoint: "Anchor-1" 520 1087 basechar 0
AnchorPoint: "Anchor-0" 520 0 basechar 0
LayerCount: 2
Fore
SplineSet
240 266 m 1,0,1
 335 97 335 97 397 -9 c 128,-1,2
 459 -115 459 -115 499 -172.5 c 128,-1,3
 539 -230 539 -230 568 -252 c 128,-1,4
 597 -274 597 -274 626 -274 c 0,5,6
 666 -274 666 -274 703 -250 c 128,-1,7
 740 -226 740 -226 764 -204 c 1,8,-1
 830 -320 l 1,9,10
 798 -353 798 -353 741.5 -385.5 c 128,-1,11
 685 -418 685 -418 626 -418 c 0,12,13
 563 -418 563 -418 513 -390.5 c 128,-1,14
 463 -363 463 -363 420 -311 c 128,-1,15
 377 -259 377 -259 334 -186 c 2,16,-1
 122 186 l 1,17,-1
 240 266 l 1,0,1
516 -24 m 0,18,19
 402 -24 402 -24 311.5 11.5 c 128,-1,20
 221 47 221 47 163.5 117.5 c 128,-1,21
 106 188 106 188 92 294 c 1,22,-1
 262 314 l 1,23,24
 278 221 278 221 343 174.5 c 128,-1,25
 408 128 408 128 513 128 c 0,26,27
 627 128 627 128 693.5 176 c 128,-1,28
 760 224 760 224 760 294 c 0,29,30
 760 353 760 353 717.5 390 c 128,-1,31
 675 427 675 427 598 445 c 2,32,-1
 420 487 l 2,33,34
 271 522 271 522 196 597.5 c 128,-1,35
 121 673 121 673 121 789 c 0,36,37
 121 882 121 882 172.5 953.5 c 128,-1,38
 224 1025 224 1025 314 1065.5 c 128,-1,39
 404 1106 404 1106 520 1106 c 0,40,41
 632 1106 632 1106 716 1068 c 128,-1,42
 800 1030 800 1030 851 962 c 128,-1,43
 902 894 902 894 916 802 c 1,44,-1
 752 781 l 1,45,46
 740 853 740 853 682.5 905 c 128,-1,47
 625 957 625 957 520 957 c 0,48,49
 422 957 422 957 359.5 910.5 c 128,-1,50
 297 864 297 864 297 795 c 0,51,52
 297 734 297 734 341.5 697 c 128,-1,53
 386 660 386 660 473 639 c 2,54,-1
 643 599 l 2,55,56
 795 563 795 563 867 489.5 c 128,-1,57
 939 416 939 416 939 302 c 0,58,59
 939 204 939 204 884.5 130.5 c 128,-1,60
 830 57 830 57 734.5 16.5 c 128,-1,61
 639 -24 639 -24 516 -24 c 0,18,19
EndSplineSet
EndChar

